<svg width="212" height="100" fill="none" xmlns="http://www.w3.org/2000/svg"><g clip-path="url(#a)" fill-rule="evenodd" clip-rule="evenodd"><path d="M153.851 19.098c2.377-.037 5.722.72 8.388 2.677 8.598.333 17.526 5.222 22.834 9.42.85 1.303.609 2.517.188 3.271-.214-.141-.2-1.58-.756-1.96-2.787-2.82-10.066-6.432-13.246-7.685-.613-.317-.684.588-1.717.31-1.335-.314-1.893-1.448-2.688-1.933-.889-.11-3.311-1.011-7.12-.522-1.949-.458-2.949-2.586-5.883-3.578Zm11.077 13.494c2.713.835 5.431 1.652 8.362 1.938 1.288.02 2.568-.527 3.739-.629 2.767.626 5.575 3.04 7.137 2.09-.066.689-.918 1.332-1.604 1.33-1.617.118-4.944-1.77-5.329-1.897-1.333-.318-3.323 2.272-10.385-1.36l-.13-.08c-6.82 6.309-10.097 11.02-11.867 18.173l-2.309-.75.302-4.19c3.023-6.27 8.81-10.872 13.589-13.41l-1.604-.984.099-.23Zm-7.423-9.666c-9.379 1.601-17.824 6.267-23.659 9.32.839.783 1.991 1.462 2.831 2.246 5.736-5.043 13.966-8.92 20.909-11.233l-.081-.333Z" fill="#000"/><path d="M143.111 43.719c-.425-3.17-2.463-6.608-6.001-9.663-17.144-11.64-35.761-7.9-53.168-11.097-18.924-2.286-27.796-4.712-40.066-9.211 12.453 9.839 32.843 12.196 46.977 14.007 14.289 2.866 43.276-2.75 52.258 15.964Z" fill="#000"/><path d="M131.972 44.702c-2.284-17.457-51.423-5.997-78.234-21.914 23.378 20.052 68.197 7.028 78.234 21.914Z" fill="#000"/><path d="M123.546 49.432c-1.832-13.998-41.235-4.808-62.734-17.572 18.746 16.079 54.685 5.635 62.734 17.572Z" fill="#000"/><path d="M22.567 52.769 15.88 51.52c1.272-2.783 2.97-4.836 5.103-6.176 2.143-1.333 5.074-2.007 8.81-2.007 3.404 0 5.856.407 7.377 1.211 1.513.804 2.505 1.822 2.96 3.061.454 1.24.393 3.505-.197 6.816l-1.666 8.888c-.45 2.524-.663 4.392-.627 5.595.028 1.193.26 2.488.683 3.856h-7.538a26.932 26.932 0 0 1-.33-2.247 9.44 9.44 0 0 0-.108-.896c-1.531 1.266-3.086 2.21-4.68 2.848a13.25 13.25 0 0 1-4.912.943c-2.96 0-5.156-.804-6.572-2.404-1.425-1.609-1.913-3.643-1.475-6.103a9.673 9.673 0 0 1 1.94-4.347c1.004-1.276 2.268-2.247 3.784-2.922 1.517-.674 3.648-1.266 6.374-1.775 3.67-.665 6.252-1.295 7.722-1.868l.135-.758c.262-1.47.085-2.506-.524-3.135-.61-.619-1.914-.934-3.921-.934-1.36 0-2.461.268-3.315.805-.85.523-1.626 1.457-2.337 2.798Zm9.082 6.178c-1.028.323-2.642.71-4.84 1.165-2.19.453-3.646.896-4.378 1.322-1.117.712-1.775 1.6-1.967 2.682-.19 1.073.044 1.988.702 2.765.657.777 1.595 1.165 2.825 1.165 1.378 0 2.763-.453 4.17-1.35 1.047-.684 1.798-1.526 2.263-2.524.319-.648.632-1.888.956-3.709l.269-1.517Zm14.349-14.954H53.1l-.752 4.227c1.174-1.452 2.631-2.627 4.364-3.524a11.673 11.673 0 0 1 5.476-1.36c3.34 0 5.944 1.314 7.799 3.931 1.864 2.617 2.378 6.27 1.546 10.95-.855 4.8-2.695 8.534-5.51 11.199-2.823 2.663-5.909 3.995-9.247 3.995-1.59 0-2.977-.314-4.16-.943-1.172-.638-2.339-1.72-3.499-3.255l-2.581 14.5h-7.611l7.073-39.72Zm5.062 13.9c-.575 3.227-.364 5.623.648 7.158 1 1.543 2.425 2.32 4.275 2.32 1.766 0 3.363-.712 4.79-2.126 1.426-1.416 2.432-3.745 3.007-6.972.539-3.025.327-5.263-.624-6.724-.951-1.46-2.319-2.191-4.104-2.191-1.859 0-3.53.71-5.017 2.155-1.484 1.431-2.474 3.558-2.975 6.38Zm28.134 14.87h-7.612l5.123-28.77h7.065l-.728 4.087c1.555-1.933 2.875-3.21 3.945-3.82a6.908 6.908 0 0 1 3.456-.924c1.738 0 3.317.48 4.754 1.443l-3.538 6.63c-1.13-.823-2.249-1.24-3.35-1.24-1.072 0-2.02.288-2.865.88-.853.582-1.617 1.645-2.314 3.18-.698 1.535-1.485 4.754-2.356 9.645l-1.58 8.888Zm17.04-32.673 1.256-7.047h7.611l-1.255 7.047h-7.612Zm-5.817 32.672 5.123-28.77h7.612l-5.124 28.77h-7.611Zm12.333 0 7.073-39.719h7.611l-7.075 39.72h-7.609Zm18.151-32.672 1.255-7.047h7.612l-1.256 7.047h-7.611Zm-5.819 32.672 5.123-28.77h7.612l-5.123 28.77h-7.612Zm21.581-19.993-6.686-1.249c1.272-2.783 2.97-4.836 5.104-6.176 2.142-1.333 5.074-2.007 8.81-2.007 3.403 0 5.855.407 7.377 1.211 1.512.804 2.505 1.822 2.959 3.061.455 1.24.392 3.505-.197 6.816l-1.666 8.888c-.45 2.524-.663 4.392-.626 5.595.027 1.193.26 2.488.682 3.856h-7.537a26.596 26.596 0 0 1-.33-2.247c-.022-.3-.058-.6-.11-.896-1.53 1.266-3.084 2.21-4.678 2.848a13.26 13.26 0 0 1-4.912.943c-2.96 0-5.156-.804-6.573-2.404-1.424-1.609-1.912-3.643-1.475-6.103a9.677 9.677 0 0 1 1.94-4.347c1.004-1.276 2.268-2.247 3.785-2.922 1.516-.674 3.646-1.266 6.374-1.775 3.669-.665 6.25-1.295 7.721-1.868l.135-.758c.262-1.47.086-2.506-.524-3.135-.611-.619-1.915-.934-3.921-.934-1.359 0-2.461.268-3.314.805-.851.523-1.628 1.457-2.338 2.798Zm9.081 6.178c-1.029.323-2.642.71-4.84 1.165-2.19.453-3.646.896-4.379 1.322-1.116.712-1.773 1.6-1.966 2.682-.191 1.073.044 1.988.701 2.765.657.777 1.595 1.165 2.825 1.165 1.379 0 2.763-.453 4.171-1.35 1.047-.684 1.799-1.526 2.263-2.524.319-.648.632-1.888.957-3.709l.268-1.517Z" fill="#CC2229"/><path d="M56.058 82.148v-4.275h-2.513v-.87h6.732v.87H57.77v4.275h-1.712Zm6.97 0v-5.146h1.713v2.025h3.35v-2.025h1.71v5.146h-1.71v-2.25h-3.35v2.25h-1.713Zm10.186 0v-5.146h6.279v.871h-4.57v1.142h4.252v.865h-4.251v1.402h4.73v.866h-6.44Zm14.476 0v-5.146h5.808v.871h-4.095v1.217h3.536v.872h-3.536v2.186H87.69Zm8.908 0v-5.104h1.71v4.238h4.251v.866h-5.961Zm9.961 0v-2.167l-3.101-2.979h2.005l1.995 2.036 1.952-2.036h1.969l-3.114 2.987v2.16h-1.706Zm7.262 0v-5.146h1.708v5.146h-1.708Zm4.999 0v-5.146h1.666l3.466 3.436v-3.436h1.589v5.146h-1.717l-3.414-3.356v3.356h-1.59Zm14.113-1.892v-.867h3.686v2.05c-.359.21-.878.397-1.558.557-.681.16-1.369.24-2.065.24-.886 0-1.659-.113-2.317-.338-.659-.227-1.154-.55-1.485-.97-.332-.421-.497-.878-.497-1.371 0-.536.185-1.013.554-1.43.371-.416.91-.736 1.625-.958.542-.171 1.218-.256 2.026-.256 1.053 0 1.875.134 2.464.402.591.268.972.639 1.142 1.113l-1.699.193c-.119-.253-.344-.453-.673-.6-.329-.147-.74-.219-1.234-.219-.747 0-1.34.144-1.782.431-.441.29-.661.716-.661 1.283 0 .61.222 1.07.67 1.375.446.305 1.031.457 1.756.457a4.68 4.68 0 0 0 1.078-.127 4.91 4.91 0 0 0 .928-.31v-.654l-1.958-.001Zm11.816 1.892v-5.146h2.559l1.537 3.511 1.518-3.51h2.566v5.145h-1.587v-4.05l-1.682 4.05h-1.647l-1.677-4.05v4.05h-1.587Zm13.746 0v-2.167l-3.102-2.979h2.006l1.994 2.036 1.952-2.036h1.97l-3.114 2.987v2.16h-1.706Zm9.219 0v-4.275h-2.512v-.87h6.729v.87h-2.506v4.275h-1.711Zm6.97 0v-5.146h1.712v2.025h3.351v-2.025h1.71v5.146h-1.71v-2.25h-3.351v2.25h-1.712Zm9.838-2.54c0-.526.128-.965.387-1.32.216-.283.484-.523.789-.707.339-.21.708-.366 1.095-.464a7.343 7.343 0 0 1 1.826-.204c1.248 0 2.246.235 2.995.707.75.47 1.124 1.124 1.124 1.962 0 .832-.373 1.481-1.117 1.95-.744.47-1.737.704-2.98.704-1.26 0-2.263-.234-3.006-.7-.742-.466-1.113-1.11-1.113-1.929Zm1.762-.036c0 .582.222 1.025.663 1.325.444.301 1.007.45 1.689.45.68 0 1.24-.148 1.678-.447.436-.298.655-.746.655-1.343 0-.59-.213-1.03-.636-1.32-.427-.291-.992-.435-1.697-.435-.706 0-1.274.148-1.706.441-.429.294-.646.735-.646 1.329Zm8.999.903 1.665-.1c.099.341.302.59.61.75.305.159.718.239 1.239.239.55 0 .966-.07 1.244-.213.28-.141.42-.307.42-.496 0-.122-.059-.226-.177-.31-.116-.087-.322-.16-.616-.223-.454-.085-.91-.16-1.368-.225-.917-.138-1.56-.309-1.929-.51-.521-.284-.781-.628-.781-1.035 0-.262.121-.507.366-.736.246-.228.598-.4 1.058-.522.461-.118 1.016-.178 1.667-.178 1.065 0 1.863.141 2.4.424.537.284.819.662.846 1.135l-1.71.046a.855.855 0 0 0-.471-.572c-.241-.115-.602-.173-1.083-.173-.497 0-.888.061-1.166.186-.183.078-.272.186-.272.319 0 .121.084.226.253.312.215.111.74.225 1.572.344.833.12 1.448.243 1.847.37.397.128.709.301.937.524.225.222.337.495.337.82 0 .295-.134.571-.404.828-.27.258-.65.45-1.143.574-.493.125-1.108.189-1.845.189-1.071 0-1.894-.15-2.466-.451-.576-.303-.92-.741-1.03-1.316Z" fill="#000"/></g><defs><clipPath id="a"><path fill="#fff" d="M0 0h211.506v100H0z"/></clipPath></defs></svg>