<svg width="54" height="100" fill="none" xmlns="http://www.w3.org/2000/svg"><g clip-path="url(#a)"><path d="M53.908 2.667V12.93H.593v84.394a2.686 2.686 0 0 0 2.677 2.674h47.96a2.684 2.684 0 0 0 2.678-2.674V2.667Z" fill="#F6D33C"/><path d="M51.23 0H3.27C1.798 0 .592 1.286.592 2.857v1.421h53.316v-1.43C53.9 1.282 52.701 0 51.23 0Z" fill="#2F9C5C"/><path d="M.593 4.388h53.315v4.053H.593V4.388Z" fill="#fff"/><path d="M.593 8.497h53.315v4.432H.593V8.497Z" fill="#CF4037"/><path d="M.593 8.44h53.315v.057H.593v-.056Z" fill="#D35B31"/><path d="M2.995 95.854v-1.013h.562c.282 0 .843-.06.843-.734v-6.076c0-.365-.026-1.239-.73-1.239h-.648l.734-1.292h43.276v1.292H7.217c-.365 0-.844.084-.844.818v1.913c.083.223.422.309.592.309.17 0 .76-.03.76-.957h.84v3.123h-.843c0-.283-.312-.754-.73-.788-.34-.026-.619.087-.619.539v2.361c0 .253.31.734 1.04.734h.505v1.014l-4.923-.004Z" fill="#000"/><path d="M27.971 88.257c0 .226.28.452.449.505.2-.14 1.239-.73 2.053-.73.814 0 1.239.421 1.239 1.069v3.096h-1.97v-2.395c0-.309-.083-.532-.365-.562-.283-.03-1.014.565-1.21.848v4.275c0 .395.396.674.731.674v.817h-3.431v-.844c.339 0 .704-.112.73-.62v-4.758c0-.139-.225-.531-.73-.531v-.847l2.505.003Zm23.552 0h-3.431v.847c.505 0 .73.392.73.532v4.757c-.026.505-.395.62-.73.62v.845h3.431v-.82c-.339 0-.73-.28-.73-.675v-4.667c0-.34.365-.592.73-.592v-.847Zm-31.145 0c0 .226.279.452.448.505.2-.14 1.24-.73 2.053-.73.817 0 1.24.421 1.24 1.069v3.096h-1.97v-2.395c0-.309-.084-.532-.366-.562-.282-.03-1.013.562-1.21.844v4.275c0 .396.396.675.732.675v.817h-3.432v-.844c.339 0 .704-.113.731-.621v-4.757c0-.14-.226-.531-.73-.531v-.847h2.504v.006Zm22.817 0c0 .226.283.452.452.505.2-.14 1.24-.73 2.053-.73.814 0 1.24.421 1.24 1.069v3.096h-1.97v-2.395c0-.309-.084-.532-.366-.562-.282-.03-1.013.562-1.21.844v4.275c0 .396.393.675.732.675v.817h-3.432v-.844c.339 0 .701-.113.73-.621v-4.757c0-.14-.225-.531-.73-.531v-.847h2.501v.006Zm-26.81 5.239h-1.967v.76c0 .31-.056.957-.983.957-.927 0-1.209-.621-1.209-1.07v-1.6c0-.143.113-.34.309-.34h3.853v-2.052c0-.93-.196-1.213-.591-1.605-.395-.392-1.774-.505-2.392-.505-1.574 0-2.082.223-2.53.592-.453.365-.622 1.126-.622 1.687v3.182c0 .844.17 1.435.704 1.97.535.532 2.166.532 2.505.532.339 0 1.461.03 2.279-.562.817-.598.644-1.946.644-1.946Zm-4.162-3.492c0-.451.14-1.126 1.126-1.126.986 0 1.07.735 1.07 1.126v1.014a.342.342 0 0 1-.34.338h-1.517c-.166 0-.34-.139-.34-.308v-1.044Zm26.727 4.359v-4.219c0-.648-.03-1.322-.704-1.804-.674-.478-1.774-.448-2.196-.448-.422 0-1.827 0-2.478.73-.644.735-.535 1.436-.535 1.718h1.844s.126-.957.382-1.21c.252-.252.927-.534 1.448-.082.193.166.27.379.27.621v1.21c0 .112-.114.281-.257.281 0 0-2.56.057-3.01.392-.447.34-.843.562-.843 1.8 0 1.24.31 1.718.674 1.97.366.253.535.536 2.196.536h3.94v-.82c-.339 0-.73-.28-.73-.675Zm-1.97.481c0 .07-.113.17-.199.17h-.97c-.69 0-.887-.591-.887-.957v-1.083c0-1.053 1.096-1.03 1.531-1.03.439 0 .522.366.522.608v2.292h.003Zm12.696-8.062c.987 0 1.784-.299 1.784-.667 0-.369-.797-.668-1.784-.668-.983 0-1.78.299-1.78.668 0 .368.797.667 1.78.667ZM24.962 57.258l-.103.252.306 1.505.412 1.369 1.126 2.475 1.093 1.91.866 1.179.017.286-.053.239-.22.086-1.82-.033-1.797-.272-1.877-.668-.833-.05-.24.103-1.096-.12-.438-.152-2.887-.07-.359.15-.255.072-.087.12.017.236.7 1.03.273.116.924.578.531.173 1.448-.05 1.073-.292.21.102.096.206.176.05.957.017.272.086.322-.086 1.774.239 2.033.512 1.595.63.292.21.77.033.412-.103.456-.993-.07-.442-.678-1.349-.306-.833-.325-1.744.083-1.708.103-.458-.123-.399-1.123-.833-.239-1.02-.658-.954-1.587-1.282-.651-.256-.273.044-.24.16Zm.611-34.826-.046-.495-.701-.85-.216-.063-.15.212.02.256-.236.213-.023.295.668.432h.684Z" fill="#000"/><path d="m48.335 43.622-.24-.11v.363l-.189.212-.342.512-.193.126-.747.987-.256.574-.279.047-.255-.153-.15-.681.04-.79.173-.731 1.282-1.964.508-1.043.067-.73-.08-.23-.153.15-.256.638-.388.64-1.236 1.107-.983 1.156-.193-.02-.067-.196.044-1.345.299-.98.534-1.09.708-.877.877-.747.08-.176-.107-.08-.81.472-1.389 1.216-.551.75-.538.98-.296.79-.13 1.858.512 2.076.492 1.511.511 3.2-.083 1.537-.365 1.365-.9 1.133-.914.834-1.176.661-1.13.066-.152-.551-.405-.794-1.409-1.877-1.05-1.003-1.534-1.239-1.472-1-2.116-1.77-1.149-1.435-1.266-2.07-.342-1.239.087-.77.172-.15 1.156.641.572-.023 1.368.73.837.622.485.066.113-.212-.13-.024-.149.067-.239-.153-.511-.81-.578-.532-.894-.28.063-.169h.449l.514.17 1.09.641.13-.173-.213-.299-.578-.514-.9-.469-1.087-.425-.212-.173.212-.153.485.24.9.149 1.472.638.9.126.642-.086.853-.472.213-.206.023-.15-.196.014-.192.2-1.193.295-.472-.067-.452-.358-.408-.476-.482-.358-1.431-.389-.303-.192.024-.167.279.04 2.219-.103.279.23.81.11.17-.127-.296-.087-.75-.597-.622-.326-.98-.126-.17-.103.343-.193h.554l1.538.635.685.023.362-.173.106-.232-.276-.127-.574-.023-.492-.17-.428-.365-.472-.235-.621-.103-.535-.193-.233-.302.04-.15.77.2.257.189.365.043.04-.193-.382-.302-.11-.272.515.08.485.255.621.07.24.448.637.382.037-.006.14-.06.166-.103-.08-.126-.24.016-.64-.956-.748-.665-.767-.345-.681-.81-.429-.23-.066-.216.192-.13 1.774.509.276.388.449.233h.342l.455.126.491-.086.19-.17-.276-.236-.877-.169-.279-.236-.365-.531-.087-.346-1.561-1.106-.634-.598-.044-.172h.146l.834.664 1.306.834.574.534.81.363.15-.236-.212-.08-.445-.405-.13-.452-.857-.837-.192-.485-.662-.99-.9-.787-.04-.253.32.04 1.175.535.748.04.554.262.598.103.508-.153-.04-.212-.58-.127-2.093-1.026-.29-.362.104-.126.152.103.23.083.302.026 1.558-.086.491.193.512.362.216.066.023-.193-.173-.172-.511-.472-.794-.405-1.664-.13-.81-.853-.851-.638.192-.15 1.432.622.81.192h.702l.578.645.471.275.17-.173-.641-.943-1.004-.724-.833-.2-.708-.74-.621-.362-.85-.216.471-.405 1.455-.472.146-.193-.08-.15-.674-.149-2.408.047-.429-.475-1.11-.595-.81-.13h-.7l-.85-.963-.795-.72-.488.81-.023.252.229.303.023.255-.166.15-.541.043-1.94-.488-1.176.17.086.252.409-.017.166.03-.007.226-.236.053-.309-.043-.81.21-.28.02-.086.119.1.17.21.046.195-.057.226-.1.233-.01.491.02.82.223.655.296.06.143-.066.11-.31.109-.185.086-1.449.924-1.764.903-1.465.14-.219.06-.126.265-.1.29-.11.198-.547.877-.18.226-.016.263.016.754.24.212.209.11.249-.02 1.485-.495.249.01.056.16-.056.149-.21.11-1.109.375-.093.156-.017.17.157.14.332.042h.265l.701-.1.525-.278.35-.07.298-.06.226.073.658.027.265.156.964.206.295.043.459-.08.581.04.256.1.14.236-.24 1.122-.744 2.063-1.564 2.176-1.641 1.575-.203.664-.282.335-1.459 1.02-.561.286-.615.74-.255.16-.36.18-.232-.054-2.554-1.312-1.568-1.252-.638-.23-.561-.102-.718.152-.95.592-.97 2.69-.03.745-.561 1.813-.332.641-.18.638-.106.794-.465 1.046-.046 2.15-.127.465.073.405-.03.664.233.535.18.126.332-.103.747-.81.382-.618.153-.508-.615-2.668.103-.973.256-.787.668-.9.329-.03.156-.097.717-.744.183-.664.096-.77.18-.227.179-.053.23.077.331.179 1.176 1.481.874.745.409.179.126.256-.127.126-2.607-.458h-1.462l-.847.637-.359.615-.272.697-.03.512.156.92.36 1.176.84 3.71.156 1.02.15.36.746.667.406.614.282.721.435.635.638.617.465.283.306.023.255-.073.33-.668.106-.431v-1l-.123-.283c-.024 0-.024-.182-.024-.206l-.053-.179-.59-.691-.715-.309-.26-.08-.046-.435.024-.276-.486-.564-.308-.714-.465-1.967-.353-.744-.126-.897.203-.541.359-.203h.279l.412.359.59.355 2.097.947.717.412v.385l.662.382.847.286h1.767l-.127.332-.076.18.661 1.072 1.535 1.608 2.063 1.671 1.906 1.02 2.017 1.405.834.707.87 1.176.04.492.196.508.535.382.485.193.298-.04.582-.598.08-.492.405-.7.192-1.605.137-.295.272-.133h.26l.016.196-.193.209-.296.73-.046 1.064-.103.365-1.176 2.026-.25 1.004-.125 1.05.126 1.172.166.684 1.329 2.8.554.874.661.814.127.276v.192l-.087.24-1.345 1.853-1.432 1.561-.9.406-.359.345-.192.385-1.512 1.688-.365.634-.342 1.176.023.429.256.272 1.345-.04.98-.508.09-.216h.192l.296-.13.279-.258.15-1.024-.087-.212-.04-.213.15.043.166.047.176-.126.276-.176.66-.9.19-.469.043-.382.236-.176.621-.359.23-.471 1.415-1.366 1.408-.86.17-.166.066-.176.15-.193-.104-.256-.116-.907-.11-.255-.823-1.27-.04-.9.319-1.09.239-.381.252-.15 1.774-1.408 1.561-1.734 1-1.917.216-.73.103-1.193.173-.17.193-.046.169.11.15.355.109.963-.086 1.86.126.831.153.213.126-.017.063-.153-.086-.342v-.581l.176-.485.166-1.2.11-.229h.129l.103.103.193.794-.166 1.449-.755 1.587-.212.662v.876l.153.452h.279l.143-.199-.08-.213-.063-.382 1.597-2.56.32-1.731v-.98l-.193-.685-.382-.531-.047-.256.173-.083.213.103.624.963.233 1.674.212.668.023.017.296.66.193.07.086-.172-.023-.106-.146-.489V60.55l.13-1.216-.047-.342-.638-1.176.103-.192.405-.083 1.153-.575.535-.472.684-.92.708-1.495.126-2.219-.638-4.205.256-1.432.358-.787.515-.81.193-.515.04-.256-.166-.233ZM19.289 28.166l-.166.166-.24.133-.318.07-.11-.07-.04-.226.093-.319.226-.316.186-.093.17.017.202.17.093.149-.096.319Zm.837-.213-.06.03-.113.007-.096-.047-.073-.086.01-.107.086-.139.07-.047h.093l.083.02.03.087.01.15-.04.132Zm1.03.95-.087.043h-.11l-.062-.036-.034-.093.01-.113.067-.07.08-.003.086.023.04.063.026.103-.016.083Zm1.976-2.99L23 25.95l-.162.04-.18.15-.402.242-1.222.262-.166-.02.265-.225 1.455-.681.213-.103.163-.024.133.03.106.17-.07.123ZM8.207 49.938l-.172-.04-.087-.17.173-.086.15.017.04.153-.104.126Zm2.246-8.959-.28.963-.278.429-.15.04-.053-.113v-.226l.14-.89.245-.422.127-.15.186-.056.07.106-.007.319Zm1.232-1.7-.279.106-.266.026-.162-.063-.04-.116.046-.156.14-.097.289-.036.15-.014.102.03.093.087.007.096-.08.136Zm2.266 3.055-.06.007-.136-.086-.2-.11-.169-.14-.156-.156-.07-.086-.017-.126.034-.067.06.007.1.017.109.1.13.112.202.123.123.146.073.11.007.096-.03.053Zm-3.807 3.043-.103.146-.103.04-.07-.06.004-.206.176-.302.053-.086.086-.04.083.053v.173l-.053.123-.073.16Zm.724 5.385-.037.053h-.04l-.072-.066-.06-.11-.093-.203-.133-.269-.203-.81.053-.907.037-.053h.063l.067.06.063.272.006.279.382 1.598-.033.156Zm2.588 4.933.07-.017.166.037.076.08.017.096-.017.116-.1.073-.123-.023-.086-.08-.033-.183.03-.1Zm1.67-7.807-.172.01-.226-.036-.156-.07-1.13-.737-.14-.103.187-.007.203.073 1.036.405.266.123.14.127.022.116-.03.1Zm1.934-4.999-.458 1.339-.38.472-.189.146-.202.073-.116-.08-.01-.153.16-.173.381-.75.243-.887.226-.422.152-.216.127-.033.116.046.033.14-.083.498Zm9.294-13.556.193-.243.22-.206.195-.133.146-.016.1.066v.18l-.053.199-.482.372-.265.07-.13-.043-.013-.107.09-.14Zm-.777-4.495.186-.063.13-.06.16.057.052.116-.12.14-.165.066-.206.01-.077-.14.04-.126Zm-1.611 1.502-.073-.206.11-.223.242-.206.389-.016.282.053.223.15.11.262.092.279-.016.239-.243.096h-.262l-.592-.279-.262-.15Zm.621 3.05h-.296l-.053-.1.073-.103.09-.054.934-.63.212-.134h.077l.01.157-.143.113-.067.235-.182.28-.655.235ZM21.06 39.904l-.04-.063.01-.156.104-.116 1.122-.39 1.223-.092.382.08.358.182.283.28.016.155-.03.11-.122.023-.183-.023-.282-.08-.266-.08-1.738.047-.275.07-.266.06-.173.013-.123-.02Zm4.807 15.732-2.903-1.986-1.515-1.395-.17-.263-.063-.312.01-.29.11-.109.193.01.624.492 1.349 1.525 2.385 2.129.073.12.053.086-.146-.007Zm.266-13.25-.123.07-.296.003-.196-.047-.11-.146-.096-.113v-.19l.143-.185.22-.173.209-.03.192.053.057.103.023.23.03.242-.053.182Zm.584-9.55-.395 1.159-.77 1.355-.648.91-.492.515-.342.133-.11-.007-.02-.086.107-.243 1.61-3.013.516-.827.265-.252.203-.037.086.143-.01.25Zm1.186-3.097-.063.156-.226.266-.628.28-.322.006h-.202l-.07-.093.076-.133.18-.08.67-.372.17-.12.256-.122.16.036v.176Zm1.698 9.776-.117.034-.149-.01-.1-.1.024-.083.1-.07.149-.01.13.103.003.087-.04.05Zm.176-.564H29.6l-.09-.053v-.13l.04-.086.093-.03h.123l.116.076.01.09-.116.133Zm.319-.877-.116.06-.123.016-.127-.03-.04-.086v-.103l.103-.073.13-.023h.123l.073.063.017.1-.04.076Zm.163-.738-.157.047-.176-.007-.093-.063-.006-.07.03-.103.14-.063.149-.026.13.066.046.12-.064.1Zm.375-1.03-.086.117-.08.103-.163.033h-.163l-.14-.07-.013-.11.1-.102.076-.087.11-.04.18-.053h.139l.063.077-.023.133Zm.232-.863-.076.12-.133.023-.14.036-.172-.006-.077-.087.01-.126.06-.086.116-.08.18-.027.163.037.07.096v.1Zm.246-.638-.183.073-.139.05h-.173l-.07-.013-.086-.03-.046-.087.023-.11.116-.102.1-.053.11-.047.155-.006.15.053.063.123-.02.15Zm.02-.99-.063.103-.11.09-.162.06-.193.02-.156-.027-.04-.09.023-.073.063-.05.28-.142.132-.03.163.016.063.06v.063Zm-.438-2.348.053-.037.023-.103.02-.083.046-.06.087-.003.103.03.093.053.01.11-.01.179-.14.12-.176.09-.076-.01-.076-.03-.077-.097-.01-.103.03-.06.1.004Zm-.1-.744v-.084l.076-.08.12-.042.146-.007.087.027.023.073-.047.08-.076.082-.12.027h-.13l-.079-.076Zm.007 2.348.103-.066.123-.03.122-.01.087.006.033.054v.083l-.04.096-.08.093-.206.086-.1-.01-.092-.03-.023-.096.016-.11.057-.066Zm.518-.714-.027.076-.126.087-.176.066-.096-.023-.093-.057-.02-.09.01-.116.07-.07.1-.07.142-.029.123-.003.083.023.026.08-.016.126Zm.05-2.452-.017.1-.066.09-.107.036-.096.023-.086.014-.117-.014-.03-.066.03-.093.07-.063.073-.043.126-.087.137.007.083.096Zm-.183-.85.07.04.01.1-.004.09-.113.099-.102.04-.067-.01-.053-.027v-.096l.007-.097.076-.08.07-.042.106-.017Zm-.133-.482-.026.107-.077.053-.07.043-.093.013-.076-.05-.017-.08.037-.069.07-.093.07-.033.092-.007.073.047.017.07Zm-.95-1.87.17-.01.235-.093.216-.05.18-.013.093.087-.127.192-.13.037-.215.073-.276.156-.265.14-.31.129-.102.01-.087-.027.01-.13-.046-.122v-.22l.1-.248.139-.15.086-.116.093-.113h.14l.1.096-.027.243.023.13Zm-.1-2.309.064.044-.02.06-.093.11-.13.012-.15-.023-.086-.04-.066-.076.076-.063.11-.047.166-.006.13.03Zm-.797-.9.29-.03.155.054.123.066.007.103-.106.05-.16.006-.16-.006-.119-.027-.106-.076.076-.14Zm2.242 30.103-.14.126-.129.146-.126.266-.04.186-.086.07-.166-.024-.08-.096.123-.794.046-.242.11-.31.08-.09.123-.026h.163l.07.067.122.182.023.343-.093.196Zm-.451-4.575-1.02-1.003-.581-.73-.512-.831-.405-1.026-.17-.708.08-.405.23-.067.238.11.512 1.687 1.415 2.136.937 1.216-.724-.379Zm.617 13.301-.08.22-.268.743-.034.117-.04.073h-.109l-.086-.263-.007-.295.21-.96.451-.612.193-.023.053.173-.283.827Zm1.01 5.61-.04.007-.073-.036-.14-.206-.208-.342-.1-.223-.06-.312v-.293l.01-.172.043-.053h.093l.097.04.13.152.092.26.063.345.007.279.003.096.053.136.054.266-.024.057Zm-4.285 10.023-.086.169-.103.156-.17.11-.162.036h-.067l-.073-.06-.023-.122.03-.15.086-.176.236-.236.18-.11.129-.006.063.053.017.123-.057.213Zm1.591-2.565-.086.123-.11.063-.133.05-.1-.03-.059-.103.013-.106.097-.12.199-.12.143-.026.07.043.016.103-.05.123Zm3.548-3.534-.598.777-1.485 1.425-.17.11-.109-.007-.053-.083.023-.146 1.934-2.04.15-.163.225-.146.08.02.07.087-.067.166Zm1.478-1.143.1-.033.126.003.06.03.007.066-.054.08-.116.103-.103.116h-.07l-.08-.046-.016-.1.033-.096.113-.123Zm4.275-11.666-.023.192-.06.18-.036.163-.116.07-.11-.03-.06-.107-.036-.362-.243-.339-.023-.276.14-.176.142-.046.14.01.116.103.133.17.036.192v.256Zm7.215-6.624-.01.272-.435 1.552-.558.903-.956 1.01-.263.066-.14-.066-.023-.186.11-.25 1.269-1.913.332-.88.15-1.59-.133-1.45-.03-.272.15-.152.096.053.076.236.355 1.574v1.093h.01Z" fill="#000"/></g><defs><clipPath id="a"><path fill="#fff" transform="translate(.591)" d="M0 0h53.32v100H0z"/></clipPath></defs></svg>