<svg width="129" height="100" fill="none" xmlns="http://www.w3.org/2000/svg"><g clip-path="url(#a)"><path d="M66.169.665c11.35 8.19 27.933 13.167 40.767 13.462l1.344.102v16.993h20.614v36.993h-12.668l-1.241 1.267-3.097 2.75C97.966 84.595 78.606 99.438 65.426 100h-.115c-10.109-.333-27.165-10.403-46.782-27.588l-2.968-2.598-1.523-1.586H.935v-36.98h21.05V14.216l1.369-.064c16.673-.78 29.34-4.939 41.074-13.512L65.26 0l.909.665Z" fill="#fff" stroke="#000" stroke-width=".096"/><path d="M65.26 1.817c11.388 8.83 26.871 12.617 41.548 13.768v12.016c-3.109-.167-5.643 3.096-5.643 5.08h26.258v34.088h-24.338c.576 3.16 4.785 4.555 7.818 4.389-16.174 14.37-34.037 26.91-45.566 27.409-10.518-.346-28.292-11.81-45.886-27.23 7.293.115 7.946-4.555 7.946-4.555H2.368V32.706h26.18c-.127-2.482-2.418-4.811-5.143-5.08V15.611c15.61-.742 29.085-4.479 41.855-13.794Z" fill="#000"/><path d="M103.789 18.196v7.537c-2.866.6-5.771 4.49-5.771 6.973h-2.367c.23-4.709 2.866-7 5.771-8.56v-3.737c-12.527-.307-27.128-5.694-36.2-11.81-8.253 5.553-23.66 11.49-36.315 11.81v3.75a10.115 10.115 0 0 1 5.451 8.547h-2.482c-.537-3.736-2.674-5.72-5.285-7.178v-7.166c14.306-.806 30.403-6.347 38.657-12.732 7.908 6.462 24.478 11.504 38.541 12.566Z" fill="#F60"/><path d="m70.838 15.035-.025 3.186-4.031-1.983v16.468h-3.16V16.238l-3.942 1.958.026-3.135s4.555-2.29 5.553-3.02c1.05.755 5.58 2.994 5.58 2.994Zm-25.95 17.671c0-1.586.077-4.235-.307-4.67-.78 1.42-1.459 3.173-2.111 4.491-.666-1.33-1.357-2.904-2.201-3.992l-.09 4.171h-2.866V22.214c1.561-.269 2.022-.41 2.84-.538l2.253 4.876 2.367-5.81a29.09 29.09 0 0 1 2.956-.678v12.63l-2.84.012Zm14.51-13.154v10.685c-.025 2.482-.87 2.418-5.092 2.444-3.468.025-4.606.077-4.645-3.404v-7.294c.064-2.764.78-2.623 3.928-4.197 4.901-2.38 5.669-1.574 5.81 1.766Zm-2.75 1.293c0-1.702-3.609.37-3.84.614-.728.742-.55 5.515-.524 7.524 0 .448.23.972.794.972.908 0 2.239.026 2.994 0a.543.543 0 0 0 .588-.486c0-.051 0-.115-.012-.166v-8.458Zm24.517.294v8.803c0 2.752-.973 2.752-4.812 2.752-3.62 0-5.22 0-5.22-2.752v-10.94c0-3.98 3.224-2.278 5.668-1.305 2.316.921 4.364 1.305 4.364 3.442Zm-4.901-.563c-1.331-.397-2.227-.627-2.227.832v6.628c0 2.137 1.1 1.92 2.304 1.92.831 0 2.047.191 2.034-1.088V22.38c.013-1.548-1.267-1.561-2.111-1.804Zm16.212 2.009c1.382 1.523 1.062 5.476-.14 5.886 1.266.947.985 4.248.985 4.248h-2.713c0-3.288-.64-3.352-2.227-3.34-1.151-.025-.831 0-2.175 0v3.34h-2.738V20.243c3.787.806 8.266 1.523 9.008 2.342Zm-6.244 1.113v2.905c1.791.09 2.24.102 3.48.179.998 0 .768-1.958.486-2.316-.204-.307-2.456-.602-3.966-.768ZM5.566 35.893H124.39v27.562H5.566V35.893Zm27.972 30.876a8.114 8.114 0 0 1-3.07 6.41C42.072 83.57 57.721 92.413 65.425 92.925c7.818-.512 23.045-9.943 34.689-19.82-2.341-2.074-3.007-3.827-3.02-6.335H99.4c.204 3.007 3.391 5.438 4.721 6.001-17.082 14.114-27.895 21.011-38.848 22.457-11.389-1.588-22.419-8.408-38.963-22.33 2.303-1.023 4.632-3.416 4.619-6.142l2.61.013Z" fill="#F60"/><path d="M110.583 68.343a.895.895 0 0 1 0 1.28.895.895 0 0 1-1.279 0 .846.846 0 0 1-.256-.64c0-.5.384-.896.883-.909.256 0 .486.103.652.269Zm.103-.09a1.036 1.036 0 0 0-1.472 0c-.396.41-.409 1.075 0 1.472.41.41 1.075.41 1.472 0 .192-.192.307-.46.307-.742a.952.952 0 0 0-.307-.73Zm-.576.679c-.064.025-.128.025-.192.025h-.205v-.41h.179c.09 0 .167.014.243.04.09.063.116.191.039.293-.013.026-.039.039-.064.052Zm-.576.627h.179v-.448h.154c.077 0 .153.013.217.038a.293.293 0 0 1 .103.256v.154h.192v-.269a.306.306 0 0 0-.269-.294.628.628 0 0 0 .166-.052.273.273 0 0 0 .115-.23.293.293 0 0 0-.179-.294.636.636 0 0 0-.307-.039h-.409v1.152l.038.026ZM8.178 38.22h113.896v23.06H8.178V38.22Z" fill="#000"/><path d="M102.191 43.672v3.404h-2.597c0-2.137 0-3.532-1.024-3.468-.883 0-.73 1.024-.742 1.792 0 2.278 1.177 2.7 2.367 3.583 1.587 1.19 2.137 1.958 2.15 5.323 0 2.482-.832 4.389-3.532 4.389-3.173 0-3.608-1.433-3.608-6.846h2.623v2.636s-.09 1.548.985 1.548c.653 0 .896-.537.896-2.073 0-1.753-.512-2.303-1.1-2.738-1.165-.883-3.379-1.753-3.379-4.453 0-2.444-.384-6.142 3.609-6.104 2.367.026 3.365 1.331 3.352 3.007Zm-87.92 4.07h1.893v-6.629h2.598V58.53h-2.61v-7.256h-1.856v7.255H11.66V41.114h2.598c.013 0 .013 6.629.013 6.629Zm24.67 7.882h2.598v2.904H36.15V41.114h2.777l.013 14.51Zm8.573-11.76h-2.636v4.057h2.61v3.045h-2.61v4.632h2.598v2.93h-5.362V41.114h5.388l.012 2.751Zm3.02-2.75c.346 1.842.653 3.659 1.203 5.693.588-2.047.742-3.736 1.318-5.68h2.572c-.717 3.671-1.664 6.845-2.61 10.249v6.999h-2.624v-7.05c-.87-3.43-1.868-6.77-2.572-10.199l2.713-.013Zm27.729-.142c.32 3.379.665 6.936 1.023 10.314 0 0 .832-7.268 1.242-10.314h2.584l-2.418 17.416h-2.777l-2.303-17.416h2.649Zm7.984 17.416h-2.635V40.972h2.623l.013 17.416Zm28.279-17.416c.576 2.662 1.101 5.388 1.689 7.985l-.102-7.985h2.623v17.262h-3.071a646.628 646.628 0 0 0-1.791-9.558l.077 9.558h-2.764V40.972h3.339Zm-4.35 3.302v11.17c0 1.83-1.766 3.404-3.583 3.379-1.51-.026-3.391-.832-3.391-3.417V44.21c0-3.353 2.137-3.66 3.621-3.672 1.369-.013 3.353.524 3.353 3.736Zm-4.504.051V54.69c0 1.497 1.829 1.906 1.829.256V44.338c.026-1.177-1.817-1.216-1.829-.013Zm-40-3.212c1.356 0 2.29.96 2.303 2.995 0 3.698 0 8.176.026 11.324.038 1.663-1.28 3.058-2.944 3.096h-3.915V41.114h4.53Zm-1.907 2.636V55.6h.934a.733.733 0 0 0 .64-.82v-.013c0-2.136-.026-9.532-.026-10.198 0-1.177-1.548-.819-1.548-.819Zm27.754-2.777c1.318 0 2.828.768 2.828 3.072v11.503c0 1.868-1.126 2.84-3.352 2.84h-3.609V40.973h4.133Zm-.499 2.764h-.857v11.862c1.535 0 1.715-.064 1.728-.831v-10.07a.98.98 0 0 0-.87-.96Zm-58.707-2.623c2.533 0 2.828 2.982 2.828 4.812 0 .831.064 2.392-1.305 3.762.857.767 1.305 1.382 1.317 3.275v5.592H33.44c-.307 0-1.062-.256-1.05-.768V53.04c0-1.075-.64-1.19-1.24-1.19h-.461v6.68h-2.815l.038-17.416h4.402Zm-1.638 2.764v4.62h1.023c.27 0 .576-.205.564-.896.025-.794 0-1.996 0-2.751.012-.96-.564-.96-1.587-.973Zm45.681 14.498H73.9c-.294-1.408-.409-2.777-.665-4.21H71.38l-.512 4.21h-2.483c.512-5.758 1.498-11.67 2.073-17.415h3.737l2.162 17.415Zm-4.094-13.679-.576 6.219h1.177a53.82 53.82 0 0 0-.601-6.219Zm-46.987-3.583c.678 5.63 1.28 11.286 1.907 17.416h-2.419c-.205-1.549-.41-3.174-.537-4.172h-1.792l-.486 4.172h-2.482c.601-5.733 1.228-11.466 1.778-17.416h4.031Zm-2.111 3.532-.307 6.283h1.01c-.192-2.201-.332-4.018-.703-6.283Zm32.015 4.159h4.786v2.162h-4.786v-2.162Z" fill="#fff"/><path d="M44.94 66.782h3.493l1.74 4.785h.218l2.124-4.785h3.48l-4.414 8.599v9.213l-3.199-1.856V75.42l-3.442-8.637Zm-7.268 9.149 7.511 4.952v-3.544l-.102-.461-4.492-2.61-.217-.18a.59.59 0 0 1-.371-.486V70.11a.577.577 0 0 1 .576-.55h3.365v-2.777h-4.824a2.33 2.33 0 0 0-2.38 2.278v5.054c0 .73.345 1.395.934 1.817ZM64.594 86.91l-3.058-1.139-1.151-.41a1.04 1.04 0 0 1-.679-.946V70.582a1.033 1.033 0 0 1 1.063-1.01h3.825v-2.777h-5.809a2.33 2.33 0 0 0-2.38 2.277v16.353c0 .73.358 1.408.96 1.83.499.41 1.83 1.1 7.191 2.841v-3.16h.038v-.026Zm4.85-20.128h-3.276v23.135a30.176 30.176 0 0 0 7.665-2.188v-3.02l-4.376 1.382-.013-19.31Zm12.911 2.776v-2.776h-5.387a2.33 2.33 0 0 0-2.38 2.278v14.88c.064 3.148 2.88 1.779 3.046 1.664.703-.435 4.772-2.943 4.772-2.943v-3.34l-3.467 1.945c-1.344.768-1.088-.973-1.088-.973v-4.069h3.442V73.55h-3.442v-2.56l-.013-.447a1.016 1.016 0 0 1 1.037-.998h3.467v.012h.013Zm5.413 0a.5.5 0 0 0-.512.487v.665c.013.269.23.486.512.486h3.519a1.771 1.771 0 0 1 1.842 1.69v2.444c-.217 1.42-9.085 6.308-9.085 6.308l-.025-3.314 3.736-2.112c3.8-2.15.921-2.073.921-2.073h-2.904a1.67 1.67 0 0 1-1.74-1.625v-4.107c0-.896.857-1.638 1.919-1.638h6.948v2.777l-5.131.012Z" fill="#F60"/></g><defs><clipPath id="a"><path fill="#fff" transform="translate(.911)" d="M0 0h128.008v100H0z"/></clipPath></defs></svg>