<svg width="119" height="100" fill="none" xmlns="http://www.w3.org/2000/svg"><g clip-path="url(#a)"><path fill-rule="evenodd" clip-rule="evenodd" d="m55.37 70.257-28.784 3.095 5.682 5.544h40.75L57.91 69.978l-2.54.279Zm0-22.962 39.64-10.581s5.775-.416 11.504-13.398L55.369 40.087 15.59 53.07s-3.418 1.109-4.758 2.033c0 0-.924.555-.924 1.848 0 0 .092.97.785 1.664l1.71 1.71 21.714-5.637s-1.34-1.756 1.34-2.126l19.913-5.266Zm0 20.697c.045.462.415.88.415.88l-.416.045-30.17 3.419-5.729-5.36 35.899-6.422 30.677-5.452c-5.036 9.888-15.2 9.888-15.2 9.888l-12.66 1.617c-2.124.046-2.724.6-2.817 1.156v.23Zm0-17.094 41.812-10.58c-4.944 11.181-14.877 11.55-14.877 11.55L55.369 57.32l-8.824 1.801c-4.251.093-2.403 2.265-2.403 2.265l-25.734 4.39-4.805-4.251L55.37 50.898Zm0-22.592 58.444-23.887s-1.987 5.868-3.235 8.871c0 0-1.524 4.76-7.622 6.653L55.369 36.761 14.111 51.268s-5.313 1.895-6.19 4.113c0 0-1.248 2.54 2.125 5.405l19.912 18.11h-7.807L6.119 63.189s-3.604-2.957-3.881-7.161v-.878c.046-.277.046-.554.139-.877 0 0 .693-4.621 7.622-7.439l45.37-18.527ZM12.863 81.853H2.515v2.542h2.356v7.715H2.515v2.634h10.349V92.11h-2.541v-2.448h7.623v2.448h-2.495v2.634h10.211V92.11h-2.448v-7.715h2.448v-2.542H15.405v2.542h2.541v2.54h-7.623v-2.54h2.54v-2.542Zm90.878 5.96h1.987l-1.987-3.003-.231-.276-1.801 3.28h2.032Zm0-5.96h4.112l6.191 10.257h2.541v2.634H105.45V92.11h2.495l-1.063-1.524h-6.744l-.832 1.524h2.448v2.634h-8.593V92.11h2.634l4.25-7.715h-2.864v-2.542h6.56Zm-19.82 10.118c2.448-.277 3.88-1.2 3.88-3.603 0-2.772-1.616-3.65-3.88-3.882-.416-.046-.832-.046-1.293-.046H80.04v7.624h2.08c.646 0 1.246-.046 1.8-.093Zm0-10.118h1.663c4.25 0 7.44 1.987 7.44 6.515 0 5.22-3.004 6.283-9.103 6.376H72.325V92.11h2.495v-7.715h-2.495v-2.542h11.597ZM36.519 92.572c2.403-.046 4.297-1.94 4.297-4.25 0-2.45-1.94-4.297-4.297-4.297h-.046c-2.357 0-4.25 1.848-4.25 4.25 0 2.264 1.801 4.297 4.204 4.297h.092Zm0-11.366h.139c6.052 0 10.025 2.265 10.025 6.931 0 4.296-3.65 7.16-10.164 7.16h-.184c-6.33 0-10.119-2.448-10.119-7.068 0-4.435 3.742-7.023 10.303-7.023Zm21.206.647h-10.21v2.542h2.449v7.715h-2.449v2.634h8.132V92.11h-2.542v-6.606l7.162 9.239h7.9V84.394h2.587v-2.541h-8.41v2.541h2.635v6.791l-7.254-9.332Z" fill="#000"/></g><defs><clipPath id="a"><path fill="#fff" transform="translate(.506)" d="M0 0h117.813v100H0z"/></clipPath></defs></svg>