<svg width="420" height="100" fill="none" xmlns="http://www.w3.org/2000/svg"><g clip-path="url(#a)"><path fill-rule="evenodd" clip-rule="evenodd" d="M.88 54.441v16.896h38.588V52.04h7.526c4.803 0 12.808.801 20.096 2.402 8.487 1.842 16.013 4.886 16.013 9.208 0 3.602-5.606 7.688-5.763 7.688h55.16s-1.361-6.087-4.244-10.087c-1.841-2.642-4.164-4.965-7.685-6.807-3.043-1.6-6.964-2.88-12.33-3.76v-.88c2.483 0 9.128-2.402 14.891-6.245 7.767-5.203 9.208-14.89 9.208-14.89H77.737s4.565 3.764 4.565 7.204c0 7.205-25.778 12.651-35.146 12.651H39.47V28.668H.88V54.44Zm141.224 0V28.903h13.85v13.771l12.25-13.77h16.253l-15.452 16.012 6.165 9.525 10.969 16.896h-16.651l-10.249-16.896-3.283 3.443v13.451h-13.849l-.003-16.894Zm47.476 0c6.563-2.637 16.172-1.117 16.172-4.96 0-2.242-2.721-2.483-4.003-2.483-1.761 0-4.002.322-4.322 2.964h-11.769c0-6.566 4.643-10.328 16.813-10.328 14.65 0 15.529 5.363 15.529 12.73v14.49c0 1.763.083 2.642 1.684 3.921v.562h-12.732l-.559-3.285c-3.443 3.285-7.045 4.164-11.61 4.164-5.844 0-11.048-2.88-11.048-9.286 0-4.725 2.564-7.126 5.845-8.489Zm31.705 0-4.643-13.928h11.931l3.438 13.928 1.284 5.127 1.358-5.127 3.524-13.928h10.409l3.442 13.928 1.28 5.127 1.279-5.127 3.607-13.928h11.605l-4.481 13.928-5.365 16.896h-11.932l-4.481-16.896-.322-1.2-.321 1.2-4.082 16.896h-12.01l-5.52-16.896Zm50.756 0c6.488-2.637 16.091-1.117 16.091-4.96 0-2.242-2.642-2.483-4.002-2.483-1.68 0-4.003.322-4.243 2.964h-11.848c0-6.566 4.722-10.328 16.891-10.328 14.569 0 15.453 5.363 15.453 12.73v14.49c0 1.763.078 2.642 1.679 3.921v.562h-12.648l-.643-3.285c-3.443 3.285-6.967 4.164-11.61 4.164-5.766 0-10.969-2.88-10.969-9.286.005-4.725 2.485-7.126 5.849-8.489Zm31.782 0c-.879-1.2-1.358-2.723-1.358-4.641 0-7.926 8.167-10.168 14.647-10.168 6.729 0 14.574 1.52 15.296 9.684h-11.131c-.157-1.038-.558-1.68-1.201-2.24-.643-.559-1.522-.8-2.48-.8-2.085 0-3.443.72-3.443 2.242 0 3.043 9.688 2.483 15.37 5.923 2.401 1.441 4.086 3.607 4.086 7.045 0 6.406-5.287 10.73-16.575 10.73-7.045 0-14.891-2.163-15.534-10.487h11.689c0 1.28.483 2.242 1.284 2.88.8.563 1.837.884 3.042.884 1.837 0 3.838-.562 3.838-2.723.005-4.165-13.287-2.085-17.53-8.329Zm36.109 0c6.487-2.637 16.091-1.117 16.091-4.96 0-2.242-2.723-2.483-4.003-2.483-1.679 0-4.002.322-4.322 2.964h-11.767c0-6.566 4.644-10.328 16.892-10.328 14.569 0 15.453 5.363 15.453 12.73v14.49c0 1.763.078 2.642 1.679 3.921v.562h-12.732l-.557-3.285c-3.443 3.285-6.966 4.164-11.61 4.164-5.844 0-11.047-2.88-11.047-9.286 0-4.725 2.559-7.126 5.923-8.489Zm30.745 0V28.903h12.248v20.978l7.846-9.368h14.333L393.656 52.44l1.358 2.001 11.61 16.896h-14.733l-6.645-10.968-2.323 2.322v8.646h-12.248l.002-16.896Zm36.666-13.928v30.824h12.248V40.513h-12.248Zm0-12.73v8.728h12.248v-8.727h-12.248Zm-51.32 29.943c-4.003 1.923-9.287.958-9.287 4.965 0 1.518 1.441 2.56 3.843 2.56 4.324 0 5.765-3.36 5.444-7.525Zm-67.891 0c-4.002 1.923-9.287.958-9.287 4.965 0 1.518 1.442 2.56 3.922 2.56 4.245 0 5.687-3.36 5.365-7.525Zm-82.38 0c-4.003 1.923-9.287.958-9.287 4.965 0 1.518 1.441 2.56 3.843 2.56 4.324 0 5.765-3.36 5.444-7.525Z" fill="#CC2229"/></g><defs><clipPath id="a"><path fill="#fff" transform="translate(.88)" d="M0 0h418.712v100H0z"/></clipPath></defs></svg>