<svg width="84" height="100" fill="none" xmlns="http://www.w3.org/2000/svg"><g clip-path="url(#a)"><path d="M30.307 21.155c.77-2.516 2.721-1.232 2.721-1.232s5.056 3.85 18.924 12.675c13.868 8.824 31.157-3.422 31.157-3.422L42.046 0C24.036 19.09.984 25.934.984 25.934l.065.026 52.488 36.805c-.77 2.516-2.721 1.232-2.721 1.232s-5.056-3.85-18.924-12.675C18.024 42.497.735 54.744.735 54.744L41.798 83.92C59.808 64.829 82.86 57.986 82.86 57.986l-.066-.026-52.487-36.805Z" fill="#FF0016"/><path d="m.33 95.504 6.316.033c.109.594-.062.592.27.902.52.484 1.328.595 2.005.475.555-.097 1.415-.267 1.457-.956.044-.747-.473-1.008-1.123-1.093-.898-.117-1.804-.148-2.699-.291-2.307-.38-3.533-.549-4.515-1.175-.991-.627-1.077-1.992-1.077-2.963 0-.639.254-1.241.76-1.81.507-.567 1.27-1.013 2.287-1.339 1.018-.325 2.413-.486 4.185-.486 2.175 0 3.834.295 4.974.884 1.143.589 1.822 1.902 2.038 3.186h-5.37c.04-.077-.106-.42-.13-.506-.205-.745-.924-.962-1.613-1.115-.565-.125-1.21-.135-1.719.176-.31.19-.55.39-.55.663 0 .197.128.375.384.533.249.163.837.316 1.766.457 2.299.363 3.945.728 4.94 1.097.995.372 1.718.83 2.171 1.376.453.548.68 1.16.68 1.838 0 .796-.303 1.53-.907 2.201-.603.671-1.446 1.182-2.53 1.53-1.083.347-2.448.52-4.096.52-2.894 0-4.899-.407-6.012-1.22-1.115-.81-1.746-1.663-1.893-2.918Zm25.63-8.47h4.669v8.779c0 1.8-1.12 3.076-3.358 3.83-1.035.344-2.277.357-3.683.357-1.26 0-2.391.023-3.437-.25-2.464-.984-3.695-2.297-3.695-3.937v-8.778h4.701v7.517c0 1.369.182 2.387 2.432 2.387 2.295 0 2.34-1.063 2.34-2.431l.031-7.473Zm30.526 0h4.67v8.779c0 1.8-1.12 3.076-3.358 3.83-1.035.344-2.277.357-3.683.357-1.26 0-2.392.023-3.437-.25-2.465-.984-3.696-2.297-3.696-3.937v-8.778h4.702v7.517c0 1.369.182 2.387 2.431 2.387 2.295 0 2.341-1.063 2.341-2.431l.03-7.473Zm-24.896.092h14.46v2.698l-7.064 6.349h7.065v3.534H31.59v-3.038l6.901-6.259h-6.889l-.012-3.284Zm30.722 12.559v-12.58h4.635l-.001 4.656 5-4.657h5.8l-6.657 6.097 6.935 6.484h-6.26l-4.772-4.502.045 4.502h-4.725Zm21-12.582v12.582h-4.626v-12.58h4.626v-.002Z" fill="#015CD0"/></g><defs><clipPath id="a"><path fill="#fff" transform="translate(.32)" d="M0 0h83v100H0z"/></clipPath></defs></svg>