<svg width="381" height="100" fill="none" xmlns="http://www.w3.org/2000/svg"><g clip-path="url(#a)" fill="#2E2897"><path d="M37.556 2.475c-2.007.228-4.242.593-5.017.867-.73.273-1.961.638-2.737.82-6.02 1.551-14.412 7.572-19.247 13.866C8.32 20.9 4.535 28.062 4.49 29.385c0 .456-.274 1.46-.638 2.28-1.232 2.828-1.87 10.4-1.232 14.823.593 4.424 1.596 8.301 2.6 10.308.365.73.638 1.505.638 1.779 0 1.094 4.79 8.118 7.39 10.9 5.427 5.702 12.633 10.08 18.836 11.357 1.003.228 2.645.593 3.649.867 2.782.73 11.539.638 14.184-.183 1.232-.365 2.6-.684 3.056-.684.775 0 1.733-.365 5.564-2.052.776-.32 1.688-.73 2.053-.867s1.323-.684 2.052-1.186c.776-.501 1.87-1.14 2.509-1.413 1.779-.776 10.216-9.533 11.357-11.813a69.019 69.019 0 0 1 2.143-4.06c.593-1.094 1.095-2.28 1.095-2.554 0-.32.32-1.186.684-1.87.365-.73.684-1.733.684-2.235 0-.501.32-1.733.684-2.736.913-2.6.913-12.178-.045-16.1-2.098-8.575-5.793-15.006-11.996-20.98-2.736-2.646-9.76-7.39-10.9-7.39-.274 0-1.05-.273-1.78-.638C54.387 3.57 44.58 1.7 41.844 2.018c-.365 0-2.28.229-4.287.457Zm15.188 2.372c.775.41 1.733.73 2.098.73.912 0 6.34 2.645 8.94 4.332 3.192 2.098 8.529 7.435 10.672 10.719 7.845 11.904 8.849 25.176 2.874 38.22-.821 1.825-1.004 1.962-2.19 1.688-.82-.183-1.322-.091-1.322.182 0 .274.273.502.638.502 1.46 0 1.14 1.05-1.231 4.196-5.473 7.252-12.543 11.95-21.528 14.367-3.512.958-15.006 1.05-18.016.183-8.073-2.372-13.865-5.747-18.7-10.855-3.648-3.877-4.47-4.88-5.154-6.431-.273-.684-1.003-1.87-1.55-2.646-.593-.775-1.05-1.687-1.05-1.96 0-.32-.273-1.141-.638-1.78-2.007-3.922-2.736-9.03-2.417-16.784.273-5.884 1.003-8.848 3.557-14.093 2.326-4.744 4.06-7.161 7.936-10.947 5.474-5.382 12.634-9.122 19.613-10.262 3.876-.638 15.872-.182 17.468.639Z"/><path d="M42.801 6.215c0 .365.228.82.456.958.274.137.457-.046.457-.41 0-.366-.183-.822-.457-.959-.228-.136-.456.046-.456.41Zm-2.28 3.284c0 .456-2.6 1.186-6.112 1.779-.958.182-2.098.456-2.508.638-7.663 3.74-8.119 4.014-11.904 7.8-8.894 8.893-11.768 21.253-7.708 32.747.501 1.368.866 2.965.866 3.603 0 1.05.228.912 2.417-1.414 1.962-2.098 2.691-2.554 3.923-2.554 1.642 0 4.15-2.052 4.15-3.42 0-1.46 1.597-3.467 3.786-4.835 2.28-1.414 2.645-2.098 1.368-2.554-.456-.183-2.782-1.505-5.2-2.965-2.417-1.46-4.606-2.645-4.788-2.645-.228-.046-.958-.502-1.642-1.05-1.14-.911-1.186-1.14-.684-2.143.82-1.55 1.778-1.368 5.974 1.14 1.916 1.14 3.604 2.053 3.695 2.053.091 0 1.733.958 3.649 2.098 3.785 2.28 5.062 2.417 6.111.547.593-1.003.593-1.368.091-2.372-.364-.638-1.185-1.368-1.824-1.642-.639-.228-1.915-.866-2.782-1.413-.867-.548-3.284-1.962-5.29-3.193-2.053-1.232-3.969-2.235-4.243-2.235-.912 0-1.55-2.052-1.003-3.147.32-.502.684-.958.867-.958.182 0 2.463 1.232 5.017 2.737 2.6 1.505 4.834 2.736 4.925 2.736.092 0 1.004.502 2.053 1.14 1.003.64 2.007 1.05 2.235.913.273-.183.456-1.186.456-2.326 0-2.19 1.14-4.926 2.69-6.294 1.096-1.004 1.278-3.512.32-5.246-.502-.866-.502-1.414-.045-2.736 1.277-3.786 1.55-4.79 1.368-5.017-.137-.091-.228 0-.228.228Zm4.105 1.231c0 .593.228 1.277.501 1.551.456.456.593 3.42.32 7.708-.046 1.003.364 1.961 1.46 3.33 1.322 1.642 1.596 2.326 1.732 4.834.091 1.642.365 2.965.593 2.965.365 0 2.144-1.004 4.744-2.6.501-.32 1.55-.867 2.28-1.277 2.053-1.003 5.154-2.782 5.793-3.33.41-.319.912-.228 1.687.457.912.684 1.05 1.049.639 1.642-.41.684-8.392 5.792-10.855 6.978-.502.228-1.506.82-2.28 1.322-.73.502-1.643 1.05-1.916 1.186-1.597.776 0 4.288 1.915 4.288.639 0 5.29-2.509 8.438-4.561.365-.274 1.003-.593 1.368-.776a90.632 90.632 0 0 0 3.284-1.824c2.144-1.277 2.782-1.46 3.558-1.05.501.275.912.913.912 1.415 0 .912-1.597 2.645-2.463 2.69-.183 0-2.372 1.187-4.79 2.646-2.416 1.46-4.742 2.782-5.153 2.965-1.186.41-1.003 1.094.456 2.007 2.28 1.413 3.33 2.6 4.287 4.834 1.14 2.554 2.737 3.968 4.561 3.968 1.004 0 1.78.502 3.193 2.053 1.049 1.14 2.007 2.052 2.144 2.052.456 0 1.368-2.554 2.371-6.385.958-3.786 1.14-10.901.365-13.911-.228-1.004-.638-2.554-.866-3.42-.456-1.825-2.418-5.748-4.196-8.439-4.379-6.704-13-12.223-20.525-13.226-1.186-.137-2.28-.457-2.417-.73-.502-.776-1.14-.41-1.14.638Zm-3.74 15.416c-.684.365-.821 1.095-.821 4.105 0 3.42.045 3.649 1.14 4.15.82.366 1.46.366 2.509-.09 1.368-.548 1.368-.593 1.368-4.014 0-2.691-.183-3.512-.776-4.014-.957-.73-2.326-.775-3.42-.137Zm0 14.14c-1.825 1.048-.456 4.515 1.733 4.515 1.414 0 2.873-1.597 2.6-2.828-.456-1.961-2.509-2.782-4.333-1.688Zm-10.171 5.837c-2.782 1.733-3.238 2.463-2.782 4.425.547 2.189 2.919 1.824 7.023-1.095 1.734-1.277 1.916-2.828.456-4.196-1.276-1.186-1.459-1.14-4.697.866Zm19.293-1.049c-1.916 1.004-1.78 3.284.228 4.47 4.88 2.92 5.61 3.01 6.704.958.502-.958.502-1.323-.045-2.326-.32-.684-.913-1.323-1.323-1.46-.365-.136-1.46-.73-2.372-1.322-.958-.593-1.779-1.05-1.824-1.05-.091.046-.684.365-1.368.73Zm-8.803 5.017c-.867.639-.912 1.369-1.14 10.126l-.228 9.44h-3.193l-.137-7.89c-.091-6.522-.228-7.936-.82-8.164-.366-.136-1.004.046-1.46.41-1.688 1.415-3.33 1.78-6.66 1.46L24.33 55.2l-1.596 1.778c-1.323 1.46-2.052 1.916-3.785 2.144-2.555.41-2.92.867-1.916 2.417 2.828 4.333 10.718 9.806 15.963 11.13 1.004.273 2.646.683 3.649.911 2.326.639 12.269.228 14.367-.501 4.515-1.642 6.431-2.554 9.213-4.424 3.102-2.053 8.575-7.526 8.575-8.62 0-.366-.958-.685-2.509-.867-2.235-.32-2.69-.548-4.105-2.235-1.46-1.779-1.642-1.87-3.74-1.688-4.15.32-5.017.228-6.932-.775-1.05-.547-2.098-1.003-2.326-1.003-.274 0-.456 2.964-.456 7.48 0 4.104-.137 7.799-.274 8.21-.183.41-.821.729-1.55.729-1.734 0-1.825-.502-1.825-10.49v-8.484l-1.323-.775c-1.596-.912-1.414-.912-2.554-.046ZM10.236 60.126c-.365.957-.137 1.231 1.003 1.003.821-.137.821-.182.092-.958-.73-.775-.821-.775-1.095-.045ZM89.642 9.043c-.136.182 0 1.049.32 1.961.912 2.6 1.505 4.333 4.15 12.36 1.368 4.15 2.691 7.89 2.965 8.301.228.456.456 1.186.456 1.596 0 .456.32 1.414.684 2.144.365.684.684 1.642.684 2.053 0 .41.32 1.322.684 2.052.365.684.684 1.642.684 2.052 0 .41.32 1.323.685 2.053.364.684.684 1.596.684 1.961s.273 1.323.593 2.098c1.87 4.379 1.915 4.652 2.143 16.283l.228 11.63 7.207.137 7.16.137V53.968l2.326-6.978c1.278-3.831 2.6-7.617 2.965-8.438.365-.775.639-1.733.639-2.144 0-.41.228-1.094.456-1.55.273-.41 1.87-5.108 3.648-10.354 4.288-13.044 4.197-12.68 4.607-13.546 1.049-2.098.821-2.189-6.659-2.189h-7.069l-.228 1.232c-.137.73-.548 2.189-.867 3.329a139.967 139.967 0 0 0-1.414 4.79 426.331 426.331 0 0 1-1.414 4.56 81.713 81.713 0 0 0-1.277 4.561 137.727 137.727 0 0 1-1.414 4.789c-.365 1.14-.684 2.508-.684 3.056 0 2.965-2.417.228-2.965-3.33-.136-1.094-.456-2.098-.729-2.235-.228-.182-.411-.73-.411-1.277 0-.547-.274-1.915-.638-3.055-.685-2.099-1.506-5.063-2.783-9.806-.41-1.506-1.094-3.604-1.459-4.698l-.684-1.916h-6.477c-3.603 0-6.613.137-6.796.274Zm56.009.273c-.41 1.369-1.277 5.656-1.596 8.028-.73 4.834-1.733 10.81-2.053 11.539-.137.41-.456 2.144-.684 3.877-.502 4.196-1.687 11.174-2.007 12.04-.137.366-.456 2.236-.729 4.106a724.82 724.82 0 0 1-1.095 7.069c-.365 2.007-.867 5.063-1.186 6.841-.274 1.734-.684 4.105-.958 5.246-.273 1.14-.593 3.33-.73 4.88l-.273 2.873h6.157c5.245 0 6.249-.091 6.477-.73.137-.41.501-2.69.775-5.108.684-6.43 1.231-9.35 1.916-9.76.775-.502 9.076-.456 9.897.091.638.41.867 1.505 2.235 11.54.228 1.732.593 3.329.775 3.511.547.547 12.041.639 12.543.137.273-.274.137-1.916-.319-4.287-2.418-12.543-2.874-15.325-3.421-19.11-.228-1.643-.593-3.558-.867-4.288-.228-.73-.456-1.916-.456-2.691 0-.73-.274-2.691-.638-4.379-.639-2.919-.913-4.424-2.372-12.816-.365-2.143-1.004-5.519-1.323-7.526-.365-2.006-.912-5.199-1.186-7.069-.273-1.87-.729-3.694-.957-4.014-.365-.41-2.737-.547-9.122-.547-6.477 0-8.666.137-8.803.547Zm9.943 21.665c1.459 7.206 2.645 16.191 2.189 16.693-.228.182-1.779.32-3.512.228l-3.147-.137.091-1.368c.046-.775.411-3.512.821-6.157.411-2.646 1.004-6.66 1.369-8.894.684-4.835.593-4.424 1.049-4.15.228.136.729 1.824 1.14 3.785Zm28.688 11.174.137 33.432h11.859l.228-18.654.228-18.654 1.049 2.462c.547 1.369 1.003 3.01 1.003 3.604 0 1.14.867 6.294 2.053 12.542.365 1.733.957 5.017 1.322 7.298 1.46 8.848 1.733 10.262 2.281 10.9.73.958 7.161 1.14 7.617.229.638-1.323 1.322-3.923 1.733-6.568.41-2.737.866-5.337 2.098-11.403.365-1.778.958-5.154 1.414-7.525.41-2.372 1.003-5.337 1.368-6.568.365-1.186.639-2.645.639-3.193 0-.912.775-2.554 1.003-2.098.046.137.228 8.62.365 18.928l.228 18.7 5.838.137 5.792.137V8.769h-18.198l-.274 1.688c-.729 4.697-1.733 10.17-2.143 12.177-.456 2.19-.776 4.014-1.779 10.764-.274 1.87-.593 3.923-.73 4.561l-.228 1.14-.866-1.094c-.502-.593-.958-1.505-1.049-2.053-.092-.501-.411-2.508-.73-4.378s-.867-5.063-1.232-7.07c-.364-2.006-.821-4.697-1.049-5.975-.182-1.276-.593-3.511-.912-5.017-.273-1.459-.638-3.147-.73-3.74-.182-1.003-.228-1.003-9.304-1.003h-9.122l.091 33.386Zm68.096-31.698c-.137.957-.548 3.101-.913 4.743-.365 1.688-.684 3.512-.684 4.06 0 1.048-1.094 7.525-1.915 11.128-.274 1.186-.639 3.375-.821 4.79-.639 4.378-1.369 8.847-1.916 11.173-.274 1.186-.639 3.376-.821 4.79-.639 4.378-1.368 8.848-1.916 11.174-.273 1.186-.638 3.375-.821 4.789-.182 1.414-.592 3.74-.912 5.245-.319 1.779-.365 2.828-.091 3.101.684.684 11.585.456 12.269-.228.274-.319.73-2.6 1.003-5.108.685-6.203 1.141-9.03 1.551-9.715.411-.593 9.259-.82 10.171-.182.502.365 1.779 6.75 2.281 11.493.136 1.642.501 3.239.729 3.558.365.365 2.235.547 6.568.547h6.112V74.31a31.128 31.128 0 0 0-.456-3.512c-.502-2.19-1.597-8.574-2.326-12.953-.228-1.505-.593-3.466-.821-4.333-.228-.912-.548-2.782-.73-4.15-.137-1.369-.456-3.239-.684-4.105-.183-.867-.684-3.558-1.095-5.93-.41-2.371-.958-5.473-1.231-6.84-.274-1.37-.639-3.832-.913-5.474-.228-1.642-.592-3.558-.866-4.287-.228-.73-.456-1.962-.456-2.691 0-.776-.274-2.646-.639-4.15a72.05 72.05 0 0 1-.958-4.972l-.273-2.144h-18.153l-.273 1.688Zm10.125 18.882c.319.593.593 2.007.593 3.147.045 1.14.228 2.965.501 4.105.776 3.694 1.597 10.49 1.323 10.992-.182.273-1.642.41-3.466.32l-3.147-.138.137-1.505c.045-.866.273-3.01.547-4.789.228-1.824.638-5.154.912-7.389.73-5.746.867-6.248 1.505-6.02.319.091.821.639 1.095 1.277Zm28.506 12.816.137 33.432 6.978.137c5.336.091 6.933 0 7.024-.456.182-1.642.228-3.375.319-14.869l.046-12.406h5.427c5.428 0 5.428 0 5.701 1.14.183.64.274 6.842.274 13.73-.045 6.932 0 12.679.091 12.77.137.091 10.491.273 12.589.228.41-.046.547-7.07.547-33.569V8.77h-13.227v12.27c0 6.977-.182 12.815-.456 13.5l-.456 1.185-5.108-.136-5.154-.137-.228-13.227c-.137-7.298-.32-13.272-.365-13.364-.046-.045-3.284-.09-7.161-.09h-7.069l.091 33.385ZM350.21 9.91c-.228.639-.638 2.6-.912 4.425-.228 1.824-.639 4.47-.912 5.838-.228 1.368-.776 4.47-1.14 6.84-.411 2.373-.913 5.246-1.186 6.386a86.648 86.648 0 0 0-.867 5.428c-.274 1.824-.593 3.512-.73 3.74-.136.228-.41 1.779-.638 3.512-.502 4.059-1.733 11.356-2.053 12.36-.136.456-.456 2.144-.638 3.74-.228 1.596-.776 4.88-1.186 7.252-.41 2.372-.821 4.743-.821 5.245-.091.867.274.912 5.975 1.14 3.831.137 6.248.046 6.476-.228.183-.273.457-1.596.639-2.964 1.323-11.13 1.459-11.905 2.098-12.315.365-.228 2.691-.456 5.108-.456 4.196 0 4.47.046 5.154 1.095.411.592.912 2.782 1.14 4.88.274 2.098.73 5.154 1.049 6.796l.639 2.964h6.34c6.066 0 6.339-.045 6.248-.912 0-.502-.41-2.873-.821-5.245-.41-2.372-.958-5.565-1.186-7.024-.228-1.505-.593-3.466-.821-4.333-.228-.912-.547-2.782-.729-4.15-.137-1.369-.456-3.239-.684-4.105-.183-.867-.73-3.649-1.141-6.158-.41-2.508-1.049-5.883-1.414-7.525-.364-1.642-.638-3.466-.638-4.06 0-.592-.274-2.417-.639-4.104-.365-1.642-.912-4.333-1.186-5.975-.273-1.642-.82-4.698-1.185-6.842-.411-2.143-.821-4.424-.958-5.153l-.228-1.232h-17.697l-.456 1.14Zm10.354 21.346c.273 2.052.775 5.382 1.049 7.388.273 2.007.729 4.379.957 5.245.274.913.411 2.144.32 2.737-.137 1.095-.32 1.14-3.467 1.277l-3.375.137.183-2.873c.319-4.379 2.371-16.83 2.964-17.834.456-.775.821.32 1.369 3.923ZM7.499 87.947c-.41 1.095-.319 8.53.137 9.213.228.365 1.004.548 1.916.457 1.414-.137 1.55-.274 1.779-1.962l.228-1.824 3.877-.228c3.055-.182 3.876-.365 3.876-.912s-.82-.73-3.877-.912c-3.603-.228-3.876-.32-4.013-1.232-.228-1.596 1.55-2.007 8.666-1.915 3.512 0 6.476-.092 6.659-.274.82-.821-1.87-1.14-9.989-1.14-7.753 0-9.03.09-9.259.73Zm29.738-.365c-1.004.457-9.943 9.168-9.943 9.715 0 .867 2.691.365 4.014-.73 1.322-1.094 1.596-1.14 7.617-1.14 6.02 0 6.294.046 7.616 1.14 1.46 1.232 4.47 1.597 4.47.548 0-.32-2.098-2.6-4.652-5.063-4.105-4.013-4.835-4.515-6.477-4.652-1.049-.091-2.189 0-2.645.182Zm3.922 3.239c.958 1.003 1.597 2.007 1.46 2.28-.183.274-1.779.502-3.74.502-2.691 0-3.375-.137-3.375-.684 0-.593 3.056-3.831 3.649-3.877.136 0 1.049.821 2.006 1.779Zm19.886-3.284c-2.235.274-2.736 1.14-2.736 4.926 0 5.062-.092 4.971 8.711 5.154 4.105.09 8.529.045 9.852-.137 2.052-.228 2.463-.456 2.69-1.414.365-1.368.365-1.368-1.778-1.733-1.55-.274-1.779-.228-2.007.638-.228.912-.502.912-6.705.821l-6.43-.137-.137-3.055c-.092-2.555 0-3.102.684-3.467.456-.273 3.375-.41 6.476-.319 4.698.091 5.702.228 6.066.867.548.957 3.467 1.003 3.877 0 .137-.365-.091-1.05-.501-1.46-.639-.639-1.962-.775-8.62-.82-4.288-.046-8.575 0-9.442.136Zm24.63.547c0 .821.364.867 4.15.867 2.28 0 4.287.137 4.515.365.228.228.456 2.143.547 4.287l.137 3.877 1.551.137c.912.09 1.688-.092 1.916-.457.228-.319.41-2.28.41-4.378 0-2.645.183-3.74.593-3.786.274-.045 1.733 0 3.147.046 1.414.046 3.238-.046 4.014-.228 1.14-.274 1.322-.41.866-.958-.41-.501-2.554-.638-11.174-.638-10.217 0-10.673.045-10.673.866Zm30.33-.502-1.825.32v4.56c0 4.425 0 4.516 1.141 4.835 2.143.593 19.749.457 20.98-.182 1.049-.547 1.14-.821 1.277-4.47.091-3.238 0-4.013-.638-4.56-.593-.502-2.828-.64-9.943-.73-5.063 0-9.989.09-10.992.227Zm17.149 1.734c.228.319.41 1.87.319 3.466l-.137 2.873-7.48.137c-4.241.046-7.616-.045-7.753-.319-.137-.228-.228-1.733-.137-3.375l.182-3.01 1.642-.137c4.288-.456 12.908-.183 13.364.365Zm15.234-1.551c-.137.365-.183 2.69-.137 5.2l.137 4.515h1.824c1.779 0 1.824-.046 2.052-1.825.228-1.824.228-1.824 2.418-1.96 2.143-.138 2.828.136 8.757 3.283 1.55.821 4.789 1.004 4.789.228 0-.228-.776-.775-1.688-1.186-2.052-.82-3.421-1.915-3.056-2.463.137-.228 1.232-.41 2.418-.41 2.599 0 3.238-.547 3.238-2.782 0-2.782-.365-2.92-10.992-3.056-7.89-.137-9.578-.046-9.76.456Zm16.1 1.368c.821.821.638 2.098-.319 2.646-.958.501-9.989.638-11.175.182-.866-.32-1.003-2.736-.137-3.056 1.232-.502 11.083-.32 11.631.228Zm11.721-1.46c-.182.274-.228.594-.182.685.319.273 5.2 2.965 6.203 3.375 1.323.593 2.098 2.144 1.779 3.466-.456 1.734.137 2.509 1.778 2.509 1.87 0 2.6-.821 2.235-2.554-.182-1.004 0-1.551.821-2.28 1.141-1.05 5.109-3.467 6.431-3.969.456-.182.776-.593.639-.912-.365-1.003-2.965-.456-5.701 1.231-1.506.913-3.193 1.642-3.74 1.642-.548 0-2.235-.73-3.74-1.642-2.874-1.733-5.93-2.508-6.523-1.55Zm43.375.274c-.41 1.095-.319 8.53.137 9.213.228.365 1.003.548 1.916.457 1.414-.137 1.55-.274 1.778-1.962.228-1.824.228-1.824 2.372-1.96 1.779-.138 2.874.227 6.385 1.915 4.425 2.143 7.207 2.69 7.207 1.414 0-.41-.548-.821-1.232-.958-1.642-.32-3.603-1.916-3.056-2.463.229-.228 1.414-.456 2.691-.547 2.007-.137 2.327-.274 2.691-1.414a3.793 3.793 0 0 0 0-2.463c-.593-1.688-2.006-1.916-12.314-1.916-7.161-.045-8.347.046-8.575.684Zm16.192 1.095c.456.274.866.867.866 1.368 0 1.414-1.459 1.825-6.476 1.825-6.066 0-6.751-.183-6.751-1.825 0-.866.274-1.368.821-1.505 1.597-.41 10.673-.32 11.54.137Zm17.377 1.46c-1.916 1.824-4.151 3.968-4.972 4.743-.821.775-1.505 1.642-1.505 1.961 0 .912 2.691.547 3.74-.547.958-.912 1.505-1.004 7.663-1.14 6.567-.137 6.659-.137 7.89 1.003 1.277 1.186 4.059 1.642 4.607.775.137-.182-1.232-1.778-3.056-3.512-6.659-6.294-7.024-6.567-9.031-6.567-1.687 0-2.189.319-5.336 3.283Zm8.255 1.185c1.323 1.46.593 1.916-3.147 1.916-4.013 0-4.333-.547-1.687-2.965 1.687-1.505 1.687-1.55 2.827-.684.639.456 1.551 1.232 2.007 1.733Zm19.019-4.105-2.052.32v4.56c0 4.425 0 4.516 1.14 4.835 1.46.41 15.371.502 17.286.137 1.87-.41 2.782-1.915 1.597-2.782-1.277-.912-3.239-.775-3.512.32-.228.866-.639.912-6.386.912-5.518 0-6.203-.092-6.431-.822-.319-1.003-.045-5.518.365-5.929.183-.182 2.828-.319 5.838-.365 4.881-.045 5.61.046 6.386.821.593.593 1.368.821 2.508.73 1.87-.137 2.235-.684 1.323-1.961-.593-.821-1.323-.912-8.301-.958-4.242-.046-8.62.046-9.761.182Zm29.373.229c-.091.319-.137 2.645-.091 5.153l.137 4.516 1.733.137c1.14.09 1.687-.046 1.733-.457.137-2.554-.046-9.121-.274-9.486-.41-.684-2.964-.548-3.238.137Zm14.96-.229c-.411.274-.547 1.643-.456 5.154.137 4.607.182 4.744 1.231 4.88 1.642.229 2.007-.501 1.916-3.785-.091-3.512.319-3.922 2.965-2.554 1.003.502 3.648 1.733 5.883 2.782 2.281 1.004 4.652 2.144 5.382 2.554.684.365 2.098.73 3.193.776l1.915.09.137-4.88.137-4.88-1.186-.319c-1.779-.456-2.189.32-2.098 3.694.091 2.235-.091 3.056-.547 3.239-.593.228-5.656-1.962-12.223-5.291-2.92-1.46-5.382-2.052-6.249-1.46Zm34.8.046-1.824.274v9.076l1.55.41c.867.183 5.747.32 10.856.229 8.711-.137 9.395-.183 9.988-1.05.411-.547.639-1.641.547-2.736l-.136-1.824h-5.656c-4.014 0-5.747.182-5.838.547-.137.41.867.593 3.603.684 3.74.137 3.786.137 3.923 1.368l.136 1.278h-15.096v-6.75l1.505-.229c3.101-.456 12.907-.091 13.683.502 1.003.867 3.603.273 3.42-.73-.091-.547-.821-.866-2.189-1.095-2.509-.364-15.963-.364-18.472.046Z"/></g><defs><clipPath id="a"><path fill="#fff" transform="translate(.88)" d="M0 0h380v100H0z"/></clipPath></defs></svg>