<svg width="81" height="80" fill="none" xmlns="http://www.w3.org/2000/svg"><path fill-rule="evenodd" clip-rule="evenodd" d="M67.75 49.346c0 15.356-12.403 27.32-27.5 27.32-15.098 0-27.5-11.377-27.5-26.733 0-3.77.43-8.897 2.8-12.747 1.8-2.926 2.981-4.195 4.688-6.027.54-.579 1.13-1.214 1.81-1.976.426-.475.796-.883 1.127-1.247 1.875-2.063 2.471-2.72 4.398-6.343 2.267-4.264 3.85-12.631 3.85-18.26.536.439 1.128.908 1.763 1.41 3.657 2.897 8.721 6.909 12.597 12.584 4.633 6.789 7.687 18.132 7.687 19.159.078-.06.17-.128.273-.205 1.606-1.198 6.118-4.56 7.005-11.996 2.21 3.879 2.63 4.69 4.72 10.97 2.09 6.281 2.282 10.322 2.282 14.091ZM38.437 65.545l1.813 1.67 1.813-1.67C48.5 59.636 52.75 55.727 52.75 50.957c0-3.909-3.025-6.958-6.875-6.958-2.175 0-4.263 1.025-5.625 2.632C38.888 45.025 36.8 44 34.625 44c-3.85 0-6.875 3.049-6.875 6.958 0 4.77 4.25 8.679 10.688 14.587Z" fill="#1E1E1E"/></svg>