<svg width="81" height="80" fill="none" xmlns="http://www.w3.org/2000/svg"><path d="M33.5 69.25H47v4.5H33.5v-4.5Zm-2.25-6.75h18V67h-18v-4.5ZM56.2 12.816C51.97 8.582 46.307 6.25 40.25 6.25a22.446 22.446 0 0 0-22.5 22.5c0 6.556 2.513 12.689 6.89 16.824l.614.576c2.533 2.368 5.996 5.612 5.996 8.475v5.625H38V41.844l-6.227-3.531 2.57-3.696 5.907 3.133 5.806-3.148 2.686 3.61L42.5 41.87v18.38h6.75v-5.624c0-2.796 3.426-6.037 5.927-8.405l.69-.655c4.504-4.3 6.883-10.12 6.883-16.815a22.381 22.381 0 0 0-6.55-15.934Z" fill="#1E1E1E"/></svg>