<svg width="30" height="30" fill="none" xmlns="http://www.w3.org/2000/svg"><path d="M16.285 2.5c1.406.004 2.12.011 2.736.029l.243.009c.28.01.556.022.89.037 1.33.063 2.237.272 3.034.581a6.1 6.1 0 0 1 2.215 1.442 6.126 6.126 0 0 1 1.44 2.215c.31.796.52 1.703.582 3.035.015.332.027.608.037.89l.008.242c.019.615.026 1.329.029 2.735l.001.933v1.637c.003.912-.006 1.823-.029 2.735l-.007.242c-.01.282-.023.558-.038.89-.062 1.332-.275 2.238-.582 3.035a6.126 6.126 0 0 1-1.442 2.215 6.126 6.126 0 0 1-2.215 1.442c-.796.308-1.703.518-3.033.581l-.89.037-.243.008c-.616.018-1.33.026-2.736.029l-.933.001h-1.636a97.5 97.5 0 0 1-2.736-.029l-.242-.007a80.133 80.133 0 0 1-.89-.039c-1.33-.063-2.238-.273-3.036-.581A6.126 6.126 0 0 1 4.6 25.402a6.125 6.125 0 0 1-1.443-2.215c-.308-.796-.518-1.703-.581-3.035l-.038-.89-.006-.242a98.76 98.76 0 0 1-.031-2.735v-2.57a98.76 98.76 0 0 1 .027-2.735l.01-.242c.01-.282.022-.558.037-.89.062-1.332.272-2.238.581-3.036A6.125 6.125 0 0 1 4.6 4.598a6.125 6.125 0 0 1 2.213-1.44c.797-.31 1.703-.52 3.035-.582.332-.015.61-.028.89-.038l.242-.007a98.758 98.758 0 0 1 2.735-.029l2.57-.001ZM15 8.75a6.25 6.25 0 1 0 0 12.5 6.25 6.25 0 0 0 0-12.5Zm0 2.5a3.749 3.749 0 1 1 0 7.498 3.749 3.749 0 0 1 0-7.498m6.563-4.375a1.563 1.563 0 1 0 0 3.125 1.563 1.563 0 0 0 0-3.125Z" fill="#FAF9F9"/></svg>