<svg width="24" height="24" fill="none" xmlns="http://www.w3.org/2000/svg"><path fill-rule="evenodd" clip-rule="evenodd" d="M2.222 3.444c-.474 0-.89.278-1.092.677L12 11.731l10.87-7.61a1.23 1.23 0 0 0-1.092-.677H2.222ZM23 19.334V7.013l-10.3 7.21c-.42.294-.98.294-1.4 0L1 7.013v12.32c0 .669.553 1.221 1.222 1.221h19.556A1.23 1.23 0 0 0 23 19.333Z" fill="#EAD515"/><path d="m1.13 4.121-.545-.275a.611.611 0 0 0 .195.776l.35-.5ZM12 11.731l-.35.5a.61.61 0 0 0 .7 0l-.35-.5Zm10.87-7.61.35.501a.611.611 0 0 0 .195-.776l-.545.275ZM23 7.014h.611a.611.611 0 0 0-.962-.5l.351.5Zm-10.3 7.21-.35-.501.35.5Zm-1.4 0 .35-.501-.35.5ZM1 7.013l.35-.5a.611.611 0 0 0-.961.5H1Zm.676-2.617a.618.618 0 0 1 .546-.342V2.833A1.84 1.84 0 0 0 .585 3.846l1.09.551ZM12.35 11.23 1.48 3.62l-.7 1.002 10.87 7.609.7-1.001Zm10.17-7.61-10.87 7.61.7 1 10.87-7.608-.7-1.001Zm-.742.435c.231 0 .443.137.546.342l1.091-.551a1.84 1.84 0 0 0-1.637-1.013v1.222Zm-19.556 0h19.556V2.833H2.222v1.222ZM22.39 7.014v12.32h1.222V7.013H22.39Zm-9.338 7.71 10.3-7.21-.701-1-10.3 7.209.701 1.001Zm-2.102 0a1.833 1.833 0 0 0 2.102 0l-.7-1.001a.611.611 0 0 1-.701 0l-.701 1.001ZM.65 7.514l10.3 7.21.7-1.001-10.3-7.21-.7 1.002Zm.962 11.82V7.013H.39v12.32h1.22Zm.611.61a.618.618 0 0 1-.61-.61H.388a1.84 1.84 0 0 0 1.833 1.833v-1.223Zm19.556 0H2.222v1.223h19.556v-1.223Zm.61-.61c0 .331-.278.61-.61.61v1.223a1.84 1.84 0 0 0 1.833-1.834H22.39Z" fill="#EAD515"/></svg>