<svg width="81" height="80" fill="none" xmlns="http://www.w3.org/2000/svg"><g clip-path="url(#a)"><path d="M62.43 30.395 46.39 14.301H28.75v8.047h14.36l8 8.047H18.75c-10 0-18 8.048-18 18.107s8 18.106 18 18.106c8.88 0 16.24-6.518 17.68-15.008l8.48-5.11c-.16.684-.16 1.328-.16 2.012 0 10.059 8 18.106 18 18.106s18-8.047 18-18.106c0-10.06-8-18.107-18-18.107M28.11 51.56c-1.36 4.064-5.04 7.001-9.48 7.001a9.97 9.97 0 0 1-7.071-2.946 10.09 10.09 0 0 1-2.93-7.113 10.09 10.09 0 0 1 2.93-7.113 9.97 9.97 0 0 1 7.07-2.946c4.48 0 8.12 2.977 9.48 7.041H16.75v6.036l11.36.04Zm34.52 7.001a9.97 9.97 0 0 1-7.071-2.946 10.09 10.09 0 0 1-2.93-7.113 10.09 10.09 0 0 1 2.93-7.113 9.97 9.97 0 0 1 7.07-2.946 9.97 9.97 0 0 1 7.072 2.946 10.09 10.09 0 0 1 2.929 7.113 10.09 10.09 0 0 1-2.929 7.113 9.97 9.97 0 0 1-7.071 2.946Z" fill="#1E1E1E"/></g><defs><clipPath id="a"><path fill="#fff" transform="translate(.75)" d="M0 0h80v80H0z"/></clipPath></defs></svg>