<svg width="81" height="80" fill="none" xmlns="http://www.w3.org/2000/svg"><path d="M63.721 35.82a17.365 17.365 0 0 0 6.763-9.354c.344.473.668.963.97 1.47 2.078 3.472 3.196 7.659 3.196 12.649 0 7.669-2.866 13.03-5.78 16.468a23.13 23.13 0 0 1-4.54 4.107v6.356c0 .798-.155 1.59-.457 2.328a6.087 6.087 0 0 1-1.305 1.974 6.018 6.018 0 0 1-1.953 1.319 5.968 5.968 0 0 1-2.305.463h-4.3a5.134 5.134 0 0 1-3.649-1.527 5.24 5.24 0 0 1-1.511-3.685h-6.88a5.24 5.24 0 0 1-1.511 3.685A5.134 5.134 0 0 1 36.81 73.6h-4.3a5.99 5.99 0 0 1-4.257-1.781 6.112 6.112 0 0 1-1.763-4.3v-2.373a23.982 23.982 0 0 1-1.596-.609 22.343 22.343 0 0 1-7.107-4.732 34.715 34.715 0 0 1-5.521-7.405 1.699 1.699 0 0 0-1.132-.897A6.315 6.315 0 0 1 7.35 49.33a6.433 6.433 0 0 1-1.5-4.127v-6.092c0-2.929 2.098-5.427 4.954-5.907.299-.052.743-.354.953-.987.66-2.005 1.943-4.983 4.31-7.373a27.544 27.544 0 0 1 5.703-4.33c.473-.271.9-.503 1.28-.695V9.905c0-3.26 3.887-4.597 5.986-2.488 1.135 1.143 2.786 2.665 4.613 3.94 1.826 1.276 3.567 2.11 5.001 2.294a17.531 17.531 0 0 0-1.548 11.033c.623 3.325 3.145 5.427 5.511 6.421l12.715 5.317c2.37.99 5.62 1.303 8.393-.605m-37.231-.444c.912 0 1.787-.367 2.432-1.018a3.493 3.493 0 0 0 1.008-2.457c0-.922-.363-1.806-1.008-2.457a3.422 3.422 0 0 0-2.432-1.018 3.42 3.42 0 0 0-2.432 1.018 3.493 3.493 0 0 0-1.008 2.457 3.49 3.49 0 0 0 1.008 2.457 3.423 3.423 0 0 0 2.432 1.018Zm35.29-2.422a13.843 13.843 0 0 0 3.959-4.2 13.992 13.992 0 0 0 1.917-5.464 14.037 14.037 0 0 0-.51-5.934 13.937 13.937 0 0 0-2.923-5.174 13.764 13.764 0 0 0-4.798-3.462 13.64 13.64 0 0 0-11.514.32 13.786 13.786 0 0 0-4.603 3.723 13.955 13.955 0 0 0-2.637 5.327 14.036 14.036 0 0 0-.187 5.954c.087.452.236.874.447 1.268.172.325.379.626.62.904.625.73 1.465 1.3 2.38 1.685l12.714 5.317c1.686.705 3.63.774 5.136-.265Z" fill="#1E1E1E"/></svg>