<svg width="24" height="24" fill="none" xmlns="http://www.w3.org/2000/svg"><path fill-rule="evenodd" clip-rule="evenodd" d="M12 23s9-6 9-13a9 9 0 1 0-18 0c0 7 9 13 9 13Zm5-13a5 5 0 1 1-10 0 5 5 0 0 1 10 0Z" fill="#EAD515"/><path d="m12 23-.555.832a1 1 0 0 0 1.11 0L12 23Zm6.364-19.364-.707.707.707-.707Zm-12.728 0 .707.707-.707-.707ZM20 10c0 3.098-2.016 6.104-4.226 8.437a29.412 29.412 0 0 1-3.973 3.48 16.79 16.79 0 0 1-.27.192l-.067.046-.016.01-.003.003L12 23l.555.832h.001l.002-.002.007-.005.023-.015.082-.057c.072-.05.174-.12.302-.214a31.433 31.433 0 0 0 4.254-3.727C19.516 17.397 22 13.903 22 10h-2Zm-2.343-5.657A8 8 0 0 1 20 10h2a10 10 0 0 0-2.929-7.071l-1.414 1.414ZM12 2a8 8 0 0 1 5.657 2.343L19.07 2.93A10 10 0 0 0 12 0v2ZM6.343 4.343A8 8 0 0 1 12 2V0a10 10 0 0 0-7.071 2.929l1.414 1.414ZM4 10a8 8 0 0 1 2.343-5.657L4.93 2.93A10 10 0 0 0 2 10h2Zm8 13 .555-.832-.003-.002-.016-.01-.068-.047a26.305 26.305 0 0 1-1.252-.938 29.419 29.419 0 0 1-2.99-2.734C6.016 16.104 4 13.098 4 10H2c0 3.902 2.484 7.396 4.774 9.813a31.428 31.428 0 0 0 4.254 3.726 18.887 18.887 0 0 0 .384.27l.023.016.007.005.002.001c.001 0 .001.001.556-.831Zm0-7a6 6 0 0 0 6-6h-2a4 4 0 0 1-4 4v2Zm-6-6a6 6 0 0 0 6 6v-2a4 4 0 0 1-4-4H6Zm6-6a6 6 0 0 0-6 6h2a4 4 0 0 1 4-4V4Zm6 6a6 6 0 0 0-6-6v2a4 4 0 0 1 4 4h2Z" fill="#EAD515"/></svg>