<svg width="59" height="53" fill="none" xmlns="http://www.w3.org/2000/svg"><path d="M33.833 52.5v-9.591V52.5Zm0 0h.5m-.5 0h.5m0 0V52m0 .5V52m0 0h22.16m-22.16 0L56.682 9.386M53.083 2l.45-.219-.143-.292-.325.011.018.5Zm0 0 3.599 7.386M53.083 2c-6.944.253-11.805 3.157-14.583 8.712-2.778 5.556-4.167 13.195-4.167 22.917v9.28L56.682 9.386m0 0c-3.914.38-6.629 2.273-8.144 5.682-1.389 3.283-2.083 8.523-2.083 15.72h10.037m.19-21.402.048.498.717-.07-.316-.647-.45.22Zm-.19 21.402V52m0-21.212v-.5h.5v.5h-.5Zm0 21.212h.5v.5h-.5V52ZM33.833 33.647v-.018.018Zm0 0v.017m0-.017v.017m0 0v.018m0-.018v.018m0 0v.018m0-.018v.018m0 0v.018m0-.018v.018m0 0v.017m0-.017v.017m0 0v.018m0-.018v.018m0 0v.018m0-.018v.018m0 0v.018m0-.018v.018m0 0v.017m0-.017v.017m0 0v.018m0-.018v.018m0 0v.018m0-.018v.018m0 0v.018m0-.018v.018m0 0v.017m0-.017v.017m0 0v.018m0-.018v.018m0 0v.018m0-.018v.018m0 0v.018m0-.018v.018m0 0v.018m0-.018v.018m0 0v.017m0-.017v.017m0 0v.018m0-.018v.018m0 0v.018m0-.018v.018m0 0v.018m0-.018v.018m0 0v.017m0-.017v.017m0 0v.018m0-.017v.017m0 0v.018m0-.018v.018m0 0v.018m0-.018v.018m0 0v.018m0-.018v.018m0 0v.017m0-.017v.017m0 0v.018m0-.017v.017m0 0v.018m0-.018v.018m0 0v.018m0-.018v.018m0 0v.018m0-.018v.018m0 0v.017m0-.017v.017m0 0v.018m0-.017v.017m0 0v.018m0-.018v.018m0 0v.018m0-.018v.018m0 0v.018m0-.018v.018m0 0v.017m0-.017v.017m0 0v.018m0-.018v.018m0 0v.018m0-.018v.018m0 0v.018m0-.018v.018m0 0v.018m0-.018v.018m0 0v.018m0-.018v.018m0 0v.017m0-.017v.017m0 0v.018m0-.018v.018m0 0v.018m0-.018v.018m0 0v.018m0-.018v.018m0 0v.018m0-.018v.018m0 0v.018m0-.018v.018m0 0v.017m0-.017v.017m0 0v.018m0-.018v.018m0 0v.018m0-.018v.018m0 0v.018m0-.018v.018m0 0v.018m0-.018v.018m0 0v.017m0-.017v.017m0 0v.018m0-.017v.017m0 0v.018m0-.018v.018m0 0v.018m0-.018v.018m0 0v.018m0-.018v.018m0 0v.018m0-.018v.018m0 0v.018m0-.018v.018m0 0v.017m0-.017v.017m0 0v.018m0-.018v.018m0 0v.018m0-.018v.018m0 0v.018m0-.018v.018m0 0v.018m0-.018v.018m0 0v.018m0-.018v.018m0 0v.017m0-.017v.017m0 0v.018m0-.017v.017m0 0v.018m0-.018v.018m0 0v.018m0-.018v.018m0 0v.018m0-.018v.018m0 0v.018m0-.018v.018m0 0v.018m0-.018v.018m0 0v.017m0-.017v.017m0 0v.018m0-.017v.017m0 0V35m0-.018V35m0 0v.018m0-.018v.018m0 0v.018m0-.018v.018m0 0v.018m0-.018v.018m0 0v.018m0-.018v.018m0 0v.018m0-.018v.018m0 0v.017m0-.017v.017m0 0v.018m0-.017v.017m0 0v.018m0-.018v.018m0 0v.018m0-.018v.018m0 0v.018m0-.018v.018m0 0v.018m0-.018v.018m0 0v.018m0-.018v.018m0 0v.018m0-.018v.018m0 0v.018m0-.018v.018m0 0v.017m0-.017v.017m0 0v.018m0-.018v.018m0 0v.018m0-.018v.018m0 0v.018m0-.018v.018m0 0v.018m0-.018v.018m0 0v.018m0-.018v.018m0 0v.018m0-.018v.018m0 0v.018m0-.018v.018m0 0v.018m0-.018v.018m0 0v.017m0-.017v.017m0 0v.018m0-.018v.018m0 0v.018m0-.018v.018m0 0v.018m0-.018v.018m0 0v.018m0-.018v.018m0 0v.018m0-.018v.018m0 0v.018m0-.018v.018m0 0v.018m0-.018v.018m0 0v.018m0-.018v.018m0 0v.018m0-.018v.018m0 0v.018m0-.018v.018m0 0v.017m0-.017v.017m0 0v.018m0-.017v.017m0 0v.018m0-.018v.018m0 0v.018m0-.018v.018m0 0v.018m0-.018v.018m0 0v.018m0-.018v.018m0 0v.018m0-.018v.018m0 0v.018m0-.018v.018m0 0v.018m0-.018v.018m0 0v.018m0-.018v.018m0 0v.018m0-.018v.018m0 0v.018m0-.018v.018m0 0v.018m0-.018v.018m0 0v.017m0-.017v.017m0 0v.018m0-.018v.018m0 0v.018m0-.018v.018m0 0v.018m0-.018v.018m0 0v.018m0-.018v.018m0 0v.018m0-.018v.018m0 0v.018m0-.018v.018m0 0v.018m0-.018v.018m0 0v.018m0-.018v.018m0 0v.018m0-.018v.018m0 0v.018m0-.018v.018m0 0v.018m0-.018v.018m0 0v.018m0-.018v.018m0 0v.018m0-.018v.018m0 0v.018m0-.018v.018m0 0v.018m0-.018v.018m0 0v.018m0-.018v.018m0 0v.018m0-.018v.018m0 0v.018m0-.018v.018m0 0v.018m0-.018v.018m0 0v.018m0-.018v.018m0 0v.017m0-.017v.017m0 0v.019m0-.019v.019m0 0v.017m0-.017v.017m0 0v.018m0-.017v.017m0 0v.018m0-.018v.018m0 0v.018m0-.018v.018m0 0v.018m0-.018v.018m0 0v.018m0-.018v.018m0 0v.018m0-.018v.018m0 0v.018m0-.018v.018m0 0v.018m0-.018v.018m0 0v.018m0-.018v.018m0 0v.018m0-.018v.018m0 0v.018m0-.018v.018m0 0v.018m0-.018v.018m0 0v.018m0-.018v.018m0 0v.018m0-.018v.018m0 0v.018m0-.018v.018m0 0v.018m0-.018v.018m0 0v.018m0-.018v.018m0 0v.018m0-.018v.018m0 0v.018m0-.018v.018m0 0v.018m0-.018v.018m0 0v.018m0-.018v.018m0 0v.018m0-.018v.018m0 0v.018m0-.018v.018m0 0v.018m0-.018v.018m0 0v.018m0-.018v.018m0 0v.018m0-.018v.018m0 0v.018m0-.018v.018m0 0v.018m0-.018v.018m0 0v.018m0-.018v.018m0 0v.018m0-.018v.018m0 0v.018m0-.018v.018m0 0v.018m0-.018v.018m0 0v.018m0-.018v.018m0 0v.018m0-.018v.018m0 0v.018m0-.018v.018m0 0v.018m0-.018v.018m0 0v.018m0-.018v.018m0 0v.018m0-.018v.018m0 0v.018m0-.018v.018m0 0v.018m0-.018v.018m0 0v.018m0-.018v.018m0 0v.019m0-.019v.019m0 0v.017m0-.017v.017m0 0v.019m0-.018v.018m0 0v.018m0-.018v.018m0 0v.018m0-.018v.018m0 0v.018m0-.018v.018m0 0v.018m0-.018v.018m0 0v.018m0-.018v.018m0 0v.018m0-.018v.018m0 0v.018m0-.018v.018m0 0v.018m0-.018v.018m0 0v.018m0-.018v.018m0 0v.018m0-.018v.018m0 0v.018m0-.018v.018m0 0v.018m0-.018v.018m0 0v.018m0-.018v.018m0 0v.018m0-.018v.018m0 0v.018m0-.018v.018m0 0v.018m0-.018v.018m0 0v.018m0-.018v.018m0 0v.018m0-.018v.018m0 0v.018m0-.018v.018m0 0v.019m0-.019v.019m0 0v.017m0-.017v.017m0 0v.019m0-.019v.019m0 0v.018m0-.018v.018m0 0v.018m0-.018v.018m0 0v.018m0-.018v.018m0 0v.018m0-.018v.018m0 0v.018m0-.018v.018m0 0v.018m0-.018v.018m0 0v.018m0-.018v.018m0 0v.018m0-.018v.018m0 0v.018m0-.018v.018m0 0v.018m0-.018v.018m0 0v.018m0-.018v.018m0 0v.019m0-.019v.019m0 0v.018m0-.019v.019m0 0v.018m0-.018v.018m0 0v.018m0-.018v.018m0 0v.018m0-.018v.018m0 0v.018m0-.018v.018m0 0v.018m0-.018v.018m0 0v.018m0-.018v.018m0 0v.018m0-.018v.018m0 0v.018m0-.018v.018m0 0v.018m0-.018v.018m0 0v.018m0-.018v.018m0 0v.019m0-.019v.019m0 0v.018m0-.018v.018m0 0v.018m0-.018v.018m0 0v.018m0-.018v.018m0 0v.018m0-.018v.018m0 0v.018m0-.018v.018m0 0v.018m0-.018v.018m0 0v.018m0-.018v.018m0 0v.018m0-.018v.018m0 0v.019m0-.019v.019m0 0v.018m0-.018v.018m0 0v.018m0-.018v.018m0 0v.018m0-.018v.018m0 0v.018m0-.018v.018m0 0v.018m0-.018v.018m0 0v.018m0-.018v.018m0 0v.018m0-.018v.018m0 0v.018m0-.018v.018m0 0v.019m0-.019v.019m0 0v.018m0-.018v.018m0 0v.018m0-.018v.018m0 0v.018m0-.018v.018m0 0v.018m0-.018v.018m0 0v.018m0-.018v.018m0 0v.018m0-.018v.018m0 0v.019m0-.019v.019m0 0v.018m0-.018v.018m0 0v.018m0-.018v.018m0 0v.018m0-.018v.018m0 0v.018m0-.018v.018m0 0v.018m0-.018v.018m0 0v.018m0-.018v.018m0 0v.018m0-.018v.018m0 0v.019m0-.019v.019m0 0v.018m0-.018v.018m0 0v.018m0-.018v.018m0 0v.018m0-.018v.018m0 0v.018m0-.018v.018m0 0v.018m0-.018v.018m0 0v.019m0-.019v.019m0 0v.018m0-.018v.018m0 0v.018m0-.018v.018m0 0v.018m0-.018v.018m0 0v.018m0-.018v.018m0 0v.018m0-.018v.018m0 0v.019m0-.019v.019m0 0v.018m0-.018v.018m0 0v.018m0-.018v.018m0 0v.018m0-.018v.018m0 0v.018m0-.018v.018m0 0v.018m0-.018v.018m0 0v.019m0-.019v.019m0 0v.018m0-.018v.018m0 0v.018m0-.018v.018m0 0v.018m0-.018v.018m0 0v.018m0-.018v.018m0 0v.018m0-.018v.018m0 0v.019m0-.019v.019m0 0v.018m0-.018v.018m0 0v.018m0-.018v.018m0 0v.018m0-.018v.018m0 0v.018m0-.018v.018m0 0v.018m0-.018v.018m0 0v.019m0-.019v.019m0 0v.018m0-.018v.018m0 0v.018m0-.018v.018m0 0v.018m0-.018v.018m0 0v.018m0-.018v.018m0 0v.019m0-.019v.019m0 0v.018m0-.018v.018m0 0v.018m0-.018v.018m0 0v.018m0-.018v.018m0 0v.019m0-.019v.019m0 0v.018m0-.018v.018m0 0v.018m0-.018v.018m0 0v.018m0-.018v.018m0 0v.018m0-.018v.018m0 0v.019m0-.019v.019m0 0v.018m0-.018v.018m0 0v.018m0-.018v.018m0 0v.018m0-.018v.018m0 0v.018m0-.018v.018m0 0v.019m0-.019v.019m0 0v.018m0-.018v.018m0 0v.018m0-.018v.018m0 0v.018m0-.018v.018m0 0v.019m0-.019v.019m0 0v.018m0-.018v.018m0 0v.018m0-.018v.018m0 0v.018m0-.018v.018m0 0v.018m0-.018v.018m0 0v.019m0-.019v.019m0 0v.018m0-.018v.018m0 0v.018m0-.018v.018m0 0v.018m0-.018v.018m0 0v.018m0-.018v.018m0 0v.019m0-.019v.019m0 0v.018m0-.018v.018m0 0v.018m0-.018v.018m0 0v.018m0-.018v.018m0 0v.019m0-.019v.019m0 0v.018m0-.018v.018m0 0v.018m0-.018v.018m0 0v.018m0-.018v.018m0 0v.019m0-.019v.019m0 0v.018m0-.018v.018m0 0v.018m0-.018v.018m0 0v.018m0-.018v.018m0 0v.019m0-.019v.019m0 0v.018m0-.018v.018m0 0v.018m0-.018v.018m0 0v.018m0-.018v.018m0 0v.019m0-.019v.019m0 0v.018m0-.018v.018m0 0v.018m0-.018v.018m0 0v.019m0-.019v.019m0 0v.018m0-.018v.018m0 0v.018m0-.018v.018m0 0v.018m0-.018v.018m0 0v.019m0-.019v.019m0 0v.018m0-.018v.018m0 0v.018m0-.018v.018m0 0v.019m0-.019v.019m0 0v.018m0-.019v.019m0 0v.018m0-.018v.018m0 0v.018m0-.018v.018m0 0v.019m0-.019v.019m0 0v.018m0-.018v.018m0 0v.018m0-.018v.018m0 0v.018m0-.018v.018m0 0v.019m0-.019v.019m0 0v.018m0-.018v.018m0 0v.018m0-.018v.018m0 0v.019m0-.019v.019m0 0v.018m0-.018v.018m0 0v.018m0-.018v.018m0 0v.019m0-.019v.019m0 0v.018m0-.019v.019m0 0v.018m0-.018v.018m0 0v.018m0-.018v.018m0 0v.019m0-.019v.019m0 0v.018m0-.018v.018m0 0v.018m0-.018v.018m0 0v.019m0-.019v.019m0 0v.018m0-.018v.018m0 0v.018m0-.018v.018m0 0v.019m0-.019v.019m0 0v.018m0-.019v.019m0 0v.018m0-.018v.018m0 0v.018m0-.018v.018m0 0v.019m0-.019v.019m0 0v.018m0-.018v.018m0 0v.018m0-.018v.018m0 0v.019m0-.019v.019m0 0v.018m0-.018v.018m0 0v.018m0-.018v.018m0 0v.019m0-.019v.019m0 0v.018m0-.018v.018m0 0v.018m0-.018v.018m0 0v.019m0-.019v.019m0 0v.018m0-.018v.018m0 0v.018m0-.018v.018m0 0v.019m0-.019v.019m0 0v.018m0-.018v.018m0 0v.018m0-.018v.018m0 0v.019m0-.019v.019m0 0v.018m0-.018v.018m0 0v.018m0-.018v.018m0 0v.019m0-.019v.019m0 0v.018m0-.018v.018m0 0v.018m0-.018v.018m0 0v.019m0-.019v.019m0 0v.018m0-.018v.018m0 0v.018m0-.018v.018m0 0v.019m0-.019v.019m0 0v.018m0-.018v.018m0 0v.018m0-.018v.018m0 0v.019m0-.019v.019m0 0v.018-.018ZM.5 52v.5h23.16V30.288H13.621c.032-6.921.726-11.91 2.041-15.02 1.438-3.232 3.988-5.022 7.734-5.384l.716-.07-.315-.647L20.2 1.781l-.143-.292-.325.011c-7.1.259-12.142 3.247-15.013 8.989C1.893 16.142.5 23.869.5 33.629V52Z" fill="#1E1E1E" stroke="#1E1E1E"/></svg>