<svg width="81" height="80" fill="none" xmlns="http://www.w3.org/2000/svg"><path d="M31.083 73.333 29.75 62.667a12.592 12.592 0 0 1-2.04-1 28.392 28.392 0 0 1-1.877-1.25l-9.916 4.166L6.75 48.75l8.583-6.5a7.954 7.954 0 0 1-.083-1.123v-2.25c0-.363.028-.738.083-1.127l-8.583-6.5 9.167-15.833 9.916 4.166c.611-.444 1.25-.86 1.917-1.25a16.771 16.771 0 0 1 2-1l1.333-10.666h18.334l1.333 10.666c.722.278 1.403.612 2.043 1 .64.39 1.265.806 1.874 1.25l9.916-4.166L73.75 31.25l-8.583 6.5c.055.389.083.764.083 1.127v2.246c0 .363-.056.738-.167 1.127l8.584 6.5L64.5 64.583l-9.833-4.166c-.611.444-1.25.86-1.917 1.25-.667.389-1.333.722-2 1l-1.333 10.666H31.083Zm9.334-21.666c3.222 0 5.972-1.14 8.25-3.417 2.277-2.278 3.416-5.028 3.416-8.25 0-3.222-1.139-5.972-3.416-8.25-2.278-2.278-5.028-3.417-8.25-3.417-3.278 0-6.043 1.14-8.294 3.417-2.25 2.278-3.375 5.028-3.373 8.25.002 3.222 1.128 5.972 3.377 8.25 2.249 2.278 5.012 3.417 8.29 3.417Z" fill="#1E1E1E"/></svg>