<?xml version="1.0" encoding="utf-8"?><svg viewBox="0 0 900 537" xmlns="http://www.w3.org/2000/svg" xmlns:xlink="http://www.w3.org/1999/xlink"><style>:root>svg{display:none}:root>svg:target{display:block}</style><svg viewBox="0 0 345 401" id="decor--corner-accent-top-left" xmlns="http://www.w3.org/2000/svg"><path fill-rule="evenodd" clip-rule="evenodd" d="m289.232 0 55.508 55.508L0 400.248V0h289.232Z"/></svg><svg viewBox="0 0 338 436" id="decor--stripes-accent-corner-bottom-right" xmlns="http://www.w3.org/2000/svg"><path fill-rule="evenodd" clip-rule="evenodd" d="M338 .852v74.19L67.05 374.853 123.216 437h-67.05l-22.641-25.053L0 374.852l33.525-37.096L338 .852ZM195.343 437h67.05l-53.455-59.148L338 235.043v-74.191L175.413 340.756l-33.525 37.096 33.525 37.095L195.343 437ZM338 313.579l-23.411 25.904-33.525 37.096 33.525 37.096L335.669 437H338V313.579Z"/></svg><svg viewBox="0 0 374 439" id="decor--stripes-dark-corner-bottom-left" xmlns="http://www.w3.org/2000/svg"><path fill-rule="evenodd" clip-rule="evenodd" d="M-.114.945v70.71l305.289 305.29-63.138 63.138h70.711L340.53 412.3l33.356-33.355v-4L340.53 341.59-.114.945Zm158.862 439.138h-70.71l60.137-60.138L-.115 231.656v-70.711L183.53 344.59l35.356 35.355L183.53 415.3l-24.782 24.783ZM-.114 313.672l29.644 29.645 35.356 35.355-35.356 35.356-26.055 26.055h-3.59V313.672Z"/></svg><svg viewBox="0 0 81 80" id="icons--booking" xmlns="http://www.w3.org/2000/svg"><path fill-rule="evenodd" clip-rule="evenodd" d="M17.871 66.364h46.667V29.697H17.87v36.666ZM54.538 13.03V6.364h6.667v6.666h3.333a6.667 6.667 0 0 1 6.666 6.667v46.666a6.667 6.667 0 0 1-6.666 6.667H17.87a6.667 6.667 0 0 1-6.666-6.666V19.697c0-3.7 2.966-6.667 6.666-6.667h3.334V6.364h6.666v6.666h26.667Zm-33.333 20h40v30h-40v-30Zm23.333 13.334h10v10h-10v-10Z"/></svg><svg viewBox="0 0 30 30" id="icons--fb" xmlns="http://www.w3.org/2000/svg"><path d="M24.608 4.2H5.392A1.192 1.192 0 0 0 4.2 5.392v19.216A1.192 1.192 0 0 0 5.392 25.8h10.345v-8.364h-2.815v-3.26h2.815v-2.404c0-2.79 1.704-4.31 4.193-4.31 1.192 0 2.217.09 2.515.13v2.915H20.72c-1.353 0-1.615.644-1.615 1.588v2.081h3.228l-.42 3.26h-2.808V25.8h5.504a1.192 1.192 0 0 0 1.192-1.192V5.392A1.192 1.192 0 0 0 24.608 4.2Z"/></svg><svg viewBox="0 0 81 80" id="icons--fire" xmlns="http://www.w3.org/2000/svg"><path fill-rule="evenodd" clip-rule="evenodd" d="M67.75 49.346c0 15.356-12.403 27.32-27.5 27.32-15.098 0-27.5-11.377-27.5-26.733 0-3.77.43-8.897 2.8-12.747 1.8-2.926 2.981-4.195 4.688-6.027.54-.579 1.13-1.214 1.81-1.976.426-.475.796-.883 1.127-1.247 1.875-2.063 2.471-2.72 4.398-6.343 2.267-4.264 3.85-12.631 3.85-18.26.536.439 1.128.908 1.763 1.41 3.657 2.897 8.721 6.909 12.597 12.584 4.633 6.789 7.687 18.132 7.687 19.159.078-.06.17-.128.273-.205 1.606-1.198 6.118-4.56 7.005-11.996 2.21 3.879 2.63 4.69 4.72 10.97 2.09 6.281 2.282 10.322 2.282 14.091ZM38.437 65.545l1.813 1.67 1.813-1.67C48.5 59.636 52.75 55.727 52.75 50.957c0-3.909-3.025-6.958-6.875-6.958-2.175 0-4.263 1.025-5.625 2.632C38.888 45.025 36.8 44 34.625 44c-3.85 0-6.875 3.049-6.875 6.958 0 4.77 4.25 8.679 10.688 14.587Z"/></svg><svg viewBox="0 0 81 80" id="icons--idea" xmlns="http://www.w3.org/2000/svg"><path d="M33.5 69.25H47v4.5H33.5v-4.5Zm-2.25-6.75h18V67h-18v-4.5ZM56.2 12.816C51.97 8.582 46.307 6.25 40.25 6.25a22.446 22.446 0 0 0-22.5 22.5c0 6.556 2.513 12.689 6.89 16.824l.614.576c2.533 2.368 5.996 5.612 5.996 8.475v5.625H38V41.844l-6.227-3.531 2.57-3.696 5.907 3.133 5.806-3.148 2.686 3.61L42.5 41.87v18.38h6.75v-5.624c0-2.796 3.426-6.037 5.927-8.405l.69-.655c4.504-4.3 6.883-10.12 6.883-16.815a22.381 22.381 0 0 0-6.55-15.934Z"/></svg><svg viewBox="0 0 30 30" id="icons--instagram" xmlns="http://www.w3.org/2000/svg"><path d="M16.285 2.5c1.406.004 2.12.011 2.736.029l.243.009c.28.01.556.022.89.037 1.33.063 2.237.272 3.034.581a6.1 6.1 0 0 1 2.215 1.442 6.126 6.126 0 0 1 1.44 2.215c.31.796.52 1.703.582 3.035.015.332.027.608.037.89l.008.242c.019.615.026 1.329.029 2.735l.001.933v1.637c.003.912-.006 1.823-.029 2.735l-.007.242c-.01.282-.023.558-.038.89-.062 1.332-.275 2.238-.582 3.035a6.126 6.126 0 0 1-1.442 2.215 6.126 6.126 0 0 1-2.215 1.442c-.796.308-1.703.518-3.033.581l-.89.037-.243.008c-.616.018-1.33.026-2.736.029l-.933.001h-1.636a97.5 97.5 0 0 1-2.736-.029l-.242-.007a80.133 80.133 0 0 1-.89-.039c-1.33-.063-2.238-.273-3.036-.581A6.126 6.126 0 0 1 4.6 25.402a6.125 6.125 0 0 1-1.443-2.215c-.308-.796-.518-1.703-.581-3.035l-.038-.89-.006-.242a98.76 98.76 0 0 1-.031-2.735v-2.57a98.76 98.76 0 0 1 .027-2.735l.01-.242c.01-.282.022-.558.037-.89.062-1.332.272-2.238.581-3.036A6.125 6.125 0 0 1 4.6 4.598a6.125 6.125 0 0 1 2.213-1.44c.797-.31 1.703-.52 3.035-.582.332-.015.61-.028.89-.038l.242-.007a98.758 98.758 0 0 1 2.735-.029l2.57-.001ZM15 8.75a6.25 6.25 0 1 0 0 12.5 6.25 6.25 0 0 0 0-12.5Zm0 2.5a3.749 3.749 0 1 1 0 7.498 3.749 3.749 0 0 1 0-7.498m6.563-4.375a1.563 1.563 0 1 0 0 3.125 1.563 1.563 0 0 0 0-3.125Z"/></svg><svg viewBox="0 0 24 24" id="icons--mail" xmlns="http://www.w3.org/2000/svg"><path fill-rule="evenodd" clip-rule="evenodd" d="M2.222 3.444c-.474 0-.89.278-1.092.677L12 11.731l10.87-7.61a1.23 1.23 0 0 0-1.092-.677H2.222ZM23 19.334V7.013l-10.3 7.21c-.42.294-.98.294-1.4 0L1 7.013v12.32c0 .669.553 1.221 1.222 1.221h19.556A1.23 1.23 0 0 0 23 19.333Z"/><path d="m1.13 4.121-.545-.275a.611.611 0 0 0 .195.776l.35-.5ZM12 11.731l-.35.5a.61.61 0 0 0 .7 0l-.35-.5Zm10.87-7.61.35.501a.611.611 0 0 0 .195-.776l-.545.275ZM23 7.014h.611a.611.611 0 0 0-.962-.5l.351.5Zm-10.3 7.21-.35-.501.35.5Zm-1.4 0 .35-.501-.35.5ZM1 7.013l.35-.5a.611.611 0 0 0-.961.5H1Zm.676-2.617a.618.618 0 0 1 .546-.342V2.833A1.84 1.84 0 0 0 .585 3.846l1.09.551ZM12.35 11.23 1.48 3.62l-.7 1.002 10.87 7.609.7-1.001Zm10.17-7.61-10.87 7.61.7 1 10.87-7.608-.7-1.001Zm-.742.435c.231 0 .443.137.546.342l1.091-.551a1.84 1.84 0 0 0-1.637-1.013v1.222Zm-19.556 0h19.556V2.833H2.222v1.222ZM22.39 7.014v12.32h1.222V7.013H22.39Zm-9.338 7.71 10.3-7.21-.701-1-10.3 7.209.701 1.001Zm-2.102 0a1.833 1.833 0 0 0 2.102 0l-.7-1.001a.611.611 0 0 1-.701 0l-.701 1.001ZM.65 7.514l10.3 7.21.7-1.001-10.3-7.21-.7 1.002Zm.962 11.82V7.013H.39v12.32h1.22Zm.611.61a.618.618 0 0 1-.61-.61H.388a1.84 1.84 0 0 0 1.833 1.833v-1.223Zm19.556 0H2.222v1.223h19.556v-1.223Zm.61-.61c0 .331-.278.61-.61.61v1.223a1.84 1.84 0 0 0 1.833-1.834H22.39Z"/></svg><svg viewBox="0 0 81 80" id="icons--moto" xmlns="http://www.w3.org/2000/svg"><g clip-path="url(#la)"><path d="M62.43 30.395 46.39 14.301H28.75v8.047h14.36l8 8.047H18.75c-10 0-18 8.048-18 18.107s8 18.106 18 18.106c8.88 0 16.24-6.518 17.68-15.008l8.48-5.11c-.16.684-.16 1.328-.16 2.012 0 10.059 8 18.106 18 18.106s18-8.047 18-18.106c0-10.06-8-18.107-18-18.107M28.11 51.56c-1.36 4.064-5.04 7.001-9.48 7.001a9.97 9.97 0 0 1-7.071-2.946 10.09 10.09 0 0 1-2.93-7.113 10.09 10.09 0 0 1 2.93-7.113 9.97 9.97 0 0 1 7.07-2.946c4.48 0 8.12 2.977 9.48 7.041H16.75v6.036l11.36.04Zm34.52 7.001a9.97 9.97 0 0 1-7.071-2.946 10.09 10.09 0 0 1-2.93-7.113 10.09 10.09 0 0 1 2.93-7.113 9.97 9.97 0 0 1 7.07-2.946 9.97 9.97 0 0 1 7.072 2.946 10.09 10.09 0 0 1 2.929 7.113 10.09 10.09 0 0 1-2.929 7.113 9.97 9.97 0 0 1-7.071 2.946Z"/></g><defs><clipPath id="la"><path transform="translate(.75)" d="M0 0h80v80H0z"/></clipPath></defs></svg><svg viewBox="0 0 148 85" id="icons--next-btn" xmlns="http://www.w3.org/2000/svg"><path fill-rule="evenodd" clip-rule="evenodd" d="M147.5 42.435 74 84.871V71.014l49.5-28.579L74 13.856V0l73.5 42.435Zm-97 0L0 71.591v13.28l73.5-42.436L0 0v13.28l50.5 29.155Z"/></svg><svg viewBox="0 0 24 24" id="icons--phone" xmlns="http://www.w3.org/2000/svg"><path d="M22 16.92v3a2 2 0 0 1-2.18 2 19.79 19.79 0 0 1-8.63-3.07 19.5 19.5 0 0 1-6-6 19.79 19.79 0 0 1-3.07-8.67A2 2 0 0 1 4.11 2h3a2 2 0 0 1 2 1.72c.127.96.361 1.903.7 2.81a2 2 0 0 1-.45 2.11L8.09 9.91a16.001 16.001 0 0 0 6 6l1.27-1.27a2 2 0 0 1 2.11-.45c.907.339 1.85.574 2.81.7A2 2 0 0 1 22 16.92Z"/></svg><svg viewBox="0 0 81 80" id="icons--pig" xmlns="http://www.w3.org/2000/svg"><path d="M63.721 35.82a17.365 17.365 0 0 0 6.763-9.354c.344.473.668.963.97 1.47 2.078 3.472 3.196 7.659 3.196 12.649 0 7.669-2.866 13.03-5.78 16.468a23.13 23.13 0 0 1-4.54 4.107v6.356c0 .798-.155 1.59-.457 2.328a6.087 6.087 0 0 1-1.305 1.974 6.018 6.018 0 0 1-1.953 1.319 5.968 5.968 0 0 1-2.305.463h-4.3a5.134 5.134 0 0 1-3.649-1.527 5.24 5.24 0 0 1-1.511-3.685h-6.88a5.24 5.24 0 0 1-1.511 3.685A5.134 5.134 0 0 1 36.81 73.6h-4.3a5.99 5.99 0 0 1-4.257-1.781 6.112 6.112 0 0 1-1.763-4.3v-2.373a23.982 23.982 0 0 1-1.596-.609 22.343 22.343 0 0 1-7.107-4.732 34.715 34.715 0 0 1-5.521-7.405 1.699 1.699 0 0 0-1.132-.897A6.315 6.315 0 0 1 7.35 49.33a6.433 6.433 0 0 1-1.5-4.127v-6.092c0-2.929 2.098-5.427 4.954-5.907.299-.052.743-.354.953-.987.66-2.005 1.943-4.983 4.31-7.373a27.544 27.544 0 0 1 5.703-4.33c.473-.271.9-.503 1.28-.695V9.905c0-3.26 3.887-4.597 5.986-2.488 1.135 1.143 2.786 2.665 4.613 3.94 1.826 1.276 3.567 2.11 5.001 2.294a17.531 17.531 0 0 0-1.548 11.033c.623 3.325 3.145 5.427 5.511 6.421l12.715 5.317c2.37.99 5.62 1.303 8.393-.605m-37.231-.444c.912 0 1.787-.367 2.432-1.018a3.493 3.493 0 0 0 1.008-2.457c0-.922-.363-1.806-1.008-2.457a3.422 3.422 0 0 0-2.432-1.018 3.42 3.42 0 0 0-2.432 1.018 3.493 3.493 0 0 0-1.008 2.457 3.49 3.49 0 0 0 1.008 2.457 3.423 3.423 0 0 0 2.432 1.018Zm35.29-2.422a13.843 13.843 0 0 0 3.959-4.2 13.992 13.992 0 0 0 1.917-5.464 14.037 14.037 0 0 0-.51-5.934 13.937 13.937 0 0 0-2.923-5.174 13.764 13.764 0 0 0-4.798-3.462 13.64 13.64 0 0 0-11.514.32 13.786 13.786 0 0 0-4.603 3.723 13.955 13.955 0 0 0-2.637 5.327 14.036 14.036 0 0 0-.187 5.954c.087.452.236.874.447 1.268.172.325.379.626.62.904.625.73 1.465 1.3 2.38 1.685l12.714 5.317c1.686.705 3.63.774 5.136-.265Z"/></svg><svg viewBox="0 0 24 24" id="icons--pin" xmlns="http://www.w3.org/2000/svg"><path fill-rule="evenodd" clip-rule="evenodd" d="M12 23s9-6 9-13a9 9 0 1 0-18 0c0 7 9 13 9 13Zm5-13a5 5 0 1 1-10 0 5 5 0 0 1 10 0Z"/><path d="m12 23-.555.832a1 1 0 0 0 1.11 0L12 23Zm6.364-19.364-.707.707.707-.707Zm-12.728 0 .707.707-.707-.707ZM20 10c0 3.098-2.016 6.104-4.226 8.437a29.412 29.412 0 0 1-3.973 3.48 16.79 16.79 0 0 1-.27.192l-.067.046-.016.01-.003.003L12 23l.555.832h.001l.002-.002.007-.005.023-.015.082-.057c.072-.05.174-.12.302-.214a31.433 31.433 0 0 0 4.254-3.727C19.516 17.397 22 13.903 22 10h-2Zm-2.343-5.657A8 8 0 0 1 20 10h2a10 10 0 0 0-2.929-7.071l-1.414 1.414ZM12 2a8 8 0 0 1 5.657 2.343L19.07 2.93A10 10 0 0 0 12 0v2ZM6.343 4.343A8 8 0 0 1 12 2V0a10 10 0 0 0-7.071 2.929l1.414 1.414ZM4 10a8 8 0 0 1 2.343-5.657L4.93 2.93A10 10 0 0 0 2 10h2Zm8 13 .555-.832-.003-.002-.016-.01-.068-.047a26.305 26.305 0 0 1-1.252-.938 29.419 29.419 0 0 1-2.99-2.734C6.016 16.104 4 13.098 4 10H2c0 3.902 2.484 7.396 4.774 9.813a31.428 31.428 0 0 0 4.254 3.726 18.887 18.887 0 0 0 .384.27l.023.016.007.005.002.001c.001 0 .001.001.556-.831Zm0-7a6 6 0 0 0 6-6h-2a4 4 0 0 1-4 4v2Zm-6-6a6 6 0 0 0 6 6v-2a4 4 0 0 1-4-4H6Zm6-6a6 6 0 0 0-6 6h2a4 4 0 0 1 4-4V4Zm6 6a6 6 0 0 0-6-6v2a4 4 0 0 1 4 4h2Z"/></svg><svg viewBox="0 0 147 85" id="icons--prev-btn" xmlns="http://www.w3.org/2000/svg"><path fill-rule="evenodd" clip-rule="evenodd" d="M0 42.553 73.5.118v13.857L24 42.553l49.5 28.58v13.856L0 42.553Zm73 0L146.5.118v13.857L97 42.553l49.5 28.58v13.856L73 42.553Z"/></svg><svg viewBox="0 0 59 53" id="icons--qoute" xmlns="http://www.w3.org/2000/svg"><path d="M33.833 52.5v-9.591V52.5Zm0 0h.5m-.5 0h.5m0 0V52m0 .5V52m0 0h22.16m-22.16 0L56.682 9.386M53.083 2l.45-.219-.143-.292-.325.011.018.5Zm0 0 3.599 7.386M53.083 2c-6.944.253-11.805 3.157-14.583 8.712-2.778 5.556-4.167 13.195-4.167 22.917v9.28L56.682 9.386m0 0c-3.914.38-6.629 2.273-8.144 5.682-1.389 3.283-2.083 8.523-2.083 15.72h10.037m.19-21.402.048.498.717-.07-.316-.647-.45.22Zm-.19 21.402V52m0-21.212v-.5h.5v.5h-.5Zm0 21.212h.5v.5h-.5V52ZM33.833 33.647v-.018.018Zm0 0v.017m0-.017v.017m0 0v.018m0-.018v.018m0 0v.018m0-.018v.018m0 0v.018m0-.018v.018m0 0v.017m0-.017v.017m0 0v.018m0-.018v.018m0 0v.018m0-.018v.018m0 0v.018m0-.018v.018m0 0v.017m0-.017v.017m0 0v.018m0-.018v.018m0 0v.018m0-.018v.018m0 0v.018m0-.018v.018m0 0v.017m0-.017v.017m0 0v.018m0-.018v.018m0 0v.018m0-.018v.018m0 0v.018m0-.018v.018m0 0v.018m0-.018v.018m0 0v.017m0-.017v.017m0 0v.018m0-.018v.018m0 0v.018m0-.018v.018m0 0v.018m0-.018v.018m0 0v.017m0-.017v.017m0 0v.018m0-.017v.017m0 0v.018m0-.018v.018m0 0v.018m0-.018v.018m0 0v.018m0-.018v.018m0 0v.017m0-.017v.017m0 0v.018m0-.017v.017m0 0v.018m0-.018v.018m0 0v.018m0-.018v.018m0 0v.018m0-.018v.018m0 0v.017m0-.017v.017m0 0v.018m0-.017v.017m0 0v.018m0-.018v.018m0 0v.018m0-.018v.018m0 0v.018m0-.018v.018m0 0v.017m0-.017v.017m0 0v.018m0-.018v.018m0 0v.018m0-.018v.018m0 0v.018m0-.018v.018m0 0v.018m0-.018v.018m0 0v.018m0-.018v.018m0 0v.017m0-.017v.017m0 0v.018m0-.018v.018m0 0v.018m0-.018v.018m0 0v.018m0-.018v.018m0 0v.018m0-.018v.018m0 0v.018m0-.018v.018m0 0v.017m0-.017v.017m0 0v.018m0-.018v.018m0 0v.018m0-.018v.018m0 0v.018m0-.018v.018m0 0v.018m0-.018v.018m0 0v.017m0-.017v.017m0 0v.018m0-.017v.017m0 0v.018m0-.018v.018m0 0v.018m0-.018v.018m0 0v.018m0-.018v.018m0 0v.018m0-.018v.018m0 0v.018m0-.018v.018m0 0v.017m0-.017v.017m0 0v.018m0-.018v.018m0 0v.018m0-.018v.018m0 0v.018m0-.018v.018m0 0v.018m0-.018v.018m0 0v.018m0-.018v.018m0 0v.017m0-.017v.017m0 0v.018m0-.017v.017m0 0v.018m0-.018v.018m0 0v.018m0-.018v.018m0 0v.018m0-.018v.018m0 0v.018m0-.018v.018m0 0v.018m0-.018v.018m0 0v.017m0-.017v.017m0 0v.018m0-.017v.017m0 0V35m0-.018V35m0 0v.018m0-.018v.018m0 0v.018m0-.018v.018m0 0v.018m0-.018v.018m0 0v.018m0-.018v.018m0 0v.018m0-.018v.018m0 0v.017m0-.017v.017m0 0v.018m0-.017v.017m0 0v.018m0-.018v.018m0 0v.018m0-.018v.018m0 0v.018m0-.018v.018m0 0v.018m0-.018v.018m0 0v.018m0-.018v.018m0 0v.018m0-.018v.018m0 0v.018m0-.018v.018m0 0v.017m0-.017v.017m0 0v.018m0-.018v.018m0 0v.018m0-.018v.018m0 0v.018m0-.018v.018m0 0v.018m0-.018v.018m0 0v.018m0-.018v.018m0 0v.018m0-.018v.018m0 0v.018m0-.018v.018m0 0v.018m0-.018v.018m0 0v.017m0-.017v.017m0 0v.018m0-.018v.018m0 0v.018m0-.018v.018m0 0v.018m0-.018v.018m0 0v.018m0-.018v.018m0 0v.018m0-.018v.018m0 0v.018m0-.018v.018m0 0v.018m0-.018v.018m0 0v.018m0-.018v.018m0 0v.018m0-.018v.018m0 0v.018m0-.018v.018m0 0v.017m0-.017v.017m0 0v.018m0-.017v.017m0 0v.018m0-.018v.018m0 0v.018m0-.018v.018m0 0v.018m0-.018v.018m0 0v.018m0-.018v.018m0 0v.018m0-.018v.018m0 0v.018m0-.018v.018m0 0v.018m0-.018v.018m0 0v.018m0-.018v.018m0 0v.018m0-.018v.018m0 0v.018m0-.018v.018m0 0v.018m0-.018v.018m0 0v.017m0-.017v.017m0 0v.018m0-.018v.018m0 0v.018m0-.018v.018m0 0v.018m0-.018v.018m0 0v.018m0-.018v.018m0 0v.018m0-.018v.018m0 0v.018m0-.018v.018m0 0v.018m0-.018v.018m0 0v.018m0-.018v.018m0 0v.018m0-.018v.018m0 0v.018m0-.018v.018m0 0v.018m0-.018v.018m0 0v.018m0-.018v.018m0 0v.018m0-.018v.018m0 0v.018m0-.018v.018m0 0v.018m0-.018v.018m0 0v.018m0-.018v.018m0 0v.018m0-.018v.018m0 0v.018m0-.018v.018m0 0v.018m0-.018v.018m0 0v.018m0-.018v.018m0 0v.017m0-.017v.017m0 0v.019m0-.019v.019m0 0v.017m0-.017v.017m0 0v.018m0-.017v.017m0 0v.018m0-.018v.018m0 0v.018m0-.018v.018m0 0v.018m0-.018v.018m0 0v.018m0-.018v.018m0 0v.018m0-.018v.018m0 0v.018m0-.018v.018m0 0v.018m0-.018v.018m0 0v.018m0-.018v.018m0 0v.018m0-.018v.018m0 0v.018m0-.018v.018m0 0v.018m0-.018v.018m0 0v.018m0-.018v.018m0 0v.018m0-.018v.018m0 0v.018m0-.018v.018m0 0v.018m0-.018v.018m0 0v.018m0-.018v.018m0 0v.018m0-.018v.018m0 0v.018m0-.018v.018m0 0v.018m0-.018v.018m0 0v.018m0-.018v.018m0 0v.018m0-.018v.018m0 0v.018m0-.018v.018m0 0v.018m0-.018v.018m0 0v.018m0-.018v.018m0 0v.018m0-.018v.018m0 0v.018m0-.018v.018m0 0v.018m0-.018v.018m0 0v.018m0-.018v.018m0 0v.018m0-.018v.018m0 0v.018m0-.018v.018m0 0v.018m0-.018v.018m0 0v.018m0-.018v.018m0 0v.018m0-.018v.018m0 0v.018m0-.018v.018m0 0v.018m0-.018v.018m0 0v.018m0-.018v.018m0 0v.018m0-.018v.018m0 0v.018m0-.018v.018m0 0v.018m0-.018v.018m0 0v.018m0-.018v.018m0 0v.019m0-.019v.019m0 0v.017m0-.017v.017m0 0v.019m0-.018v.018m0 0v.018m0-.018v.018m0 0v.018m0-.018v.018m0 0v.018m0-.018v.018m0 0v.018m0-.018v.018m0 0v.018m0-.018v.018m0 0v.018m0-.018v.018m0 0v.018m0-.018v.018m0 0v.018m0-.018v.018m0 0v.018m0-.018v.018m0 0v.018m0-.018v.018m0 0v.018m0-.018v.018m0 0v.018m0-.018v.018m0 0v.018m0-.018v.018m0 0v.018m0-.018v.018m0 0v.018m0-.018v.018m0 0v.018m0-.018v.018m0 0v.018m0-.018v.018m0 0v.018m0-.018v.018m0 0v.018m0-.018v.018m0 0v.019m0-.019v.019m0 0v.017m0-.017v.017m0 0v.019m0-.019v.019m0 0v.018m0-.018v.018m0 0v.018m0-.018v.018m0 0v.018m0-.018v.018m0 0v.018m0-.018v.018m0 0v.018m0-.018v.018m0 0v.018m0-.018v.018m0 0v.018m0-.018v.018m0 0v.018m0-.018v.018m0 0v.018m0-.018v.018m0 0v.018m0-.018v.018m0 0v.018m0-.018v.018m0 0v.019m0-.019v.019m0 0v.018m0-.019v.019m0 0v.018m0-.018v.018m0 0v.018m0-.018v.018m0 0v.018m0-.018v.018m0 0v.018m0-.018v.018m0 0v.018m0-.018v.018m0 0v.018m0-.018v.018m0 0v.018m0-.018v.018m0 0v.018m0-.018v.018m0 0v.018m0-.018v.018m0 0v.018m0-.018v.018m0 0v.019m0-.019v.019m0 0v.018m0-.018v.018m0 0v.018m0-.018v.018m0 0v.018m0-.018v.018m0 0v.018m0-.018v.018m0 0v.018m0-.018v.018m0 0v.018m0-.018v.018m0 0v.018m0-.018v.018m0 0v.018m0-.018v.018m0 0v.019m0-.019v.019m0 0v.018m0-.018v.018m0 0v.018m0-.018v.018m0 0v.018m0-.018v.018m0 0v.018m0-.018v.018m0 0v.018m0-.018v.018m0 0v.018m0-.018v.018m0 0v.018m0-.018v.018m0 0v.018m0-.018v.018m0 0v.019m0-.019v.019m0 0v.018m0-.018v.018m0 0v.018m0-.018v.018m0 0v.018m0-.018v.018m0 0v.018m0-.018v.018m0 0v.018m0-.018v.018m0 0v.018m0-.018v.018m0 0v.019m0-.019v.019m0 0v.018m0-.018v.018m0 0v.018m0-.018v.018m0 0v.018m0-.018v.018m0 0v.018m0-.018v.018m0 0v.018m0-.018v.018m0 0v.018m0-.018v.018m0 0v.018m0-.018v.018m0 0v.019m0-.019v.019m0 0v.018m0-.018v.018m0 0v.018m0-.018v.018m0 0v.018m0-.018v.018m0 0v.018m0-.018v.018m0 0v.018m0-.018v.018m0 0v.019m0-.019v.019m0 0v.018m0-.018v.018m0 0v.018m0-.018v.018m0 0v.018m0-.018v.018m0 0v.018m0-.018v.018m0 0v.018m0-.018v.018m0 0v.019m0-.019v.019m0 0v.018m0-.018v.018m0 0v.018m0-.018v.018m0 0v.018m0-.018v.018m0 0v.018m0-.018v.018m0 0v.018m0-.018v.018m0 0v.019m0-.019v.019m0 0v.018m0-.018v.018m0 0v.018m0-.018v.018m0 0v.018m0-.018v.018m0 0v.018m0-.018v.018m0 0v.018m0-.018v.018m0 0v.019m0-.019v.019m0 0v.018m0-.018v.018m0 0v.018m0-.018v.018m0 0v.018m0-.018v.018m0 0v.018m0-.018v.018m0 0v.018m0-.018v.018m0 0v.019m0-.019v.019m0 0v.018m0-.018v.018m0 0v.018m0-.018v.018m0 0v.018m0-.018v.018m0 0v.018m0-.018v.018m0 0v.019m0-.019v.019m0 0v.018m0-.018v.018m0 0v.018m0-.018v.018m0 0v.018m0-.018v.018m0 0v.019m0-.019v.019m0 0v.018m0-.018v.018m0 0v.018m0-.018v.018m0 0v.018m0-.018v.018m0 0v.018m0-.018v.018m0 0v.019m0-.019v.019m0 0v.018m0-.018v.018m0 0v.018m0-.018v.018m0 0v.018m0-.018v.018m0 0v.018m0-.018v.018m0 0v.019m0-.019v.019m0 0v.018m0-.018v.018m0 0v.018m0-.018v.018m0 0v.018m0-.018v.018m0 0v.019m0-.019v.019m0 0v.018m0-.018v.018m0 0v.018m0-.018v.018m0 0v.018m0-.018v.018m0 0v.018m0-.018v.018m0 0v.019m0-.019v.019m0 0v.018m0-.018v.018m0 0v.018m0-.018v.018m0 0v.018m0-.018v.018m0 0v.018m0-.018v.018m0 0v.019m0-.019v.019m0 0v.018m0-.018v.018m0 0v.018m0-.018v.018m0 0v.018m0-.018v.018m0 0v.019m0-.019v.019m0 0v.018m0-.018v.018m0 0v.018m0-.018v.018m0 0v.018m0-.018v.018m0 0v.019m0-.019v.019m0 0v.018m0-.018v.018m0 0v.018m0-.018v.018m0 0v.018m0-.018v.018m0 0v.019m0-.019v.019m0 0v.018m0-.018v.018m0 0v.018m0-.018v.018m0 0v.018m0-.018v.018m0 0v.019m0-.019v.019m0 0v.018m0-.018v.018m0 0v.018m0-.018v.018m0 0v.019m0-.019v.019m0 0v.018m0-.018v.018m0 0v.018m0-.018v.018m0 0v.018m0-.018v.018m0 0v.019m0-.019v.019m0 0v.018m0-.018v.018m0 0v.018m0-.018v.018m0 0v.019m0-.019v.019m0 0v.018m0-.019v.019m0 0v.018m0-.018v.018m0 0v.018m0-.018v.018m0 0v.019m0-.019v.019m0 0v.018m0-.018v.018m0 0v.018m0-.018v.018m0 0v.018m0-.018v.018m0 0v.019m0-.019v.019m0 0v.018m0-.018v.018m0 0v.018m0-.018v.018m0 0v.019m0-.019v.019m0 0v.018m0-.018v.018m0 0v.018m0-.018v.018m0 0v.019m0-.019v.019m0 0v.018m0-.019v.019m0 0v.018m0-.018v.018m0 0v.018m0-.018v.018m0 0v.019m0-.019v.019m0 0v.018m0-.018v.018m0 0v.018m0-.018v.018m0 0v.019m0-.019v.019m0 0v.018m0-.018v.018m0 0v.018m0-.018v.018m0 0v.019m0-.019v.019m0 0v.018m0-.019v.019m0 0v.018m0-.018v.018m0 0v.018m0-.018v.018m0 0v.019m0-.019v.019m0 0v.018m0-.018v.018m0 0v.018m0-.018v.018m0 0v.019m0-.019v.019m0 0v.018m0-.018v.018m0 0v.018m0-.018v.018m0 0v.019m0-.019v.019m0 0v.018m0-.018v.018m0 0v.018m0-.018v.018m0 0v.019m0-.019v.019m0 0v.018m0-.018v.018m0 0v.018m0-.018v.018m0 0v.019m0-.019v.019m0 0v.018m0-.018v.018m0 0v.018m0-.018v.018m0 0v.019m0-.019v.019m0 0v.018m0-.018v.018m0 0v.018m0-.018v.018m0 0v.019m0-.019v.019m0 0v.018m0-.018v.018m0 0v.018m0-.018v.018m0 0v.019m0-.019v.019m0 0v.018m0-.018v.018m0 0v.018m0-.018v.018m0 0v.019m0-.019v.019m0 0v.018m0-.018v.018m0 0v.018m0-.018v.018m0 0v.019m0-.019v.019m0 0v.018-.018ZM.5 52v.5h23.16V30.288H13.621c.032-6.921.726-11.91 2.041-15.02 1.438-3.232 3.988-5.022 7.734-5.384l.716-.07-.315-.647L20.2 1.781l-.143-.292-.325.011c-7.1.259-12.142 3.247-15.013 8.989C1.893 16.142.5 23.869.5 33.629V52Z"/></svg><svg viewBox="0 0 81 80" id="icons--settings" xmlns="http://www.w3.org/2000/svg"><path d="M31.083 73.333 29.75 62.667a12.592 12.592 0 0 1-2.04-1 28.392 28.392 0 0 1-1.877-1.25l-9.916 4.166L6.75 48.75l8.583-6.5a7.954 7.954 0 0 1-.083-1.123v-2.25c0-.363.028-.738.083-1.127l-8.583-6.5 9.167-15.833 9.916 4.166c.611-.444 1.25-.86 1.917-1.25a16.771 16.771 0 0 1 2-1l1.333-10.666h18.334l1.333 10.666c.722.278 1.403.612 2.043 1 .64.39 1.265.806 1.874 1.25l9.916-4.166L73.75 31.25l-8.583 6.5c.055.389.083.764.083 1.127v2.246c0 .363-.056.738-.167 1.127l8.584 6.5L64.5 64.583l-9.833-4.166c-.611.444-1.25.86-1.917 1.25-.667.389-1.333.722-2 1l-1.333 10.666H31.083Zm9.334-21.666c3.222 0 5.972-1.14 8.25-3.417 2.277-2.278 3.416-5.028 3.416-8.25 0-3.222-1.139-5.972-3.416-8.25-2.278-2.278-5.028-3.417-8.25-3.417-3.278 0-6.043 1.14-8.294 3.417-2.25 2.278-3.375 5.028-3.373 8.25.002 3.222 1.128 5.972 3.377 8.25 2.249 2.278 5.012 3.417 8.29 3.417Z"/></svg><svg viewBox="0 0 81 80" id="icons--star" xmlns="http://www.w3.org/2000/svg"><path d="m20.5 71.333 5.417-23.416L7.75 32.167l24-2.084L41.083 8l9.334 22.083 24 2.084-18.167 15.75 5.417 23.416-20.584-12.416L20.5 71.333Z"/></svg><svg viewBox="0 0 30 30" id="icons--x" xmlns="http://www.w3.org/2000/svg"><path d="M24.691 5.824a1.251 1.251 0 0 0-1.882-1.646l-6.388 7.3L11 4.25a1.25 1.25 0 0 0-1-.5H5a1.25 1.25 0 0 0-1 2l8.046 10.727-6.737 7.7a1.25 1.25 0 0 0 1.882 1.647l6.388-7.302L19 25.75a1.25 1.25 0 0 0 1 .5h5a1.25 1.25 0 0 0 1-2l-8.046-10.727 6.737-7.7Z"/></svg><svg viewBox="0 0 30 30" id="icons--youtube" xmlns="http://www.w3.org/2000/svg"><path d="M12.5 18.75 18.988 15 12.5 11.25v7.5Zm14.45-9.787c.163.587.275 1.375.35 2.375.087 1 .125 1.862.125 2.612L27.5 15c0 2.738-.2 4.75-.55 6.038-.313 1.125-1.037 1.85-2.162 2.162-.588.163-1.663.275-3.313.35a83.312 83.312 0 0 1-4.488.125L15 23.75c-5.238 0-8.5-.2-9.787-.55-1.125-.313-1.85-1.037-2.163-2.162-.162-.588-.275-1.375-.35-2.375-.088-1-.125-1.863-.125-2.613L2.5 15c0-2.738.2-4.75.55-6.037.313-1.125 1.038-1.85 2.163-2.163.587-.162 1.662-.275 3.312-.35a83.312 83.312 0 0 1 4.487-.125L15 6.25c5.238 0 8.5.2 9.788.55 1.125.313 1.85 1.038 2.162 2.163Z"/></svg><svg viewBox="0 0 220 60" id="logo" xmlns="http://www.w3.org/2000/svg"><path fill-rule="evenodd" clip-rule="evenodd" d="M18.182 1.113 0 0v5.38l10.57.755-8.321 1.486.326 1.827 15.533-2.774.074.005V1.113Zm6.363 2.036c2.263 1.04 4.195 3.578 5.416 8.605 1.048 4.316 2.275 5.653 3.03 6.1.615.364 1.094.342 1.906.304.294-.013.63-.029 1.034-.029v3.463c-.097 0-.23.01-.394.02-.897.06-2.693.179-4.31-.778-1.995-1.18-3.521-3.692-4.631-8.262-1.112-4.58-2.633-5.88-3.496-6.276a2.74 2.74 0 0 0-1.321-.23c-.217.01-.42.038-.637.07l-.058.01a5.195 5.195 0 0 1-.738.074V2.757h-.016c0-.002.018-.004.073-.012l.227-.034c.24-.036.58-.084.973-.104a6.199 6.199 0 0 1 2.942.542Zm36.303 16.764c0 .491-.03.953-.09 1.4l3.027 2.35c.287.209.362.58.181.908l-2.892 4.94a.723.723 0 0 1-.89.328l-3.6-1.428a10.369 10.369 0 0 1-2.44 1.398l-.543 3.78a.7.7 0 0 1-.708.61h-5.786c-.361 0-.648-.253-.723-.61l-.542-3.78A10.681 10.681 0 0 1 43.4 28.41l-3.6 1.429c-.332.104-.709 0-.89-.327l-2.892-4.94a.722.722 0 0 1 .18-.909l3.059-2.35a8.61 8.61 0 0 1-.106-1.4c0-.46.06-.952.136-1.398l-3.058-2.352c-.302-.208-.362-.595-.181-.907l2.877-4.94a.723.723 0 0 1 .89-.328l3.6 1.428a10.908 10.908 0 0 1 2.44-1.398l.543-3.78a.71.71 0 0 1 .708-.61h5.786a.72.72 0 0 1 .723.61l.542 3.78c.89.357 1.688.833 2.441 1.398l3.6-1.428a.744.744 0 0 1 .89.327l2.892 4.94a.722.722 0 0 1-.18.908l-3.059 2.352c.076.446.106.922.106 1.398Zm-16.272 0c0 2.947 2.44 5.358 5.424 5.358 2.983 0 5.424-2.411 5.424-5.358 0-2.946-2.44-5.357-5.424-5.357-2.983 0-5.424 2.411-5.424 5.357ZM62.88 32.617c0 2.152-2.743 5.844-5.18 5.844-1.876 0-3.479-1.034-4.117-2.491a16.072 16.072 0 0 1-3.174.327c-1.353 0-2.65-.186-3.883-.48-.596 1.53-2.24 2.63-4.175 2.63-2.385 0-4.88-3.94-4.984-6.125-2.562-.809-4.033-.146-4.033 5.057 0 2.34 1.216 3.864 2.511 5.487 1.476 1.849 3.053 3.826 3.053 7.283.724.98 1.376 2.003 2.012 3v.001c1.942 3.049 3.737 5.865 7.005 6.523.317.064.796-.122 1.283-.31.433-.169.873-.34 1.211-.34.334 0 .804.167 1.273.332.541.192 1.082.383 1.413.318 3.237-.633 4.819-3.295 6.62-6.33.62-1.043 1.266-2.13 2.014-3.194 0-3.92 1.618-5.93 3.078-7.744 1.2-1.491 2.294-2.85 2.294-5.026 0-5.451-1.527-5.919-4.227-4.931.004.054.006.11.006.169Zm-6.907 11.688c0 .362-.157.286-.398.17-.158-.077-.352-.17-.561-.17h-.026c-.56.814-2.14 2.381-4.003 2.381-1.793 0-3.325-1.452-3.936-2.286-.172.023-.33.099-.462.163-.241.116-.398.192-.398-.17 0-.597.429-1.082.959-1.082s.96.485.96 1.082a.633.633 0 0 1-.017.162c.755.499 1.774 1.049 2.894 1.049 1.23 0 2.339-.583 3.11-1.08-.026-.04-.04-.11-.04-.219 0-.598.429-1.082.959-1.082s.959.484.959 1.082Zm-1.989 9.013-.378-.061c.205-.157.47-.595.716-.998.357-.587.67-1.102.685-.574.01.378.096.772.191 1.1 2.272-1.256 3.845-3.167 3.845-4.367 0-.903-.888-.424-2.294.334l-.193.104c.015.514.058 1.37.184 1.943.108.486-.328.017-.834-.527a12.505 12.505 0 0 0-.704-.719c-1.348.65-2.943 1.246-4.6 1.246-1.598 0-3.21-.553-4.62-1.174-.25.19-.576.54-.877.864-.506.543-.943 1.012-.835.526.142-.639.179-1.63.188-2.107l-.205-.1c-1.603-.79-2.669-1.314-2.669-.39 0 1.266 2.002 3.323 4.647 4.568.117-.36.241-.843.253-1.3.015-.53.328-.014.685.573.245.403.512.841.716.998l-.361.058c.526.025 1.069-.05 1.617-.125.484-.067.973-.135 1.46-.135.49 0 .974.084 1.448.167.67.117 1.32.23 1.935.096ZM70.04 11.754c1.22-5.027 3.153-7.566 5.416-8.605a6.198 6.198 0 0 1 2.942-.542c.393.02.733.068.973.104l.227.034.073.011h-.016V6.22c-.26 0-.573-.049-.739-.075l-.057-.009a6.443 6.443 0 0 0-.637-.07c-.422-.022-.865.021-1.32.23-.864.397-2.385 1.695-3.497 6.276-1.11 4.57-2.636 7.081-4.63 8.262-1.618.957-3.414.838-4.31.778-.164-.01-.298-.02-.395-.02V18.13c.403 0 .74.016 1.034.03.812.037 1.29.059 1.906-.305.755-.447 1.982-1.784 3.03-6.1ZM100 0 81.818 1.113V6.68l.074-.005 15.533 2.774.326-1.827-8.32-1.486L100 5.38V0ZM31.98 33.041l3.085-6.201-1.948-3.463-5.183-1.686-1.066 7.086-12.582 18.626 9.74 7.792 7.954-3.463V33.04Zm33.768-6.107 3.085 6.2v18.692l7.954 3.463 9.74-7.792L73.945 28.87l-1.066-7.086-5.183 1.686-1.948 3.463Z"/><path d="M121.008 7.955c.128-.021.715-.032 1.76-.032.661.021 1.099.053 1.312.096.213.043.491.16.832.352.469.256.789.544.96.864.171.299.256.715.256 1.248 0 1.024-.331 2.09-.992 3.2-.661 1.088-1.461 1.92-2.4 2.496-.96.576-1.643.864-2.048.864-.149 0-.224-.053-.224-.16 0-.15.139-.373.416-.672a14.213 14.213 0 0 0 1.76-2.432c.533-.917.8-1.579.8-1.984 0-.192-.075-.288-.224-.288-.021 0-.224.021-.608.064-1.259.15-2.635.63-4.128 1.44-1.493.81-2.752 1.77-3.776 2.88-.491.512-.736.821-.736.928 0 .043.043.15.128.32.32.555 1.099.992 2.336 1.312 1.259.32 3.285.608 6.08.864 3.285.32 5.429.576 6.432.768.576.107 1.205.32 1.888.64.704.299 1.131.555 1.28.768.149.235.224.512.224.832 0 .853-.299 1.845-.896 2.976-.427.832-1.376 1.525-2.848 2.08-1.408.512-3.115.95-5.12 1.312-2.005.341-3.712.512-5.12.512-.341 0-.725-.021-1.152-.064-.619-.064-1.131-.256-1.536-.576-.384-.32-.725-.779-1.024-1.376-.299-.597-.448-1.11-.448-1.536 0-.192.032-.33.096-.416.256-.384 1.653-.587 4.192-.608 1.771-.043 3.136-.139 4.096-.288.768-.128 1.152-.224 1.152-.288 0-.064-.907-.192-2.72-.384-3.669-.341-6.187-.917-7.552-1.728-.747-.448-1.429-1.077-2.048-1.888-.597-.81-1.003-1.653-1.216-2.528a3.615 3.615 0 0 1-.128-.832c0-.235.043-.523.128-.864.384-1.6 1.493-3.104 3.328-4.512a17.551 17.551 0 0 1 7.488-3.36Zm15.913 10.944c-.896-1.963-1.398-2.944-1.504-2.944-.022 0-.107 1.077-.256 3.232-.128 2.155-.192 3.339-.192 3.552 0 .064.362-.192 1.088-.768.746-.576 1.216-.96 1.408-1.152.085-.128.128-.213.128-.256 0-.128-.224-.683-.672-1.664Zm-3.136-8.544c.469-.107.842-.16 1.12-.16.789 0 1.461.288 2.016.864.725.768 2.197 3.477 4.416 8.128.362.81.544 1.237.544 1.28 0 .085.277.81.832 2.176.554 1.344.906 2.165 1.056 2.464.17.341.426.79.768 1.344.277.47.416.843.416 1.12 0 .235-.011.427-.032.576a5.481 5.481 0 0 1-.512 1.984c-.299.661-.587.992-.864.992-.171 0-.427-.15-.768-.448a5.125 5.125 0 0 1-.896-1.024c-.342-.49-.768-1.216-1.28-2.176-.512-.96-.875-1.717-1.088-2.272l-.352-.928-.96.512c-.875.427-1.611.747-2.208.96-.854.363-1.291.555-1.312.576-.086.085-.182.64-.288 1.664-.192 1.6-.427 2.57-.704 2.912a.556.556 0 0 1-.16.16c-.022.021-.054.021-.096 0a2.15 2.15 0 0 0-.16-.128c-.15-.15-.288-.373-.416-.672-.235-.683-.395-4.33-.48-10.944a225.79 225.79 0 0 1-.032-4.192c0-1.472.042-2.517.128-3.136.085-.619.202-1.013.352-1.184.17-.17.49-.32.96-.448Zm24.113-1.92a4.1 4.1 0 0 1 .992-.128c.277 0 .458.053.544.16.149.15.277.224.384.224.32 0 .65.33.992.992.064.15.992 2.752 2.784 7.808 2.346 6.741 3.701 10.368 4.064 10.88.17.277.256.533.256.768a.896.896 0 0 1-.032.192v.224a3.665 3.665 0 0 1-.096.672c-.043.15-.107.299-.192.448-.086.17-.16.341-.224.512-.278.853-.619 1.28-1.024 1.28-.192 0-.48-.139-.864-.416-.555-.448-1.131-1.344-1.729-2.688-.575-1.344-1.589-4.075-3.039-8.192-1.28-3.733-1.974-5.6-2.08-5.6-.022 0-.107.405-.256 1.216-.128.79-.267 1.728-.416 2.816a107 107 0 0 0-.352 2.784c-.235 1.984-.406 3.243-.512 3.776-.107.512-.342 1.163-.704 1.952-.32.704-.64 1.056-.96 1.056-.256 0-.576-.16-.96-.48-.875-.683-2.379-3.104-4.512-7.264l-.96-1.856-.096 2.048c-.128 2.645-.352 4.875-.672 6.688-.299 1.792-.619 2.688-.96 2.688-.235 0-.395-.256-.48-.768-.086-.49-.139-1.685-.16-3.584-.128-6.912-.64-12.075-1.536-15.488a2.603 2.603 0 0 1-.128-.768c0-.256.106-.448.32-.576.213-.15.597-.277 1.152-.384.49-.107.842-.16 1.056-.16.149 0 .266.043.352.128.149.15.309.224.48.224.149 0 .309.15.48.448.17.277.522 1.024 1.056 2.24.512 1.152 1.333 2.88 2.464 5.184l1.568 3.072.16-1.184c.149-1.045.394-2.581.736-4.608.362-2.048.597-3.317.704-3.808.17-.619.341-1.12.512-1.504.17-.32.341-.523.512-.608.192-.107.65-.245 1.376-.416Zm18.553 2.4c.107-.107.416-.224.928-.352.512-.128.939-.192 1.28-.192.256 0 .416.043.48.128.043.107.149.16.32.16.363 0 .843.64 1.44 1.92 1.28 2.752 1.92 5.355 1.92 7.808 0 1.664-.331 3.19-.992 4.576-.085.192-.16.363-.224.512-.064.15-.107.267-.128.352l-.032.128c.021 0 .011.032-.032.096a3.745 3.745 0 0 1-.352.544c-.896 1.259-2.187 1.888-3.872 1.888a5.8 5.8 0 0 1-1.28-.16c-2.091-.555-3.947-2.027-5.568-4.416-1.621-2.41-2.432-4.907-2.432-7.488 0-2.048.32-3.072.96-3.072h.096c.149.021.245.064.288.128.043.064.075.213.096.448.192 3.157 1.152 5.813 2.88 7.968.853 1.088 1.739 1.856 2.656 2.304.725.363 1.397.544 2.016.544h.128a.25.25 0 0 1 .096-.032c.363-.085.747-.373 1.152-.864.427-.49.672-.95.736-1.376a10.61 10.61 0 0 0 .128-1.728c0-1.941-.64-4.235-1.92-6.88-.597-1.259-.896-2.101-.896-2.528 0-.192.043-.33.128-.416Zm16.09 1.152a5.91 5.91 0 0 0-2.56-.576c-1.451 0-2.635.49-3.552 1.472a2.52 2.52 0 0 0-.608 1.056c-.107.363-.16.917-.16 1.664v.416c0 .512.064 1.323.192 2.432.149 1.088.266 1.696.352 1.824h.032c.106 0 .394-.181.864-.544.192-.15.544-.405 1.056-.768.533-.384.832-.597.896-.64 1.152-.832 2.112-1.739 2.88-2.72.768-1.003 1.194-1.877 1.28-2.624l.064-.672-.736-.32Zm-4.096-4.352a10.958 10.958 0 0 1 2.4-.288c.533 0 .981.043 1.344.128.49.107 1.088.352 1.792.736.725.363 1.269.715 1.632 1.056.917.853 1.376 1.973 1.376 3.36 0 1.237-.384 2.677-1.152 4.32-.811 1.664-1.984 3.136-3.52 4.416l-1.216.992 1.568.64c2.986 1.216 4.768 1.824 5.344 1.824.213 0 .416.075.608.224.213.128.373.203.48.224.149.043.234.107.256.192.042.085.064.267.064.544 0 .725-.235 1.557-.704 2.496-.299.597-.683.896-1.152.896-.555 0-2.144-.512-4.768-1.536-2.624-1.045-4.214-1.792-4.768-2.24-.214-.192-.342-.267-.384-.224 0 .064.16.64.48 1.728.426 1.387.64 2.272.64 2.656a.982.982 0 0 1-.032.288c-.043.128-.086.192-.128.192-.022.021-.086-.021-.192-.128-.15-.15-.63-1.003-1.44-2.56-.811-1.579-1.43-2.88-1.856-3.904-1.515-3.584-2.272-6.645-2.272-9.184 0-.939.106-1.728.32-2.368.405-1.301 1.013-2.293 1.824-2.976.81-.683 1.962-1.184 3.456-1.504Zm15.569 11.264c-.896-1.963-1.397-2.944-1.504-2.944-.021 0-.106 1.077-.256 3.232-.128 2.155-.192 3.339-.192 3.552 0 .064.363-.192 1.088-.768.747-.576 1.216-.96 1.408-1.152.086-.128.128-.213.128-.256 0-.128-.224-.683-.672-1.664Zm-3.136-8.544c.47-.107.843-.16 1.12-.16.79 0 1.462.288 2.016.864.726.768 2.198 3.477 4.416 8.128.363.81.544 1.237.544 1.28 0 .085.278.81.832 2.176.555 1.344.907 2.165 1.056 2.464.171.341.427.79.768 1.344.278.47.416.843.416 1.12 0 .235-.01.427-.032.576a5.44 5.44 0 0 1-.512 1.984c-.298.661-.586.992-.864.992-.17 0-.426-.15-.768-.448a5.156 5.156 0 0 1-.896-1.024c-.341-.49-.768-1.216-1.28-2.176-.512-.96-.874-1.717-1.088-2.272l-.352-.928-.96.512c-.874.427-1.61.747-2.208.96-.853.363-1.29.555-1.312.576-.085.085-.181.64-.288 1.664-.192 1.6-.426 2.57-.704 2.912a.544.544 0 0 1-.16.16c-.021.021-.053.021-.096 0a1.774 1.774 0 0 0-.16-.128c-.149-.15-.288-.373-.416-.672-.234-.683-.394-4.33-.48-10.944a234.97 234.97 0 0 1-.032-4.192c0-1.472.043-2.517.128-3.136.086-.619.203-1.013.352-1.184.171-.17.491-.32.96-.448Zm15.505-6.976a3.447 3.447 0 0 1 1.088-.192c.342 0 .64.064.896.192.192.085.31.181.352.288.043.085.064.31.064.672 0 .405-.138 1.003-.416 1.792-.256.768-.554 1.44-.896 2.016-.512.896-1.173 1.792-1.984 2.688-.81.896-1.514 1.515-2.112 1.856-.469.277-.821.416-1.056.416-.17 0-.256-.096-.256-.288 0-.256.224-.757.672-1.504a25.75 25.75 0 0 0 1.984-3.808c.555-1.323.832-2.304.832-2.944 0-.405.043-.672.128-.8.107-.15.342-.277.704-.384Zm-3.168 12.512a.693.693 0 0 1 .64-.192c.214.021.384.16.512.416s.416 1.067.864 2.432c1.216 3.584 2.134 5.888 2.752 6.912.363.619.544 1.13.544 1.536 0 .277-.064.555-.192.832-.448 1.301-.874 1.952-1.28 1.952-.192 0-.437-.139-.736-.416a4.472 4.472 0 0 1-.736-.992c-.384-.661-.874-2.304-1.472-4.928-.597-2.645-.949-4.693-1.056-6.144a6.611 6.611 0 0 1-.032-.704c0-.341.064-.576.192-.704ZM122.96 32.435a4.1 4.1 0 0 1 .992-.128c.277 0 .459.053.544.16.149.15.277.224.384.224.32 0 .651.33.992.992.064.15.992 2.752 2.784 7.808 2.347 6.741 3.701 10.368 4.064 10.88.171.277.256.533.256.768a.896.896 0 0 1-.032.192v.224a3.497 3.497 0 0 1-.096.672c-.043.15-.107.299-.192.448-.085.17-.16.341-.224.512-.277.853-.619 1.28-1.024 1.28-.192 0-.48-.139-.864-.416-.555-.448-1.131-1.344-1.728-2.688-.576-1.344-1.589-4.075-3.04-8.192-1.28-3.733-1.973-5.6-2.08-5.6-.021 0-.107.405-.256 1.216-.128.79-.267 1.728-.416 2.816a111.547 111.547 0 0 0-.352 2.784c-.235 1.984-.405 3.243-.512 3.776-.107.512-.341 1.163-.704 1.952-.32.704-.64 1.056-.96 1.056-.256 0-.576-.16-.96-.48-.875-.683-2.379-3.104-4.512-7.264l-.96-1.856-.096 2.048c-.128 2.645-.352 4.875-.672 6.688-.299 1.792-.619 2.688-.96 2.688-.235 0-.395-.256-.48-.768-.085-.49-.139-1.685-.16-3.584-.128-6.912-.64-12.075-1.536-15.488a2.637 2.637 0 0 1-.128-.768.63.63 0 0 1 .32-.576c.213-.15.597-.277 1.152-.384.491-.107.843-.16 1.056-.16.149 0 .267.043.352.128.149.15.309.224.48.224.149 0 .309.15.48.448.171.277.523 1.024 1.056 2.24.512 1.152 1.333 2.88 2.464 5.184l1.568 3.072.16-1.184c.149-1.045.395-2.581.736-4.608.363-2.048.597-3.317.704-3.808.171-.619.341-1.12.512-1.504.171-.32.341-.523.512-.608.192-.107.651-.245 1.376-.416Zm17.21 8.768c-.448-.213-1.014-.352-1.696-.416h-.288a1.366 1.366 0 0 0-.224-.032c-.32 0-.566.064-.736.192-.171.107-.395.373-.672.8-.15.213-.32.32-.512.32a.483.483 0 0 1-.384-.192c-.107-.128-.192-.192-.256-.192-.086 0-.128.16-.128.48 0 .256.01.47.032.64.106 1.365.49 2.73 1.152 4.096.405.853.885 1.579 1.44 2.176.554.597 1.109.981 1.664 1.152.362.107.618.16.768.16.32 0 .672-.192 1.055-.576.897-.896 1.345-2.133 1.345-3.712 0-.747-.139-1.59-.416-2.528-.15-.448-.427-.896-.832-1.344a4.495 4.495 0 0 0-1.312-1.024Zm-4.512-4.704c.32-.192.586-.288.8-.288a.25.25 0 0 1 .096.032h.064c.192.064.821.096 1.888.096l1.568.032 1.311.672c2.326 1.152 3.883 3.083 4.673 5.792.192.683.288 1.717.288 3.104 0 1.323-.128 2.368-.384 3.136-.896 2.624-2.038 4.256-3.424 4.896-.448.192-1.067.288-1.856.288-.534 0-.907-.032-1.12-.096-.214-.043-.544-.17-.992-.384-1.472-.747-2.784-2.112-3.936-4.096-1.131-2.005-1.696-4.139-1.696-6.4 0-1.152.192-2.325.576-3.52.576-1.75 1.29-2.837 2.144-3.264Zm29.598-5.696c.362-.064.629-.096.8-.096.256 0 .586.085.992.256l.576.288-.032.864a5.648 5.648 0 0 1-.096.8 2.507 2.507 0 0 1-.256.64 28.36 28.36 0 0 0-.256.576c-.15.341-.31.587-.48.736-.15.128-.438.267-.864.416-.086.021-.32.107-.704.256-.363.128-.832.299-1.408.512-.576.192-1.11.373-1.6.544-2.006.725-3.008 1.173-3.008 1.344 0 .15.096.95.288 2.4.192 1.43.394 2.987.608 4.672.234 1.664.384 2.773.448 3.328.149 1.536.224 2.624.224 3.264 0 .533-.043.928-.128 1.184l-.16.384-.32-.32c-.192-.17-.395-.523-.608-1.056-.534-1.408-1.43-4.715-2.688-9.92-.47-1.963-.726-2.965-.768-3.008-.022-.021-.672.203-1.952.672-2.027.725-3.222 1.163-3.584 1.312l-1.696.576-.512-.384c-.299-.213-.64-.597-1.024-1.152-.363-.576-.576-1.045-.64-1.408a1.482 1.482 0 0 1-.032-.352c0-.277.149-.523.448-.736.32-.235 1.002-.608 2.048-1.12 3.712-1.77 6.24-2.656 7.584-2.656.341 0 1.301-.288 2.88-.864 2.965-1.11 4.938-1.76 5.92-1.952Zm9.601 10.4c-.448-.213-1.013-.352-1.696-.416h-.288a1.352 1.352 0 0 0-.224-.032c-.32 0-.565.064-.736.192-.171.107-.395.373-.672.8-.149.213-.32.32-.512.32a.486.486 0 0 1-.384-.192c-.107-.128-.192-.192-.256-.192-.085 0-.128.16-.128.48 0 .256.011.47.032.64.107 1.365.491 2.73 1.152 4.096.405.853.885 1.579 1.44 2.176.555.597 1.109.981 1.664 1.152.363.107.619.16.768.16.32 0 .672-.192 1.056-.576.896-.896 1.344-2.133 1.344-3.712 0-.747-.139-1.59-.416-2.528-.149-.448-.427-.896-.832-1.344a4.482 4.482 0 0 0-1.312-1.024Zm-4.512-4.704c.32-.192.587-.288.8-.288a.25.25 0 0 1 .096.032h.064c.192.064.821.096 1.888.096l1.568.032 1.312.672c2.325 1.152 3.883 3.083 4.672 5.792.192.683.288 1.717.288 3.104 0 1.323-.128 2.368-.384 3.136-.896 2.624-2.037 4.256-3.424 4.896-.448.192-1.067.288-1.856.288-.533 0-.907-.032-1.12-.096-.213-.043-.544-.17-.992-.384-1.472-.747-2.784-2.112-3.936-4.096-1.131-2.005-1.696-4.139-1.696-6.4 0-1.152.192-2.325.576-3.52.576-1.75 1.291-2.837 2.144-3.264Zm20.414-.512a5.906 5.906 0 0 0-2.56-.576c-1.45 0-2.634.49-3.552 1.472-.298.32-.501.672-.608 1.056-.106.363-.16.917-.16 1.664v.416c0 .512.064 1.323.192 2.432.15 1.088.267 1.696.352 1.824h.032c.107 0 .395-.181.864-.544.192-.15.544-.405 1.056-.768.534-.384.832-.597.896-.64 1.152-.832 2.112-1.739 2.88-2.72.768-1.003 1.195-1.877 1.28-2.624l.064-.672-.736-.32Zm-4.096-4.352a10.972 10.972 0 0 1 2.4-.288c.534 0 .982.043 1.344.128.491.107 1.088.352 1.792.736.726.363 1.27.715 1.632 1.056.918.853 1.376 1.973 1.376 3.36 0 1.237-.384 2.677-1.152 4.32-.81 1.664-1.984 3.136-3.52 4.416l-1.216.992 1.568.64c2.987 1.216 4.768 1.824 5.344 1.824.214 0 .416.075.608.224.214.128.374.203.48.224.15.043.235.107.256.192.043.085.064.267.064.544 0 .725-.234 1.557-.704 2.496-.298.597-.682.896-1.152.896-.554 0-2.144-.512-4.768-1.536-2.624-1.045-4.213-1.792-4.768-2.24-.213-.192-.341-.267-.384-.224 0 .064.16.64.48 1.728.427 1.387.64 2.272.64 2.656 0 .128-.01.224-.032.288-.042.128-.085.192-.128.192-.021.021-.085-.021-.192-.128-.149-.15-.629-1.003-1.44-2.56-.81-1.579-1.429-2.88-1.856-3.904-1.514-3.584-2.272-6.645-2.272-9.184 0-.939.107-1.728.32-2.368.406-1.301 1.014-2.293 1.824-2.976.811-.683 1.963-1.184 3.456-1.504Zm21.97.32c.128-.021.715-.032 1.76-.032.661.021 1.099.053 1.312.096.213.043.491.16.832.352.469.256.789.544.96.864.171.299.256.715.256 1.248 0 1.024-.331 2.09-.992 3.2-.661 1.088-1.461 1.92-2.4 2.496-.96.576-1.643.864-2.048.864-.149 0-.224-.053-.224-.16 0-.15.139-.373.416-.672a14.213 14.213 0 0 0 1.76-2.432c.533-.917.8-1.579.8-1.984 0-.192-.075-.288-.224-.288-.021 0-.224.021-.608.064-1.259.15-2.635.63-4.128 1.44-1.493.81-2.752 1.77-3.776 2.88-.491.512-.736.821-.736.928 0 .043.043.15.128.32.32.555 1.099.992 2.336 1.312 1.259.32 3.285.608 6.08.864 3.285.32 5.429.576 6.432.768.576.107 1.205.32 1.888.64.704.299 1.131.555 1.28.768.149.235.224.512.224.832 0 .853-.299 1.845-.896 2.976-.427.832-1.376 1.525-2.848 2.08-1.408.512-3.115.95-5.12 1.312-2.005.341-3.712.512-5.12.512-.341 0-.725-.021-1.152-.064-.619-.064-1.131-.256-1.536-.576-.384-.32-.725-.779-1.024-1.376-.299-.597-.448-1.11-.448-1.536 0-.192.032-.33.096-.416.256-.384 1.653-.587 4.192-.608 1.771-.043 3.136-.139 4.096-.288.768-.128 1.152-.224 1.152-.288 0-.064-.907-.192-2.72-.384-3.669-.341-6.187-.917-7.552-1.728-.747-.448-1.429-1.077-2.048-1.888-.597-.81-1.003-1.653-1.216-2.528a3.615 3.615 0 0 1-.128-.832c0-.235.043-.523.128-.864.384-1.6 1.493-3.104 3.328-4.512a17.552 17.552 0 0 1 7.488-3.36Z"/></svg><svg viewBox="0 0 900 537" id="logo-large" xmlns="http://www.w3.org/2000/svg"><path fill-rule="evenodd" clip-rule="evenodd" d="M899.593 0 736.121 10.008v50.043l.663-.048 139.658 24.94 2.932-16.422-74.812-13.359 95.031-6.788V0ZM163.971 10.008.5 0v48.374l95.03 6.788-74.811 13.36 2.932 16.42 139.658-24.939.662.048V10.008Zm57.212 18.304c20.348 9.344 37.72 32.168 48.696 77.371 9.421 38.796 20.448 50.818 27.238 54.836 5.534 3.275 9.841 3.076 17.138 2.739 2.64-.122 5.672-.262 9.296-.262v31.138c-.873 0-2.074.079-3.544.177-8.06.536-24.209 1.609-38.748-6.996-17.937-10.615-31.661-33.198-41.638-74.285-10-41.181-23.672-52.858-31.431-56.421-4.097-1.881-8.079-2.268-11.877-2.074-1.951.1-3.782.346-5.723.636l-.265.04-.255.04c-1.484.231-4.302.67-6.638.67V24.783h-.046c-.06 0-.101 0-.101-.003-.001-.008.162-.031.654-.102.415-.06 1.063-.155 2.043-.301 2.156-.323 5.216-.76 8.744-.94 7.162-.364 16.5.303 26.457 4.875ZM547.576 179.04c0 4.415-.271 8.563-.813 12.576l27.228 21.14c2.573 1.873 3.251 5.218 1.625 8.161l-26.008 44.42c-1.625 2.943-5.012 4.013-7.992 2.943l-32.374-12.844c-6.638 5.084-13.953 9.365-21.945 12.577l-4.876 33.983c-.407 3.211-3.116 5.486-6.367 5.486h-52.016c-3.251 0-5.824-2.275-6.502-5.486l-4.876-33.983c-7.992-3.212-15.172-7.493-21.945-12.577l-32.374 12.844c-2.98.937-6.367 0-7.992-2.943l-26.008-44.42a6.486 6.486 0 0 1-.666-4.368 6.545 6.545 0 0 1 2.291-3.793l27.498-21.14c-.677-4.013-.948-8.429-.948-12.576 0-4.148.542-8.563 1.219-12.577l-27.498-21.139c-2.709-1.873-3.251-5.352-1.625-8.162l25.872-44.419c1.626-2.943 5.012-4.014 7.992-2.943l32.375 12.844c6.637-4.95 13.952-9.366 21.944-12.577l4.877-33.983c.542-3.211 3.115-5.486 6.366-5.486h52.016a6.605 6.605 0 0 1 4.281 1.552 6.456 6.456 0 0 1 2.221 3.934l4.877 33.983c7.992 3.211 15.171 7.493 21.944 12.577L541.752 89.8a6.687 6.687 0 0 1 4.541.028 6.592 6.592 0 0 1 3.451 2.915l26.008 44.419a6.487 6.487 0 0 1 .665 4.368 6.539 6.539 0 0 1-2.291 3.794l-27.498 21.139c.677 4.014.948 8.295.948 12.577Zm-146.295 0c0 26.491 21.944 48.166 48.765 48.166s48.765-21.675 48.765-48.166c0-26.491-21.944-48.166-48.765-48.166s-48.765 21.675-48.765 48.166Zm164.558 114.216c0 19.346-24.663 52.544-46.574 52.544-16.867 0-31.275-9.294-37.015-22.397-9.117 1.833-18.64 2.936-28.533 2.936-12.164 0-23.833-1.669-34.918-4.31-5.354 13.755-20.134 23.639-37.529 23.639-21.451 0-43.885-35.421-44.819-55.062-23.03-7.272-36.253-1.309-36.253 45.463 0 21.042 10.934 34.745 22.578 49.337 13.262 16.62 27.445 34.395 27.445 65.482 6.512 8.813 12.371 18.008 18.087 26.979v.001c17.466 27.413 33.599 52.733 62.985 58.648 2.849.574 7.152-1.095 11.53-2.794h.001c3.894-1.51 7.849-3.044 10.893-3.044 3.002 0 7.223 1.491 11.44 2.981h.001c4.87 1.721 9.734 3.439 12.709 2.857 29.106-5.692 43.32-29.627 59.518-56.905 5.571-9.381 11.377-19.157 18.104-28.723 0-35.248 14.55-53.323 27.678-69.631 10.791-13.404 20.62-25.615 20.62-45.188 0-49.007-13.722-53.212-38.002-44.332.036.491.054.997.054 1.519ZM503.74 398.344c0 3.25-1.412 2.569-3.581 1.523-1.419-.683-3.16-1.523-5.043-1.523-.077 0-.153.002-.229.004-5.037 7.31-19.249 21.403-35.995 21.403-16.118 0-29.889-13.056-35.39-20.553-1.54.204-2.96.889-4.152 1.463-2.169 1.046-3.581 1.727-3.581-1.523 0-5.374 3.861-9.73 8.624-9.73 4.764 0 8.625 4.356 8.625 9.73 0 .617-.051 1.092-.148 1.45 6.794 4.488 15.95 9.432 26.022 9.432 11.068 0 21.029-5.24 27.965-9.712-.238-.363-.366-.985-.366-1.964 0-5.374 3.861-9.73 8.625-9.73 4.763 0 8.624 4.356 8.624 9.73Zm-17.879 81.035-3.401-.551c1.837-1.409 4.23-5.345 6.437-8.973 3.211-5.28 6.026-9.91 6.155-5.156.092 3.395.863 6.936 1.722 9.891 20.425-11.295 34.566-28.476 34.566-39.271 0-8.111-7.985-3.807-20.622 3.005l-.03.016-.407.22-1.298.699c.131 4.626.517 12.323 1.657 17.468.969 4.371-2.958.151-7.504-4.734v-.001h-.001l-.002-.003c-2.118-2.276-4.37-4.696-6.324-6.459-12.12 5.836-26.457 11.197-41.367 11.197-14.36 0-28.855-4.973-41.538-10.553-2.244 1.706-5.172 4.854-7.881 7.764-4.546 4.886-8.472 9.106-7.504 4.735 1.273-5.742 1.606-14.662 1.694-18.946l-1.842-.906c-14.418-7.094-24.001-11.809-24.001-3.502 0 11.387 18.002 29.878 41.782 41.073 1.054-3.241 2.165-7.574 2.277-11.693.129-4.754 2.944-.124 6.155 5.156 2.207 3.628 4.6 7.564 6.437 8.973l-3.248.526c4.738.224 9.611-.449 14.538-1.131 4.353-.602 8.748-1.21 13.131-1.21 4.404 0 8.757.759 13.018 1.502 6.025 1.051 11.865 2.069 17.401.864Zm144.353-373.696c10.976-45.203 28.347-68.028 48.696-77.371 9.957-4.572 19.295-5.24 26.456-4.874 3.529.18 6.589.616 8.744.939.981.146 1.629.24 2.044.3.492.072.655.095.654.103a.416.416 0 0 1-.102.003h-.046v31.138c-2.336 0-5.153-.439-6.637-.67l-.52-.08c-1.942-.29-3.772-.537-5.723-.636-3.798-.194-7.78.193-11.877 2.074-7.759 3.563-21.432 15.24-31.431 56.421-9.977 41.087-23.701 63.67-41.638 74.285-14.539 8.605-30.688 7.532-38.749 6.996-1.469-.098-2.67-.177-3.543-.177v-31.138c3.623 0 6.655.14 9.296.262 7.297.337 11.604.536 17.138-2.739 6.789-4.018 17.817-16.04 27.238-54.836ZM288.027 297.069l27.739-55.754-17.515-31.138-46.599-15.152-9.587 63.708-113.123 167.46 87.574 70.059 71.511-31.137V297.069Zm303.605-54.909 27.74 55.754V465.96l71.511 31.137 87.573-70.059-113.123-167.46-9.587-63.708-46.599 15.152-17.515 31.138Z"/></svg></svg>