<svg width="30" height="30" fill="none" xmlns="http://www.w3.org/2000/svg"><path d="M12.5 18.75 18.988 15 12.5 11.25v7.5Zm14.45-9.787c.163.587.275 1.375.35 2.375.087 1 .125 1.862.125 2.612L27.5 15c0 2.738-.2 4.75-.55 6.038-.313 1.125-1.037 1.85-2.162 2.162-.588.163-1.663.275-3.313.35a83.312 83.312 0 0 1-4.488.125L15 23.75c-5.238 0-8.5-.2-9.787-.55-1.125-.313-1.85-1.037-2.163-2.162-.162-.588-.275-1.375-.35-2.375-.088-1-.125-1.863-.125-2.613L2.5 15c0-2.738.2-4.75.55-6.037.313-1.125 1.038-1.85 2.163-2.163.587-.162 1.662-.275 3.312-.35a83.312 83.312 0 0 1 4.487-.125L15 6.25c5.238 0 8.5.2 9.788.55 1.125.313 1.85 1.038 2.162 2.163Z" fill="#FAF9F9"/></svg>