<svg width="64" height="64" fill="none" xmlns="http://www.w3.org/2000/svg"><path fill="#EAD515" d="M0 0h64v64H0z"/><path fill-rule="evenodd" clip-rule="evenodd" d="m63.187 13.607-11.352.696v3.475l.046-.004 9.698 1.732.204-1.14-5.196-.928 6.6-.471v-3.36Zm-51.085.696L.75 13.608v3.36l6.6.471-5.196.928.204 1.14 9.698-1.732.046.004v-3.476Zm3.973 1.27c1.413.65 2.62 2.235 3.382 5.374.654 2.694 1.42 3.529 1.891 3.808.385.227.684.213 1.19.19.184-.008.394-.018.646-.018v2.162c-.06 0-.144.006-.246.013-.56.037-1.681.111-2.69-.486-1.247-.737-2.2-2.306-2.892-5.159-.695-2.86-1.644-3.67-2.183-3.918a1.712 1.712 0 0 0-.825-.144 4.01 4.01 0 0 0-.397.044l-.037.006a3.23 3.23 0 0 1-.46.046V15.33h-.011l.046-.008.142-.02c.15-.023.362-.053.607-.066a3.87 3.87 0 0 1 1.837.339Zm22.666 10.468a6.5 6.5 0 0 1-.056.873l1.89 1.468c.18.13.226.362.114.567l-1.806 3.085a.452.452 0 0 1-.556.204l-2.248-.892c-.46.353-.969.65-1.524.873l-.338 2.36a.437.437 0 0 1-.442.381h-3.613a.46.46 0 0 1-.451-.38l-.339-2.36a6.667 6.667 0 0 1-1.524-.874l-2.248.892c-.207.065-.442 0-.555-.204l-1.806-3.085a.451.451 0 0 1 .113-.567l1.91-1.468a5.386 5.386 0 0 1-.066-.873c0-.288.037-.595.084-.874L23.37 23.7c-.188-.13-.225-.371-.112-.566l1.797-3.085a.45.45 0 0 1 .555-.204l2.248.891c.46-.343.969-.65 1.524-.873l.338-2.36a.444.444 0 0 1 .442-.38h3.613a.448.448 0 0 1 .452.381l.338 2.36c.555.222 1.053.52 1.524.872l2.248-.892a.465.465 0 0 1 .555.205l1.806 3.085a.45.45 0 0 1-.113.566l-1.91 1.468c.048.28.066.576.066.874Zm-10.159 0c0 1.84 1.524 3.345 3.386 3.345 1.863 0 3.387-1.506 3.387-3.345 0-1.84-1.524-3.345-3.386-3.345-1.863 0-3.387 1.505-3.387 3.345Zm11.428 7.933c0 1.344-1.713 3.65-3.235 3.65-1.17 0-2.171-.646-2.57-1.556a10.03 10.03 0 0 1-1.981.204c-.845 0-1.656-.116-2.425-.3-.372.956-1.399 1.642-2.607 1.642-1.49 0-3.047-2.46-3.112-3.824-1.6-.505-2.518-.09-2.518 3.157 0 1.462.76 2.413 1.568 3.426.921 1.155 1.906 2.39 1.906 4.548.452.612.86 1.25 1.256 1.873 1.213 1.904 2.333 3.663 4.374 4.073.198.04.497-.076.801-.194.27-.105.545-.211.757-.211.208 0 .501.103.794.207.338.12.676.239.883.198 2.02-.395 3.008-2.057 4.133-3.951.387-.652.79-1.33 1.257-1.995 0-2.448 1.01-3.703 1.922-4.836.75-.93 1.432-1.778 1.432-3.138 0-3.403-.953-3.695-2.639-3.078.002.034.004.069.004.105Zm-4.313 7.297c0 .226-.098.179-.248.106a.824.824 0 0 0-.35-.106h-.017c-.35.508-1.336 1.487-2.5 1.487-1.119 0-2.075-.907-2.457-1.427a.969.969 0 0 0-.288.101c-.15.073-.249.12-.249-.106 0-.373.268-.675.599-.675.33 0 .599.302.599.675a.393.393 0 0 1-.01.101c.471.312 1.107.655 1.807.655.768 0 1.46-.364 1.942-.674-.017-.026-.026-.069-.026-.137 0-.373.268-.675.6-.675.33 0 .598.302.598.675Zm-1.24 5.627-.238-.038c.128-.098.294-.371.447-.623.224-.367.419-.688.428-.358.006.236.06.482.12.687 1.418-.785 2.4-1.977 2.4-2.727 0-.563-.555-.265-1.432.209l-.12.064c.008.322.035.856.114 1.213.068.304-.205.01-.52-.329a7.793 7.793 0 0 0-.44-.448c-.842.405-1.837.777-2.873.777-.997 0-2.004-.345-2.885-.733-.155.119-.359.337-.547.54-.315.339-.588.632-.52.328.088-.398.11-1.017.117-1.315l-.128-.063c-1.001-.493-1.667-.82-1.667-.243 0 .79 1.25 2.075 2.902 2.852a3.01 3.01 0 0 0 .158-.812c.009-.33.204-.009.427.358.154.252.32.525.447.623l-.227.037c.33.016.669-.031 1.011-.079.303-.041.608-.084.912-.084.306 0 .608.053.904.105.419.073.825.143 1.21.06ZM44.48 20.947c.762-3.14 1.969-4.724 3.382-5.373a3.87 3.87 0 0 1 1.837-.338c.245.012.458.042.607.065l.142.02a.495.495 0 0 1 .045.008h-.01v2.162a3.23 3.23 0 0 1-.46-.046l-.037-.006a4.01 4.01 0 0 0-.397-.044 1.712 1.712 0 0 0-.825.144c-.539.247-1.488 1.058-2.183 3.918-.693 2.853-1.646 4.422-2.891 5.159-1.01.597-2.131.523-2.691.486a4.213 4.213 0 0 0-.246-.013v-2.162c.252 0 .462.01.645.018.507.024.806.037 1.19-.19.472-.279 1.238-1.114 1.892-3.808Zm-23.763 13.29 1.927-3.872-1.217-2.162-3.236-1.052-.666 4.424-7.855 11.63 6.081 4.864 4.966-2.162v-11.67Zm21.084-3.813 1.926 3.872v11.67l4.966 2.162 6.082-4.865-7.856-11.63-.666-4.424-3.236 1.053-1.216 2.162Z" fill="#1E1E1E"/></svg>