<svg width="220" height="60" fill="none" xmlns="http://www.w3.org/2000/svg"><path fill-rule="evenodd" clip-rule="evenodd" d="M18.182 1.113 0 0v5.38l10.57.755-8.321 1.486.326 1.827 15.533-2.774.074.005V1.113Zm6.363 2.036c2.263 1.04 4.195 3.578 5.416 8.605 1.048 4.316 2.275 5.653 3.03 6.1.615.364 1.094.342 1.906.304.294-.013.63-.029 1.034-.029v3.463c-.097 0-.23.01-.394.02-.897.06-2.693.179-4.31-.778-1.995-1.18-3.521-3.692-4.631-8.262-1.112-4.58-2.633-5.88-3.496-6.276a2.74 2.74 0 0 0-1.321-.23c-.217.01-.42.038-.637.07l-.058.01a5.195 5.195 0 0 1-.738.074V2.757h-.016c0-.002.018-.004.073-.012l.227-.034c.24-.036.58-.084.973-.104a6.199 6.199 0 0 1 2.942.542Zm36.303 16.764c0 .491-.03.953-.09 1.4l3.027 2.35c.287.209.362.58.181.908l-2.892 4.94a.723.723 0 0 1-.89.328l-3.6-1.428a10.369 10.369 0 0 1-2.44 1.398l-.543 3.78a.7.7 0 0 1-.708.61h-5.786c-.361 0-.648-.253-.723-.61l-.542-3.78A10.681 10.681 0 0 1 43.4 28.41l-3.6 1.429c-.332.104-.709 0-.89-.327l-2.892-4.94a.722.722 0 0 1 .18-.909l3.059-2.35a8.61 8.61 0 0 1-.106-1.4c0-.46.06-.952.136-1.398l-3.058-2.352c-.302-.208-.362-.595-.181-.907l2.877-4.94a.723.723 0 0 1 .89-.328l3.6 1.428a10.908 10.908 0 0 1 2.44-1.398l.543-3.78a.71.71 0 0 1 .708-.61h5.786a.72.72 0 0 1 .723.61l.542 3.78c.89.357 1.688.833 2.441 1.398l3.6-1.428a.744.744 0 0 1 .89.327l2.892 4.94a.722.722 0 0 1-.18.908l-3.059 2.352c.076.446.106.922.106 1.398Zm-16.272 0c0 2.947 2.44 5.358 5.424 5.358 2.983 0 5.424-2.411 5.424-5.358 0-2.946-2.44-5.357-5.424-5.357-2.983 0-5.424 2.411-5.424 5.357ZM62.88 32.617c0 2.152-2.743 5.844-5.18 5.844-1.876 0-3.479-1.034-4.117-2.491a16.072 16.072 0 0 1-3.174.327c-1.353 0-2.65-.186-3.883-.48-.596 1.53-2.24 2.63-4.175 2.63-2.385 0-4.88-3.94-4.984-6.125-2.562-.809-4.033-.146-4.033 5.057 0 2.34 1.216 3.864 2.511 5.487 1.476 1.849 3.053 3.826 3.053 7.283.724.98 1.376 2.003 2.012 3v.001c1.942 3.049 3.737 5.865 7.005 6.523.317.064.796-.122 1.283-.31.433-.169.873-.34 1.211-.34.334 0 .804.167 1.273.332.541.192 1.082.383 1.413.318 3.237-.633 4.819-3.295 6.62-6.33.62-1.043 1.266-2.13 2.014-3.194 0-3.92 1.618-5.93 3.078-7.744 1.2-1.491 2.294-2.85 2.294-5.026 0-5.451-1.527-5.919-4.227-4.931.004.054.006.11.006.169Zm-6.907 11.688c0 .362-.157.286-.398.17-.158-.077-.352-.17-.561-.17h-.026c-.56.814-2.14 2.381-4.003 2.381-1.793 0-3.325-1.452-3.936-2.286-.172.023-.33.099-.462.163-.241.116-.398.192-.398-.17 0-.597.429-1.082.959-1.082s.96.485.96 1.082a.633.633 0 0 1-.017.162c.755.499 1.774 1.049 2.894 1.049 1.23 0 2.339-.583 3.11-1.08-.026-.04-.04-.11-.04-.219 0-.598.429-1.082.959-1.082s.959.484.959 1.082Zm-1.989 9.013-.378-.061c.205-.157.47-.595.716-.998.357-.587.67-1.102.685-.574.01.378.096.772.191 1.1 2.272-1.256 3.845-3.167 3.845-4.367 0-.903-.888-.424-2.294.334l-.193.104c.015.514.058 1.37.184 1.943.108.486-.328.017-.834-.527a12.505 12.505 0 0 0-.704-.719c-1.348.65-2.943 1.246-4.6 1.246-1.598 0-3.21-.553-4.62-1.174-.25.19-.576.54-.877.864-.506.543-.943 1.012-.835.526.142-.639.179-1.63.188-2.107l-.205-.1c-1.603-.79-2.669-1.314-2.669-.39 0 1.266 2.002 3.323 4.647 4.568.117-.36.241-.843.253-1.3.015-.53.328-.014.685.573.245.403.512.841.716.998l-.361.058c.526.025 1.069-.05 1.617-.125.484-.067.973-.135 1.46-.135.49 0 .974.084 1.448.167.67.117 1.32.23 1.935.096ZM70.04 11.754c1.22-5.027 3.153-7.566 5.416-8.605a6.198 6.198 0 0 1 2.942-.542c.393.02.733.068.973.104l.227.034.073.011h-.016V6.22c-.26 0-.573-.049-.739-.075l-.057-.009a6.443 6.443 0 0 0-.637-.07c-.422-.022-.865.021-1.32.23-.864.397-2.385 1.695-3.497 6.276-1.11 4.57-2.636 7.081-4.63 8.262-1.618.957-3.414.838-4.31.778-.164-.01-.298-.02-.395-.02V18.13c.403 0 .74.016 1.034.03.812.037 1.29.059 1.906-.305.755-.447 1.982-1.784 3.03-6.1ZM100 0 81.818 1.113V6.68l.074-.005 15.533 2.774.326-1.827-8.32-1.486L100 5.38V0ZM31.98 33.041l3.085-6.201-1.948-3.463-5.183-1.686-1.066 7.086-12.582 18.626 9.74 7.792 7.954-3.463V33.04Zm33.768-6.107 3.085 6.2v18.692l7.954 3.463 9.74-7.792L73.945 28.87l-1.066-7.086-5.183 1.686-1.948 3.463Z" fill="#1E1E1E"/><path d="M121.008 7.955c.128-.021.715-.032 1.76-.032.661.021 1.099.053 1.312.096.213.043.491.16.832.352.469.256.789.544.96.864.171.299.256.715.256 1.248 0 1.024-.331 2.09-.992 3.2-.661 1.088-1.461 1.92-2.4 2.496-.96.576-1.643.864-2.048.864-.149 0-.224-.053-.224-.16 0-.15.139-.373.416-.672a14.213 14.213 0 0 0 1.76-2.432c.533-.917.8-1.579.8-1.984 0-.192-.075-.288-.224-.288-.021 0-.224.021-.608.064-1.259.15-2.635.63-4.128 1.44-1.493.81-2.752 1.77-3.776 2.88-.491.512-.736.821-.736.928 0 .043.043.15.128.32.32.555 1.099.992 2.336 1.312 1.259.32 3.285.608 6.08.864 3.285.32 5.429.576 6.432.768.576.107 1.205.32 1.888.64.704.299 1.131.555 1.28.768.149.235.224.512.224.832 0 .853-.299 1.845-.896 2.976-.427.832-1.376 1.525-2.848 2.08-1.408.512-3.115.95-5.12 1.312-2.005.341-3.712.512-5.12.512-.341 0-.725-.021-1.152-.064-.619-.064-1.131-.256-1.536-.576-.384-.32-.725-.779-1.024-1.376-.299-.597-.448-1.11-.448-1.536 0-.192.032-.33.096-.416.256-.384 1.653-.587 4.192-.608 1.771-.043 3.136-.139 4.096-.288.768-.128 1.152-.224 1.152-.288 0-.064-.907-.192-2.72-.384-3.669-.341-6.187-.917-7.552-1.728-.747-.448-1.429-1.077-2.048-1.888-.597-.81-1.003-1.653-1.216-2.528a3.615 3.615 0 0 1-.128-.832c0-.235.043-.523.128-.864.384-1.6 1.493-3.104 3.328-4.512a17.551 17.551 0 0 1 7.488-3.36Zm15.913 10.944c-.896-1.963-1.398-2.944-1.504-2.944-.022 0-.107 1.077-.256 3.232-.128 2.155-.192 3.339-.192 3.552 0 .064.362-.192 1.088-.768.746-.576 1.216-.96 1.408-1.152.085-.128.128-.213.128-.256 0-.128-.224-.683-.672-1.664Zm-3.136-8.544c.469-.107.842-.16 1.12-.16.789 0 1.461.288 2.016.864.725.768 2.197 3.477 4.416 8.128.362.81.544 1.237.544 1.28 0 .085.277.81.832 2.176.554 1.344.906 2.165 1.056 2.464.17.341.426.79.768 1.344.277.47.416.843.416 1.12 0 .235-.011.427-.032.576a5.481 5.481 0 0 1-.512 1.984c-.299.661-.587.992-.864.992-.171 0-.427-.15-.768-.448a5.125 5.125 0 0 1-.896-1.024c-.342-.49-.768-1.216-1.28-2.176-.512-.96-.875-1.717-1.088-2.272l-.352-.928-.96.512c-.875.427-1.611.747-2.208.96-.854.363-1.291.555-1.312.576-.086.085-.182.64-.288 1.664-.192 1.6-.427 2.57-.704 2.912a.556.556 0 0 1-.16.16c-.022.021-.054.021-.096 0a2.15 2.15 0 0 0-.16-.128c-.15-.15-.288-.373-.416-.672-.235-.683-.395-4.33-.48-10.944a225.79 225.79 0 0 1-.032-4.192c0-1.472.042-2.517.128-3.136.085-.619.202-1.013.352-1.184.17-.17.49-.32.96-.448Zm24.113-1.92a4.1 4.1 0 0 1 .992-.128c.277 0 .458.053.544.16.149.15.277.224.384.224.32 0 .65.33.992.992.064.15.992 2.752 2.784 7.808 2.346 6.741 3.701 10.368 4.064 10.88.17.277.256.533.256.768a.896.896 0 0 1-.032.192v.224a3.665 3.665 0 0 1-.096.672c-.043.15-.107.299-.192.448-.086.17-.16.341-.224.512-.278.853-.619 1.28-1.024 1.28-.192 0-.48-.139-.864-.416-.555-.448-1.131-1.344-1.729-2.688-.575-1.344-1.589-4.075-3.039-8.192-1.28-3.733-1.974-5.6-2.08-5.6-.022 0-.107.405-.256 1.216-.128.79-.267 1.728-.416 2.816a107 107 0 0 0-.352 2.784c-.235 1.984-.406 3.243-.512 3.776-.107.512-.342 1.163-.704 1.952-.32.704-.64 1.056-.96 1.056-.256 0-.576-.16-.96-.48-.875-.683-2.379-3.104-4.512-7.264l-.96-1.856-.096 2.048c-.128 2.645-.352 4.875-.672 6.688-.299 1.792-.619 2.688-.96 2.688-.235 0-.395-.256-.48-.768-.086-.49-.139-1.685-.16-3.584-.128-6.912-.64-12.075-1.536-15.488a2.603 2.603 0 0 1-.128-.768c0-.256.106-.448.32-.576.213-.15.597-.277 1.152-.384.49-.107.842-.16 1.056-.16.149 0 .266.043.352.128.149.15.309.224.48.224.149 0 .309.15.48.448.17.277.522 1.024 1.056 2.24.512 1.152 1.333 2.88 2.464 5.184l1.568 3.072.16-1.184c.149-1.045.394-2.581.736-4.608.362-2.048.597-3.317.704-3.808.17-.619.341-1.12.512-1.504.17-.32.341-.523.512-.608.192-.107.65-.245 1.376-.416Zm18.553 2.4c.107-.107.416-.224.928-.352.512-.128.939-.192 1.28-.192.256 0 .416.043.48.128.043.107.149.16.32.16.363 0 .843.64 1.44 1.92 1.28 2.752 1.92 5.355 1.92 7.808 0 1.664-.331 3.19-.992 4.576-.085.192-.16.363-.224.512-.064.15-.107.267-.128.352l-.032.128c.021 0 .011.032-.032.096a3.745 3.745 0 0 1-.352.544c-.896 1.259-2.187 1.888-3.872 1.888a5.8 5.8 0 0 1-1.28-.16c-2.091-.555-3.947-2.027-5.568-4.416-1.621-2.41-2.432-4.907-2.432-7.488 0-2.048.32-3.072.96-3.072h.096c.149.021.245.064.288.128.043.064.075.213.096.448.192 3.157 1.152 5.813 2.88 7.968.853 1.088 1.739 1.856 2.656 2.304.725.363 1.397.544 2.016.544h.128a.25.25 0 0 1 .096-.032c.363-.085.747-.373 1.152-.864.427-.49.672-.95.736-1.376a10.61 10.61 0 0 0 .128-1.728c0-1.941-.64-4.235-1.92-6.88-.597-1.259-.896-2.101-.896-2.528 0-.192.043-.33.128-.416Zm16.09 1.152a5.91 5.91 0 0 0-2.56-.576c-1.451 0-2.635.49-3.552 1.472a2.52 2.52 0 0 0-.608 1.056c-.107.363-.16.917-.16 1.664v.416c0 .512.064 1.323.192 2.432.149 1.088.266 1.696.352 1.824h.032c.106 0 .394-.181.864-.544.192-.15.544-.405 1.056-.768.533-.384.832-.597.896-.64 1.152-.832 2.112-1.739 2.88-2.72.768-1.003 1.194-1.877 1.28-2.624l.064-.672-.736-.32Zm-4.096-4.352a10.958 10.958 0 0 1 2.4-.288c.533 0 .981.043 1.344.128.49.107 1.088.352 1.792.736.725.363 1.269.715 1.632 1.056.917.853 1.376 1.973 1.376 3.36 0 1.237-.384 2.677-1.152 4.32-.811 1.664-1.984 3.136-3.52 4.416l-1.216.992 1.568.64c2.986 1.216 4.768 1.824 5.344 1.824.213 0 .416.075.608.224.213.128.373.203.48.224.149.043.234.107.256.192.042.085.064.267.064.544 0 .725-.235 1.557-.704 2.496-.299.597-.683.896-1.152.896-.555 0-2.144-.512-4.768-1.536-2.624-1.045-4.214-1.792-4.768-2.24-.214-.192-.342-.267-.384-.224 0 .064.16.64.48 1.728.426 1.387.64 2.272.64 2.656a.982.982 0 0 1-.032.288c-.043.128-.086.192-.128.192-.022.021-.086-.021-.192-.128-.15-.15-.63-1.003-1.44-2.56-.811-1.579-1.43-2.88-1.856-3.904-1.515-3.584-2.272-6.645-2.272-9.184 0-.939.106-1.728.32-2.368.405-1.301 1.013-2.293 1.824-2.976.81-.683 1.962-1.184 3.456-1.504Zm15.569 11.264c-.896-1.963-1.397-2.944-1.504-2.944-.021 0-.106 1.077-.256 3.232-.128 2.155-.192 3.339-.192 3.552 0 .064.363-.192 1.088-.768.747-.576 1.216-.96 1.408-1.152.086-.128.128-.213.128-.256 0-.128-.224-.683-.672-1.664Zm-3.136-8.544c.47-.107.843-.16 1.12-.16.79 0 1.462.288 2.016.864.726.768 2.198 3.477 4.416 8.128.363.81.544 1.237.544 1.28 0 .085.278.81.832 2.176.555 1.344.907 2.165 1.056 2.464.171.341.427.79.768 1.344.278.47.416.843.416 1.12 0 .235-.01.427-.032.576a5.44 5.44 0 0 1-.512 1.984c-.298.661-.586.992-.864.992-.17 0-.426-.15-.768-.448a5.156 5.156 0 0 1-.896-1.024c-.341-.49-.768-1.216-1.28-2.176-.512-.96-.874-1.717-1.088-2.272l-.352-.928-.96.512c-.874.427-1.61.747-2.208.96-.853.363-1.29.555-1.312.576-.085.085-.181.64-.288 1.664-.192 1.6-.426 2.57-.704 2.912a.544.544 0 0 1-.16.16c-.021.021-.053.021-.096 0a1.774 1.774 0 0 0-.16-.128c-.149-.15-.288-.373-.416-.672-.234-.683-.394-4.33-.48-10.944a234.97 234.97 0 0 1-.032-4.192c0-1.472.043-2.517.128-3.136.086-.619.203-1.013.352-1.184.171-.17.491-.32.96-.448Zm15.505-6.976a3.447 3.447 0 0 1 1.088-.192c.342 0 .64.064.896.192.192.085.31.181.352.288.043.085.064.31.064.672 0 .405-.138 1.003-.416 1.792-.256.768-.554 1.44-.896 2.016-.512.896-1.173 1.792-1.984 2.688-.81.896-1.514 1.515-2.112 1.856-.469.277-.821.416-1.056.416-.17 0-.256-.096-.256-.288 0-.256.224-.757.672-1.504a25.75 25.75 0 0 0 1.984-3.808c.555-1.323.832-2.304.832-2.944 0-.405.043-.672.128-.8.107-.15.342-.277.704-.384Zm-3.168 12.512a.693.693 0 0 1 .64-.192c.214.021.384.16.512.416s.416 1.067.864 2.432c1.216 3.584 2.134 5.888 2.752 6.912.363.619.544 1.13.544 1.536 0 .277-.064.555-.192.832-.448 1.301-.874 1.952-1.28 1.952-.192 0-.437-.139-.736-.416a4.472 4.472 0 0 1-.736-.992c-.384-.661-.874-2.304-1.472-4.928-.597-2.645-.949-4.693-1.056-6.144a6.611 6.611 0 0 1-.032-.704c0-.341.064-.576.192-.704ZM122.96 32.435a4.1 4.1 0 0 1 .992-.128c.277 0 .459.053.544.16.149.15.277.224.384.224.32 0 .651.33.992.992.064.15.992 2.752 2.784 7.808 2.347 6.741 3.701 10.368 4.064 10.88.171.277.256.533.256.768a.896.896 0 0 1-.032.192v.224a3.497 3.497 0 0 1-.096.672c-.043.15-.107.299-.192.448-.085.17-.16.341-.224.512-.277.853-.619 1.28-1.024 1.28-.192 0-.48-.139-.864-.416-.555-.448-1.131-1.344-1.728-2.688-.576-1.344-1.589-4.075-3.04-8.192-1.28-3.733-1.973-5.6-2.08-5.6-.021 0-.107.405-.256 1.216-.128.79-.267 1.728-.416 2.816a111.547 111.547 0 0 0-.352 2.784c-.235 1.984-.405 3.243-.512 3.776-.107.512-.341 1.163-.704 1.952-.32.704-.64 1.056-.96 1.056-.256 0-.576-.16-.96-.48-.875-.683-2.379-3.104-4.512-7.264l-.96-1.856-.096 2.048c-.128 2.645-.352 4.875-.672 6.688-.299 1.792-.619 2.688-.96 2.688-.235 0-.395-.256-.48-.768-.085-.49-.139-1.685-.16-3.584-.128-6.912-.64-12.075-1.536-15.488a2.637 2.637 0 0 1-.128-.768.63.63 0 0 1 .32-.576c.213-.15.597-.277 1.152-.384.491-.107.843-.16 1.056-.16.149 0 .267.043.352.128.149.15.309.224.48.224.149 0 .309.15.48.448.171.277.523 1.024 1.056 2.24.512 1.152 1.333 2.88 2.464 5.184l1.568 3.072.16-1.184c.149-1.045.395-2.581.736-4.608.363-2.048.597-3.317.704-3.808.171-.619.341-1.12.512-1.504.171-.32.341-.523.512-.608.192-.107.651-.245 1.376-.416Zm17.21 8.768c-.448-.213-1.014-.352-1.696-.416h-.288a1.366 1.366 0 0 0-.224-.032c-.32 0-.566.064-.736.192-.171.107-.395.373-.672.8-.15.213-.32.32-.512.32a.483.483 0 0 1-.384-.192c-.107-.128-.192-.192-.256-.192-.086 0-.128.16-.128.48 0 .256.01.47.032.64.106 1.365.49 2.73 1.152 4.096.405.853.885 1.579 1.44 2.176.554.597 1.109.981 1.664 1.152.362.107.618.16.768.16.32 0 .672-.192 1.055-.576.897-.896 1.345-2.133 1.345-3.712 0-.747-.139-1.59-.416-2.528-.15-.448-.427-.896-.832-1.344a4.495 4.495 0 0 0-1.312-1.024Zm-4.512-4.704c.32-.192.586-.288.8-.288a.25.25 0 0 1 .096.032h.064c.192.064.821.096 1.888.096l1.568.032 1.311.672c2.326 1.152 3.883 3.083 4.673 5.792.192.683.288 1.717.288 3.104 0 1.323-.128 2.368-.384 3.136-.896 2.624-2.038 4.256-3.424 4.896-.448.192-1.067.288-1.856.288-.534 0-.907-.032-1.12-.096-.214-.043-.544-.17-.992-.384-1.472-.747-2.784-2.112-3.936-4.096-1.131-2.005-1.696-4.139-1.696-6.4 0-1.152.192-2.325.576-3.52.576-1.75 1.29-2.837 2.144-3.264Zm29.598-5.696c.362-.064.629-.096.8-.096.256 0 .586.085.992.256l.576.288-.032.864a5.648 5.648 0 0 1-.096.8 2.507 2.507 0 0 1-.256.64 28.36 28.36 0 0 0-.256.576c-.15.341-.31.587-.48.736-.15.128-.438.267-.864.416-.086.021-.32.107-.704.256-.363.128-.832.299-1.408.512-.576.192-1.11.373-1.6.544-2.006.725-3.008 1.173-3.008 1.344 0 .15.096.95.288 2.4.192 1.43.394 2.987.608 4.672.234 1.664.384 2.773.448 3.328.149 1.536.224 2.624.224 3.264 0 .533-.043.928-.128 1.184l-.16.384-.32-.32c-.192-.17-.395-.523-.608-1.056-.534-1.408-1.43-4.715-2.688-9.92-.47-1.963-.726-2.965-.768-3.008-.022-.021-.672.203-1.952.672-2.027.725-3.222 1.163-3.584 1.312l-1.696.576-.512-.384c-.299-.213-.64-.597-1.024-1.152-.363-.576-.576-1.045-.64-1.408a1.482 1.482 0 0 1-.032-.352c0-.277.149-.523.448-.736.32-.235 1.002-.608 2.048-1.12 3.712-1.77 6.24-2.656 7.584-2.656.341 0 1.301-.288 2.88-.864 2.965-1.11 4.938-1.76 5.92-1.952Zm9.601 10.4c-.448-.213-1.013-.352-1.696-.416h-.288a1.352 1.352 0 0 0-.224-.032c-.32 0-.565.064-.736.192-.171.107-.395.373-.672.8-.149.213-.32.32-.512.32a.486.486 0 0 1-.384-.192c-.107-.128-.192-.192-.256-.192-.085 0-.128.16-.128.48 0 .256.011.47.032.64.107 1.365.491 2.73 1.152 4.096.405.853.885 1.579 1.44 2.176.555.597 1.109.981 1.664 1.152.363.107.619.16.768.16.32 0 .672-.192 1.056-.576.896-.896 1.344-2.133 1.344-3.712 0-.747-.139-1.59-.416-2.528-.149-.448-.427-.896-.832-1.344a4.482 4.482 0 0 0-1.312-1.024Zm-4.512-4.704c.32-.192.587-.288.8-.288a.25.25 0 0 1 .096.032h.064c.192.064.821.096 1.888.096l1.568.032 1.312.672c2.325 1.152 3.883 3.083 4.672 5.792.192.683.288 1.717.288 3.104 0 1.323-.128 2.368-.384 3.136-.896 2.624-2.037 4.256-3.424 4.896-.448.192-1.067.288-1.856.288-.533 0-.907-.032-1.12-.096-.213-.043-.544-.17-.992-.384-1.472-.747-2.784-2.112-3.936-4.096-1.131-2.005-1.696-4.139-1.696-6.4 0-1.152.192-2.325.576-3.52.576-1.75 1.291-2.837 2.144-3.264Zm20.414-.512a5.906 5.906 0 0 0-2.56-.576c-1.45 0-2.634.49-3.552 1.472-.298.32-.501.672-.608 1.056-.106.363-.16.917-.16 1.664v.416c0 .512.064 1.323.192 2.432.15 1.088.267 1.696.352 1.824h.032c.107 0 .395-.181.864-.544.192-.15.544-.405 1.056-.768.534-.384.832-.597.896-.64 1.152-.832 2.112-1.739 2.88-2.72.768-1.003 1.195-1.877 1.28-2.624l.064-.672-.736-.32Zm-4.096-4.352a10.972 10.972 0 0 1 2.4-.288c.534 0 .982.043 1.344.128.491.107 1.088.352 1.792.736.726.363 1.27.715 1.632 1.056.918.853 1.376 1.973 1.376 3.36 0 1.237-.384 2.677-1.152 4.32-.81 1.664-1.984 3.136-3.52 4.416l-1.216.992 1.568.64c2.987 1.216 4.768 1.824 5.344 1.824.214 0 .416.075.608.224.214.128.374.203.48.224.15.043.235.107.256.192.043.085.064.267.064.544 0 .725-.234 1.557-.704 2.496-.298.597-.682.896-1.152.896-.554 0-2.144-.512-4.768-1.536-2.624-1.045-4.213-1.792-4.768-2.24-.213-.192-.341-.267-.384-.224 0 .064.16.64.48 1.728.427 1.387.64 2.272.64 2.656 0 .128-.01.224-.032.288-.042.128-.085.192-.128.192-.021.021-.085-.021-.192-.128-.149-.15-.629-1.003-1.44-2.56-.81-1.579-1.429-2.88-1.856-3.904-1.514-3.584-2.272-6.645-2.272-9.184 0-.939.107-1.728.32-2.368.406-1.301 1.014-2.293 1.824-2.976.811-.683 1.963-1.184 3.456-1.504Zm21.97.32c.128-.021.715-.032 1.76-.032.661.021 1.099.053 1.312.096.213.043.491.16.832.352.469.256.789.544.96.864.171.299.256.715.256 1.248 0 1.024-.331 2.09-.992 3.2-.661 1.088-1.461 1.92-2.4 2.496-.96.576-1.643.864-2.048.864-.149 0-.224-.053-.224-.16 0-.15.139-.373.416-.672a14.213 14.213 0 0 0 1.76-2.432c.533-.917.8-1.579.8-1.984 0-.192-.075-.288-.224-.288-.021 0-.224.021-.608.064-1.259.15-2.635.63-4.128 1.44-1.493.81-2.752 1.77-3.776 2.88-.491.512-.736.821-.736.928 0 .043.043.15.128.32.32.555 1.099.992 2.336 1.312 1.259.32 3.285.608 6.08.864 3.285.32 5.429.576 6.432.768.576.107 1.205.32 1.888.64.704.299 1.131.555 1.28.768.149.235.224.512.224.832 0 .853-.299 1.845-.896 2.976-.427.832-1.376 1.525-2.848 2.08-1.408.512-3.115.95-5.12 1.312-2.005.341-3.712.512-5.12.512-.341 0-.725-.021-1.152-.064-.619-.064-1.131-.256-1.536-.576-.384-.32-.725-.779-1.024-1.376-.299-.597-.448-1.11-.448-1.536 0-.192.032-.33.096-.416.256-.384 1.653-.587 4.192-.608 1.771-.043 3.136-.139 4.096-.288.768-.128 1.152-.224 1.152-.288 0-.064-.907-.192-2.72-.384-3.669-.341-6.187-.917-7.552-1.728-.747-.448-1.429-1.077-2.048-1.888-.597-.81-1.003-1.653-1.216-2.528a3.615 3.615 0 0 1-.128-.832c0-.235.043-.523.128-.864.384-1.6 1.493-3.104 3.328-4.512a17.552 17.552 0 0 1 7.488-3.36Z" fill="#1E1E1E"/></svg>