<svg width="900" height="537" fill="none" xmlns="http://www.w3.org/2000/svg"><path fill-rule="evenodd" clip-rule="evenodd" d="M899.593 0 736.121 10.008v50.043l.663-.048 139.658 24.94 2.932-16.422-74.812-13.359 95.031-6.788V0ZM163.971 10.008.5 0v48.374l95.03 6.788-74.811 13.36 2.932 16.42 139.658-24.939.662.048V10.008Zm57.212 18.304c20.348 9.344 37.72 32.168 48.696 77.371 9.421 38.796 20.448 50.818 27.238 54.836 5.534 3.275 9.841 3.076 17.138 2.739 2.64-.122 5.672-.262 9.296-.262v31.138c-.873 0-2.074.079-3.544.177-8.06.536-24.209 1.609-38.748-6.996-17.937-10.615-31.661-33.198-41.638-74.285-10-41.181-23.672-52.858-31.431-56.421-4.097-1.881-8.079-2.268-11.877-2.074-1.951.1-3.782.346-5.723.636l-.265.04-.255.04c-1.484.231-4.302.67-6.638.67V24.783h-.046c-.06 0-.101 0-.101-.003-.001-.008.162-.031.654-.102.415-.06 1.063-.155 2.043-.301 2.156-.323 5.216-.76 8.744-.94 7.162-.364 16.5.303 26.457 4.875ZM547.576 179.04c0 4.415-.271 8.563-.813 12.576l27.228 21.14c2.573 1.873 3.251 5.218 1.625 8.161l-26.008 44.42c-1.625 2.943-5.012 4.013-7.992 2.943l-32.374-12.844c-6.638 5.084-13.953 9.365-21.945 12.577l-4.876 33.983c-.407 3.211-3.116 5.486-6.367 5.486h-52.016c-3.251 0-5.824-2.275-6.502-5.486l-4.876-33.983c-7.992-3.212-15.172-7.493-21.945-12.577l-32.374 12.844c-2.98.937-6.367 0-7.992-2.943l-26.008-44.42a6.486 6.486 0 0 1-.666-4.368 6.545 6.545 0 0 1 2.291-3.793l27.498-21.14c-.677-4.013-.948-8.429-.948-12.576 0-4.148.542-8.563 1.219-12.577l-27.498-21.139c-2.709-1.873-3.251-5.352-1.625-8.162l25.872-44.419c1.626-2.943 5.012-4.014 7.992-2.943l32.375 12.844c6.637-4.95 13.952-9.366 21.944-12.577l4.877-33.983c.542-3.211 3.115-5.486 6.366-5.486h52.016a6.605 6.605 0 0 1 4.281 1.552 6.456 6.456 0 0 1 2.221 3.934l4.877 33.983c7.992 3.211 15.171 7.493 21.944 12.577L541.752 89.8a6.687 6.687 0 0 1 4.541.028 6.592 6.592 0 0 1 3.451 2.915l26.008 44.419a6.487 6.487 0 0 1 .665 4.368 6.539 6.539 0 0 1-2.291 3.794l-27.498 21.139c.677 4.014.948 8.295.948 12.577Zm-146.295 0c0 26.491 21.944 48.166 48.765 48.166s48.765-21.675 48.765-48.166c0-26.491-21.944-48.166-48.765-48.166s-48.765 21.675-48.765 48.166Zm164.558 114.216c0 19.346-24.663 52.544-46.574 52.544-16.867 0-31.275-9.294-37.015-22.397-9.117 1.833-18.64 2.936-28.533 2.936-12.164 0-23.833-1.669-34.918-4.31-5.354 13.755-20.134 23.639-37.529 23.639-21.451 0-43.885-35.421-44.819-55.062-23.03-7.272-36.253-1.309-36.253 45.463 0 21.042 10.934 34.745 22.578 49.337 13.262 16.62 27.445 34.395 27.445 65.482 6.512 8.813 12.371 18.008 18.087 26.979v.001c17.466 27.413 33.599 52.733 62.985 58.648 2.849.574 7.152-1.095 11.53-2.794h.001c3.894-1.51 7.849-3.044 10.893-3.044 3.002 0 7.223 1.491 11.44 2.981h.001c4.87 1.721 9.734 3.439 12.709 2.857 29.106-5.692 43.32-29.627 59.518-56.905 5.571-9.381 11.377-19.157 18.104-28.723 0-35.248 14.55-53.323 27.678-69.631 10.791-13.404 20.62-25.615 20.62-45.188 0-49.007-13.722-53.212-38.002-44.332.036.491.054.997.054 1.519ZM503.74 398.344c0 3.25-1.412 2.569-3.581 1.523-1.419-.683-3.16-1.523-5.043-1.523-.077 0-.153.002-.229.004-5.037 7.31-19.249 21.403-35.995 21.403-16.118 0-29.889-13.056-35.39-20.553-1.54.204-2.96.889-4.152 1.463-2.169 1.046-3.581 1.727-3.581-1.523 0-5.374 3.861-9.73 8.624-9.73 4.764 0 8.625 4.356 8.625 9.73 0 .617-.051 1.092-.148 1.45 6.794 4.488 15.95 9.432 26.022 9.432 11.068 0 21.029-5.24 27.965-9.712-.238-.363-.366-.985-.366-1.964 0-5.374 3.861-9.73 8.625-9.73 4.763 0 8.624 4.356 8.624 9.73Zm-17.879 81.035-3.401-.551c1.837-1.409 4.23-5.345 6.437-8.973 3.211-5.28 6.026-9.91 6.155-5.156.092 3.395.863 6.936 1.722 9.891 20.425-11.295 34.566-28.476 34.566-39.271 0-8.111-7.985-3.807-20.622 3.005l-.03.016-.407.22-1.298.699c.131 4.626.517 12.323 1.657 17.468.969 4.371-2.958.151-7.504-4.734v-.001h-.001l-.002-.003c-2.118-2.276-4.37-4.696-6.324-6.459-12.12 5.836-26.457 11.197-41.367 11.197-14.36 0-28.855-4.973-41.538-10.553-2.244 1.706-5.172 4.854-7.881 7.764-4.546 4.886-8.472 9.106-7.504 4.735 1.273-5.742 1.606-14.662 1.694-18.946l-1.842-.906c-14.418-7.094-24.001-11.809-24.001-3.502 0 11.387 18.002 29.878 41.782 41.073 1.054-3.241 2.165-7.574 2.277-11.693.129-4.754 2.944-.124 6.155 5.156 2.207 3.628 4.6 7.564 6.437 8.973l-3.248.526c4.738.224 9.611-.449 14.538-1.131 4.353-.602 8.748-1.21 13.131-1.21 4.404 0 8.757.759 13.018 1.502 6.025 1.051 11.865 2.069 17.401.864Zm144.353-373.696c10.976-45.203 28.347-68.028 48.696-77.371 9.957-4.572 19.295-5.24 26.456-4.874 3.529.18 6.589.616 8.744.939.981.146 1.629.24 2.044.3.492.072.655.095.654.103a.416.416 0 0 1-.102.003h-.046v31.138c-2.336 0-5.153-.439-6.637-.67l-.52-.08c-1.942-.29-3.772-.537-5.723-.636-3.798-.194-7.78.193-11.877 2.074-7.759 3.563-21.432 15.24-31.431 56.421-9.977 41.087-23.701 63.67-41.638 74.285-14.539 8.605-30.688 7.532-38.749 6.996-1.469-.098-2.67-.177-3.543-.177v-31.138c3.623 0 6.655.14 9.296.262 7.297.337 11.604.536 17.138-2.739 6.789-4.018 17.817-16.04 27.238-54.836ZM288.027 297.069l27.739-55.754-17.515-31.138-46.599-15.152-9.587 63.708-113.123 167.46 87.574 70.059 71.511-31.137V297.069Zm303.605-54.909 27.74 55.754V465.96l71.511 31.137 87.573-70.059-113.123-167.46-9.587-63.708-46.599 15.152-17.515 31.138Z" fill="#1E1E1E"/></svg>